<svg id="Layer_1" data-name="Layer 1" xmlns="http://www.w3.org/2000/svg" viewBox="0 0 905.57 638.53">
  <defs>
    <style>
      .cls-1 {
        fill: #e6d690;
      }

      .cls-2 {
        fill: #a5e281;
      }

      .cls-17, .cls-19, .cls-3, .cls-4, .cls-5 {
        isolation: isolate;
      }

      .cls-17, .cls-19, .cls-3, .cls-5 {
        font-size: 24px;
      }

      .cls-15, .cls-17, .cls-19, .cls-3, .cls-5 {
        fill: #76686d;
      }

      .cls-3 {
        font-family: -apple-system, BlinkMacSystemFont, "Segoe UI", "Roboto", "Oxygen", "Ubuntu", "Cantarell", "Fira Sans", "Droid Sans", "Helvetica Neue", sans-serif;
        font-weight: 700;
      }

      .cls-17, .cls-19, .cls-5 {
        font-family: -apple-system, BlinkMacSystemFont, "Segoe UI", "Roboto", "Oxygen", "Ubuntu", "Cantarell", "Fira Sans", "Droid Sans", "Helvetica Neue", sans-serif;
        font-weight: 300;
      }

      .cls-6 {
        letter-spacing: 0em;
      }

      .cls-7 {
        letter-spacing: -0.01em;
      }

      .cls-8 {
        letter-spacing: -0.06em;
      }

      .cls-9 {
        letter-spacing: 0.01em;
      }

      .cls-10 {
        letter-spacing: -0.03em;
      }

      .cls-11 {
        letter-spacing: -0.01em;
      }

      .cls-12 {
        letter-spacing: 0em;
      }

      .cls-13 {
        letter-spacing: -0.02em;
      }

      .cls-14 {
        letter-spacing: 0.01em;
      }

      .cls-16 {
        letter-spacing: -0.01em;
      }

      .cls-17 {
        letter-spacing: -0.04em;
      }

      .cls-18 {
        letter-spacing: -0.02em;
      }

      .cls-19 {
        letter-spacing: -0.04em;
      }

      .cls-20 {
        letter-spacing: -0.02em;
      }
    </style>
  </defs>
  <title>auswilderung</title>
  <g>
    <g>
      <path class="cls-1" d="M586.5,220a98.65,98.65,0,0,1,64.93,24.31l129-3,65.78-107.62A318.76,318.76,0,0,0,586.5,0H0L60,103.19,0,220Z"/>
      <polygon class="cls-2" points="329.05 528.11 389.03 418.15 60 418.15 0 526.18 60 638.15 389.07 638.15 329.05 528.11"/>
      <path class="cls-2" d="M880.45,194.84a318.35,318.35,0,0,0-28-52.17L786.11,251.15l-124.9,2.93a99,99,0,0,1-40.67,158l-63.27,116,59.25,108.63a319.21,319.21,0,0,0,263.93-441.9Z"/>
      <path class="cls-1" d="M545.88,528.11,607,416a99.1,99.1,0,0,1-20.53,2.15H400.42l-60,110,60,110h186c6.39,0,12.75-.21,19.09-.58Z"/>
    </g>
    <g>
      <text class="cls-3" transform="translate(369.54 114.61)">Phase 1</text>
      <g class="cls-4">
        <text class="cls-5" transform="translate(260.34 143.68)">Rettung &amp; Rehabilitation: Wald</text>
        <text class="cls-5" transform="translate(272.09 172.48)">Kindergarten &amp; Wald Schule</text>
      </g>
      <g>
        <path class="cls-15" d="M447.49,65.89a1.21,1.21,0,0,1-1.28-1.28V42.32l-4.1-2H391.63l-9.48,12v12.3a1.28,1.28,0,1,1-2.56,0h0V51.8a.94.94,0,0,1,.26-.77L390.1,38.22a1.33,1.33,0,0,1,1-.51h51.25c.26,0,.51,0,.51.26L448,40.53c.51,0,.77.51.77,1V64.59a1.21,1.21,0,0,1-1.12,1.3Z"/>
        <path class="cls-15" d="M398.81,55.65H388.56c-.51,0-.77-.26-1-.77a1.14,1.14,0,0,1,0-1.28L394,43.35a1.94,1.94,0,0,1,1-.51h3.84a1.21,1.21,0,0,1,1.28,1.28V54.36A1.21,1.21,0,0,1,399,55.65Zm-7.94-2.56h6.66V45.4h-1.8Z"/>
        <path class="cls-15" d="M447.49,71h-2.56a1.28,1.28,0,0,1,0-2.56h1.28V65.9h-50c-.26,0-.51,0-.51-.26l-5.12-2.56a.92.92,0,0,1-.51-1.54,1.47,1.47,0,0,1,1.79-.51l4.87,2.31h51A1.21,1.21,0,0,1,449,64.62v5.12A1.62,1.62,0,0,1,447.49,71Z"/>
        <path class="cls-15" d="M380.87,71h-2.56A1.21,1.21,0,0,1,377,69.74V64.62a1.21,1.21,0,0,1,1.14-1.28h2.7a1.28,1.28,0,0,1,0,2.56h-1.28v2.56h1.28a1.28,1.28,0,0,1,0,2.56Z"/>
        <path class="cls-15" d="M427,71H398.81a1.28,1.28,0,0,1,0-2.56H427A1.28,1.28,0,0,1,427,71Z"/>
        <path class="cls-15" d="M434.68,58.21a1.21,1.21,0,0,1-1.28-1.28V44.11a1.28,1.28,0,0,1,2.56,0h0V57a1.21,1.21,0,0,1-1.17,1.25Z"/>
        <path class="cls-15" d="M439.81,55.65a.94.94,0,0,1-.77-.26L428.79,47.7a1.28,1.28,0,1,1,1.54-2l10.25,7.69a1.27,1.27,0,0,1,.27,1.78h0A1.33,1.33,0,0,1,439.81,55.65Z"/>
        <path class="cls-15" d="M429.56,55.65a1.33,1.33,0,0,1-1-.51,1.27,1.27,0,0,1,.25-1.78h0L439,45.65a1.28,1.28,0,1,1,1.54,2l-10.25,7.69A.94.94,0,0,1,429.56,55.65Z"/>
        <path class="cls-15" d="M419.31,55.65H406.5a1.21,1.21,0,0,1-1.28-1.28V44.11a1.21,1.21,0,0,1,1.14-1.28h13a1.21,1.21,0,0,1,1.28,1.28V54.36a1.21,1.21,0,0,1-1.12,1.29Zm-11.53-2.56H418V45.4H407.78Z"/>
        <path class="cls-15" d="M437.24,81.27a6.41,6.41,0,1,1,6.41-6.41h0a6.34,6.34,0,0,1-6.27,6.41Zm0-10.25a3.84,3.84,0,1,0,3.84,3.84A3.94,3.94,0,0,0,437.24,71Z"/>
        <path class="cls-15" d="M388.56,81.27A6.41,6.41,0,1,1,395,74.86h0a6.34,6.34,0,0,1-6.27,6.41Zm0-10.25a3.84,3.84,0,1,0,3.84,3.84A3.94,3.94,0,0,0,388.56,71Z"/>
        <path class="cls-15" d="M411.62,40.27A1.21,1.21,0,0,1,410.34,39V31.3A1.21,1.21,0,0,0,409.21,30h-2.7a1.21,1.21,0,0,0-1.28,1.28V39a1.28,1.28,0,1,1-2.56,0h0V31.27a3.94,3.94,0,0,1,3.84-3.84H409a3.94,3.94,0,0,1,3.84,3.84V39a1.21,1.21,0,0,1-1.1,1.31Z"/>
      </g>
    </g>
    <g>
      <text class="cls-3" transform="translate(709.68 424.64)">Phase 2</text>
      <g class="cls-4">
        <text class="cls-5" transform="translate(689.42 453.71)">Pre-Release:</text>
        <text class="cls-5" transform="translate(672.66 482.51)">Wald Universität</text>
      </g>
      <g>
        <path class="cls-15" d="M733.63,383a1.25,1.25,0,0,1-1-.48c-3.6-6-7.44-13.44-7.44-19.92,0-2.88,1.68-6.48,3.12-10.32,1.92-4.32,4.08-9.36,4.08-13.68a1.2,1.2,0,0,1,2.4,0c0,4.8-2.16,10.08-4.08,14.64-1.68,3.6-3.12,7-3.12,9.36,0,5.52,3.6,12.72,6.48,17.76a11.66,11.66,0,0,1,6.24-.48,70.38,70.38,0,0,0,11.28.72,128.94,128.94,0,0,0,16.8-1.2,92.26,92.26,0,0,1,13.2-1.2,1.2,1.2,0,0,1,0,2.4,91.89,91.89,0,0,0-12.72,1,98.73,98.73,0,0,1-17.24,1.4,71.79,71.79,0,0,1-11.52-.72c-1.92-.24-2.4-.48-6.24.72Z"/>
        <path class="cls-15" d="M743.23,363.79a1.44,1.44,0,0,1-1-.24,1.16,1.16,0,0,1,0-1.64l0,0,.24-.24c1.44-1.44,2.16-4.32,1.92-7.68-.24-3.12-1-6-2.16-7.2a1.19,1.19,0,0,1,1.68-1.68c2.16,2.16,3.36,8.64,2.4,13.68,3.84-2.16,9.6-3.36,17,1.2,3.6-3.84,11.28-8.64,19-2.88a1.2,1.2,0,0,1-1.44,1.92h0c-8.4-6-16.08,3.12-16.32,3.36a1.48,1.48,0,0,1-1.68.24c-9.84-7-16.56-1.2-18.72.72l-.24.24C744,363.79,743.47,363.79,743.23,363.79Z"/>
        <path class="cls-15" d="M748,327.79a1.2,1.2,0,0,1,0-2.4h0a1.2,1.2,0,0,1,0,2.4Z"/>
        <path class="cls-15" d="M748,332.59a6,6,0,1,1,6-6,5.94,5.94,0,0,1-5.88,6Zm0-9.6a3.6,3.6,0,1,0,3.6,3.6h0A3.69,3.69,0,0,0,748,323Z"/>
        <path class="cls-15" d="M748,342.19a15.6,15.6,0,1,1,15.6-15.6h0a15.57,15.57,0,0,1-15.54,15.6Zm0-28.8a13.2,13.2,0,1,0,13.2,13.2h0a13.32,13.32,0,0,0-13.2-13.2Z"/>
      </g>
    </g>
    <g>
      <text class="cls-3" transform="translate(434.89 557.32)">Phase 3</text>
      <g class="cls-4">
        <text class="cls-17" transform="translate(413.65 586.39)">Auswilderung</text>
      </g>
      <g id="_Group_" data-name=" Group ">
        <g id="_Group_2" data-name=" Group 2">
          <path id="_Path_" data-name=" Path " class="cls-15" d="M467.68,496.67h-22.8a1.25,1.25,0,0,1-1-.48,1.44,1.44,0,0,1-.24-1l14.44-45.52a1.22,1.22,0,0,1,1.2-1h0a1.32,1.32,0,0,1,1.2.72l12,34.8a1.14,1.14,0,0,1-2.16.72l-11-31.2-12.76,40.56h21.12a1.2,1.2,0,1,1,0,2.4Z"/>
        </g>
        <g id="_Group_3" data-name=" Group 3">
          <path id="_Path_2" data-name=" Path 2" class="cls-15" d="M512.08,496.67h-22.8a1.2,1.2,0,0,1,0-2.4H510.4l-15.12-40.8-9.6,30.48a1.14,1.14,0,1,1-2.2-.61l0-.11,10.8-33.6a.88.88,0,0,1,1-1,1.32,1.32,0,0,1,1.2.72l16.8,45.6c.24.48,0,.72-.24,1.2A1.25,1.25,0,0,1,512.08,496.67Z"/>
        </g>
        <g id="_Group_4" data-name=" Group 4">
          <path id="_Path_3" data-name=" Path 3" class="cls-15" d="M478.48,520.67a1.13,1.13,0,0,1-1.2-1.2v-16.8a1.2,1.2,0,0,1,2.4,0h0v16.8a1.13,1.13,0,0,1-1.06,1.2Z"/>
        </g>
        <g id="_Group_5" data-name=" Group 5">
          <path id="_Path_4" data-name=" Path 4" class="cls-15" d="M497.68,503.87a1.13,1.13,0,0,1-1.2-1.2v-14.4a1.2,1.2,0,0,1,2.4,0v14.4a1.13,1.13,0,0,1-1.06,1.2Z"/>
        </g>
        <g id="_Group_6" data-name=" Group 6">
          <path id="_Path_5" data-name=" Path 5" class="cls-15" d="M459.28,503.87a1.13,1.13,0,0,1-1.2-1.2v-14.4a1.2,1.2,0,1,1,2.4,0v14.4a1.13,1.13,0,0,1-1.06,1.2Z"/>
        </g>
        <g id="_Group_7" data-name=" Group 7">
          <path id="_Compound_Path_" data-name=" Compound Path " class="cls-15" d="M492.88,511.07h-28.8a1.25,1.25,0,0,1-1-.48,1.44,1.44,0,0,1-.24-1l14.4-45.6c.24-1,1.92-1,2.4,0l14.44,45.68c0,.48,0,.72-.24,1A1.25,1.25,0,0,1,492.88,511.07Zm-27.12-2.4h25.42l-12.7-40.32Z"/>
        </g>
      </g>
    </g>
    <g>
      <text class="cls-3" transform="translate(150.75 550.14)">Phase 4</text>
      <g class="cls-4">
        <text class="cls-19" transform="translate(129.42 579.21)">Post-Release</text>
        <text class="cls-5" transform="translate(140.24 608.01)">Monitoring</text>
      </g>
      <g>
        <path class="cls-15" d="M169.72,458.32c-.48,0-.72-.24-1-.72a1.59,1.59,0,0,1,.48-1.68l10.79-6a1.24,1.24,0,1,1,1.2,2.16l-11,6C170.2,458.32,170,458.32,169.72,458.32Z"/>
        <path class="cls-15" d="M181.7,465.49a1.25,1.25,0,0,1-1-.48,1.12,1.12,0,0,1,.11-1.58l.13-.1,12-7.19a1.26,1.26,0,0,1,1.68.48c.48.72.24,1.2-.48,1.68l-12,7.19Z"/>
        <path class="cls-15" d="M205.67,477.49c-.48,0-.72-.24-1-.72a1.59,1.59,0,0,1,.48-1.68l12-6.71a1.24,1.24,0,1,1,1.2,2.16l-12,6.71A.88.88,0,0,1,205.67,477.49Z"/>
        <path class="cls-15" d="M218.85,483.49c-.48,0-.72-.24-1-.72a1.59,1.59,0,0,1,.48-1.68l10.79-6a1.24,1.24,0,1,1,1.2,2.16l-10.79,6A.88.88,0,0,1,218.85,483.49Z"/>
        <path class="cls-15" d="M203.27,513.49h-7.19a1.13,1.13,0,0,1-1.2-1.2V459L169.23,446.1c-.48,0-.72-.48-.72-1a2,2,0,0,1,.72-1.2l7.19-2.4h1l62.32,31.16a1.32,1.32,0,0,1,.72,1.2c0,.48-.24,1-.72,1l-7.19,2.4h-1l-27-13.42v48.42a1.13,1.13,0,0,1-1,1.23Zm-6-2.4h4.79V461.92a1.25,1.25,0,0,1,.48-1,1.07,1.07,0,0,1,1.2,0L232,475.06l4.07-1.44-59.2-29.72-4.07,1.44,23.73,12c.48,0,.72.48.72,1Z"/>
        <path class="cls-15" d="M187.69,448.49c-.48,0-1-.24-1-.72a1.59,1.59,0,0,1,.48-1.68l8.39-4.55a1.24,1.24,0,1,1,1.2,2.16l-8.63,4.55C188.17,448.49,187.93,448.49,187.69,448.49Z"/>
        <path class="cls-15" d="M199.68,454.73c-.48,0-.72-.24-1-.72a1.59,1.59,0,0,1,.48-1.68l10.79-6a1.24,1.24,0,1,1,1.2,2.16l-10.79,6A.88.88,0,0,1,199.68,454.73Z"/>
        <path class="cls-15" d="M211.66,460.72a1.13,1.13,0,0,1-.52-2.16l9.59-6a1.26,1.26,0,0,1,1.68.48c.48.72.24,1.2-.48,1.68l-9.59,6Z"/>
        <path class="cls-15" d="M223.65,466.71c-.48,0-1-.24-1-.72a1.59,1.59,0,0,1,.48-1.68l9.59-4.79a1.24,1.24,0,1,1,1.2,2.16l-9.55,4.81A.88.88,0,0,1,223.65,466.71Z"/>
      </g>
    </g>
  </g>
</svg>
