<svg xmlns="http://www.w3.org/2000/svg" viewBox="0 0 1202 1024">
  <defs>
    <style>
      .cls-1 {
        fill: #e6d690;
      }

      .cls-2 {
        fill: #d0da8b;
      }

      .cls-3 {
        fill: #bbde86;
      }

      .cls-4 {
        fill: #a5e281;
      }

      .cls-5, .cls-6 {
        font-size: 24px;
      }

      .cls-12, .cls-5, .cls-6 {
        fill: #76686d;
      }

      .cls-5 {
        font-family: SFUIDisplay-Light, SF UI Display;
      }

      .cls-6 {
        font-family: SFUIDisplay-Bold, SF UI Display;
        font-weight: 700;
      }

      .cls-7 {
        letter-spacing: 0em;
      }

      .cls-8 {
        letter-spacing: 0em;
      }

      .cls-9 {
        letter-spacing: -0.06em;
      }

      .cls-10 {
        letter-spacing: -0.02em;
      }

      .cls-11 {
        letter-spacing: -0.01em;
      }

      .cls-13 {
        letter-spacing: -0.01em;
      }
    </style>
  </defs>
  <title>auswilderung</title>
  <g id="Layer_2" data-name="Layer 2">
    <g>
      <path class="cls-1" d="M816.47,325l36.69-119.63a396.48,396.48,0,0,0-554.62,49.48l119.7,36.71,51.4,105.69A174.33,174.33,0,0,1,711.49,377Z"/>
      <path class="cls-2" d="M996.41,475.46A395.7,395.7,0,0,0,858.16,209.54l-36.71,119.7-105.69,51.4A174.33,174.33,0,0,1,736,622.49l52,105,119.63,36.69a395.72,395.72,0,0,0,88.78-288.7Z"/>
      <path class="cls-3" d="M385.53,699,348.84,818.63a396.48,396.48,0,0,0,554.62-49.48l-119.7-36.71-51.4-105.69A174.33,174.33,0,0,1,490.51,647Z"/>
      <path class="cls-4" d="M205.59,548.54A395.7,395.7,0,0,0,343.84,814.46l36.71-119.7,105.69-51.4A174.33,174.33,0,0,1,466,401.51l-52-105L294.37,259.84a395.72,395.72,0,0,0-88.78,288.7Z"/>
    </g>
    <g>
      <text class="cls-5" transform="translate(561.82 249.65)">Phase 1</text>
      <text class="cls-6" transform="translate(432.1 278.72)"><tspan class="cls-7">R</tspan><tspan x="15.3" y="0">ettung &amp; </tspan><tspan class="cls-7" x="116.33" y="0">R</tspan><tspan x="131.64" y="0">ehabili</tspan><tspan class="cls-8" x="205.38" y="0">t</tspan><tspan x="214.01" y="0">ation: </tspan><tspan class="cls-9" x="282.04" y="0">W</tspan><tspan x="303.8" y="0">ald </tspan><tspan x="0.61" y="28.8">Kinde</tspan><tspan class="cls-10" x="64.75" y="28.8">r</tspan><tspan x="73.23" y="28.8">gar</tspan><tspan class="cls-11" x="110.14" y="28.8">t</tspan><tspan x="118.65" y="28.8">en und </tspan><tspan class="cls-9" x="199.68" y="28.8">W</tspan><tspan x="221.44" y="28.8">ald Schule</tspan></text>
      <g>
        <path class="cls-12" d="M635.46,200.93a1.21,1.21,0,0,1-1.28-1.28V177.36l-4.1-2H579.6l-9.48,12v12.3a1.28,1.28,0,1,1-2.56,0V186.84a.94.94,0,0,1,.26-.77l10.25-12.81a1.33,1.33,0,0,1,1-.51h51.25c.26,0,.51,0,.51.26l5.12,2.56c.51,0,.77.51.77,1v23.06A1.21,1.21,0,0,1,635.46,200.93Z"/>
        <path class="cls-12" d="M586.78,190.69H576.53c-.51,0-.77-.26-1-.77a1.14,1.14,0,0,1,0-1.28l6.41-10.25a1.94,1.94,0,0,1,1-.51h3.84a1.21,1.21,0,0,1,1.28,1.28V189.4A1.21,1.21,0,0,1,586.78,190.69Zm-7.94-2.56h6.66v-7.69H583.7Z"/>
        <path class="cls-12" d="M635.46,206.06H632.9a1.28,1.28,0,1,1,0-2.56h1.28v-2.56h-50c-.26,0-.51,0-.51-.26l-5.12-2.56c-.77-.26-1-1-.51-1.54a1.47,1.47,0,0,1,1.79-.51l4.87,2.31h51a1.21,1.21,0,0,1,1.28,1.28v5.12A1.62,1.62,0,0,1,635.46,206.06Z"/>
        <path class="cls-12" d="M568.84,206.06h-2.56a1.21,1.21,0,0,1-1.28-1.28v-5.12a1.21,1.21,0,0,1,1.28-1.28h2.56a1.28,1.28,0,0,1,0,2.56h-1.28v2.56h1.28a1.28,1.28,0,0,1,0,2.56Z"/>
        <path class="cls-12" d="M615,206.06H586.78a1.28,1.28,0,0,1,0-2.56H615a1.28,1.28,0,1,1,0,2.56Z"/>
        <path class="cls-12" d="M622.65,193.25a1.21,1.21,0,0,1-1.28-1.28V179.15a1.28,1.28,0,1,1,2.56,0V192A1.21,1.21,0,0,1,622.65,193.25Z"/>
        <path class="cls-12" d="M627.78,190.69a.94.94,0,0,1-.77-.26l-10.25-7.69a1.28,1.28,0,1,1,1.54-2l10.25,7.69a1.27,1.27,0,0,1,.26,1.79A1.33,1.33,0,0,1,627.78,190.69Z"/>
        <path class="cls-12" d="M617.53,190.69a1.33,1.33,0,0,1-1-.51,1.27,1.27,0,0,1,.26-1.79L627,180.69a1.28,1.28,0,1,1,1.54,2l-10.25,7.69A.94.94,0,0,1,617.53,190.69Z"/>
        <path class="cls-12" d="M607.28,190.69H594.47a1.21,1.21,0,0,1-1.28-1.28V179.15a1.21,1.21,0,0,1,1.28-1.28h12.81a1.21,1.21,0,0,1,1.28,1.28V189.4A1.21,1.21,0,0,1,607.28,190.69Zm-11.53-2.56H606v-7.69H595.75Z"/>
        <path class="cls-12" d="M625.21,216.31a6.41,6.41,0,1,1,6.41-6.41A6.34,6.34,0,0,1,625.21,216.31Zm0-10.25a3.84,3.84,0,1,0,3.84,3.84A3.94,3.94,0,0,0,625.21,206.06Z"/>
        <path class="cls-12" d="M576.53,216.31a6.41,6.41,0,1,1,6.41-6.41A6.34,6.34,0,0,1,576.53,216.31Zm0-10.25a3.84,3.84,0,1,0,3.84,3.84A3.94,3.94,0,0,0,576.53,206.06Z"/>
        <path class="cls-12" d="M599.59,175.31a1.21,1.21,0,0,1-1.28-1.28v-7.69a1.21,1.21,0,0,0-1.28-1.28h-2.56a1.21,1.21,0,0,0-1.28,1.28V174a1.28,1.28,0,1,1-2.56,0v-7.69a3.94,3.94,0,0,1,3.84-3.84H597a3.94,3.94,0,0,1,3.84,3.84V174A1.21,1.21,0,0,1,599.59,175.31Z"/>
      </g>
    </g>
    <g>
      <text class="cls-5" transform="translate(838.13 549.65)">Phase 2</text>
      <text class="cls-6" transform="translate(811.03 578.72)">P<tspan class="cls-10" x="15" y="0">r</tspan><tspan x="23.48" y="0">e-</tspan><tspan class="cls-7" x="47.73" y="0">R</tspan><tspan x="63.04" y="0">elease</tspan><tspan x="-31.49" y="28.8">(</tspan><tspan class="cls-9" x="-23.17" y="28.8">W</tspan><tspan x="-1.41" y="28.8">ald Uni</tspan><tspan class="cls-13" x="74.73" y="28.8">v</tspan><tspan x="87.34" y="28.8">ersi</tspan><tspan class="cls-8" x="128.37" y="28.8">t</tspan><tspan x="136.99" y="28.8">ät)</tspan></text>
      <g>
        <path class="cls-12" d="M858.4,508a1.25,1.25,0,0,1-1-.48c-3.6-6-7.44-13.44-7.44-19.92,0-2.88,1.68-6.48,3.12-10.32,1.92-4.32,4.08-9.36,4.08-13.68a1.2,1.2,0,1,1,2.4,0c0,4.8-2.16,10.08-4.08,14.64-1.68,3.6-3.12,7-3.12,9.36,0,5.52,3.6,12.72,6.48,17.76a11.66,11.66,0,0,1,6.24-.48,70.38,70.38,0,0,0,11.28.72,128.94,128.94,0,0,0,16.8-1.2,92.26,92.26,0,0,1,13.2-1.2,1.2,1.2,0,0,1,0,2.4,91.89,91.89,0,0,0-12.72,1A98.73,98.73,0,0,1,876.4,508a71.79,71.79,0,0,1-11.52-.72c-1.92-.24-2.4-.48-6.24.72Z"/>
        <path class="cls-12" d="M868,488.8a1.44,1.44,0,0,1-1-.24,1.16,1.16,0,0,1,0-1.68l.24-.24c1.44-1.44,2.16-4.32,1.92-7.68-.24-3.12-1-6-2.16-7.2a1.19,1.19,0,0,1,1.68-1.68c2.16,2.16,3.36,8.64,2.4,13.68,3.84-2.16,9.6-3.36,17,1.2,3.6-3.84,11.28-8.64,19-2.88a1.2,1.2,0,1,1-1.44,1.92c-8.4-6-16.08,3.12-16.32,3.36a1.48,1.48,0,0,1-1.68.24c-9.84-7-16.56-1.2-18.72.72l-.24.24C868.72,488.8,868.24,488.8,868,488.8Z"/>
        <path class="cls-12" d="M872.8,452.8a1.2,1.2,0,1,1,0-2.4h0a1.2,1.2,0,0,1,0,2.4Z"/>
        <path class="cls-12" d="M872.8,457.6a6,6,0,1,1,6-6A5.94,5.94,0,0,1,872.8,457.6Zm0-9.6a3.6,3.6,0,1,0,3.6,3.6A3.69,3.69,0,0,0,872.8,448Z"/>
        <path class="cls-12" d="M872.8,467.2a15.6,15.6,0,1,1,15.6-15.6A15.57,15.57,0,0,1,872.8,467.2Zm0-28.8A13.2,13.2,0,1,0,886,451.6,13.32,13.32,0,0,0,872.8,438.4Z"/>
      </g>
    </g>
    <g>
      <text class="cls-5" transform="translate(559.94 815.65)">Phase 3</text>
      <text class="cls-6" transform="translate(523.97 844.72)"><tspan class="cls-10">A</tspan><tspan x="16.15" y="0">u</tspan><tspan class="cls-8" x="30.29" y="0">s</tspan><tspan x="42.87" y="0">wilderung</tspan></text>
      <g id="_Group_" data-name="&lt;Group&gt;">
        <g id="_Group_2" data-name="&lt;Group&gt;">
          <path id="_Path_" data-name="&lt;Path&gt;" class="cls-12" d="M591.5,755H568.7a1.25,1.25,0,0,1-1-.48,1.44,1.44,0,0,1-.24-1L581.9,708a1.22,1.22,0,0,1,1.2-1h0a1.32,1.32,0,0,1,1.2.72l12,34.8a1.14,1.14,0,0,1-2.16.72l-11-31.2L570.38,752.6H591.5a1.2,1.2,0,1,1,0,2.4Z"/>
        </g>
        <g id="_Group_3" data-name="&lt;Group&gt;">
          <path id="_Path_2" data-name="&lt;Path&gt;" class="cls-12" d="M635.9,755H613.1a1.2,1.2,0,0,1,0-2.4h21.12L619.1,711.8l-9.6,30.48a1.14,1.14,0,1,1-2.16-.72l10.8-33.6a.88.88,0,0,1,1-1,1.32,1.32,0,0,1,1.2.72l16.8,45.6c.24.48,0,.72-.24,1.2A1.25,1.25,0,0,1,635.9,755Z"/>
        </g>
        <g id="_Group_4" data-name="&lt;Group&gt;">
          <path id="_Path_3" data-name="&lt;Path&gt;" class="cls-12" d="M602.3,779a1.13,1.13,0,0,1-1.2-1.2V761a1.2,1.2,0,0,1,2.4,0v16.8A1.13,1.13,0,0,1,602.3,779Z"/>
        </g>
        <g id="_Group_5" data-name="&lt;Group&gt;">
          <path id="_Path_4" data-name="&lt;Path&gt;" class="cls-12" d="M621.5,762.2a1.13,1.13,0,0,1-1.2-1.2V746.6a1.2,1.2,0,1,1,2.4,0V761A1.13,1.13,0,0,1,621.5,762.2Z"/>
        </g>
        <g id="_Group_6" data-name="&lt;Group&gt;">
          <path id="_Path_5" data-name="&lt;Path&gt;" class="cls-12" d="M583.1,762.2a1.13,1.13,0,0,1-1.2-1.2V746.6a1.2,1.2,0,1,1,2.4,0V761A1.13,1.13,0,0,1,583.1,762.2Z"/>
        </g>
        <g id="_Group_7" data-name="&lt;Group&gt;">
          <path id="_Compound_Path_" data-name="&lt;Compound Path&gt;" class="cls-12" d="M616.7,769.4H587.9a1.25,1.25,0,0,1-1-.48,1.44,1.44,0,0,1-.24-1l14.4-45.6c.24-1,1.92-1,2.4,0L617.9,768c0,.48,0,.72-.24,1A1.25,1.25,0,0,1,616.7,769.4ZM589.58,767H615L602.3,726.68Z"/>
        </g>
      </g>
    </g>
    <g>
      <text class="cls-5" transform="translate(278.76 549.65)">Phase 4</text>
      <text class="cls-6" transform="translate(245.69 578.72)"><tspan class="cls-10">P</tspan><tspan x="14.59" y="0">os</tspan><tspan class="cls-11" x="41.3" y="0">t</tspan><tspan x="49.8" y="0">-</tspan><tspan class="cls-7" x="60.41" y="0">R</tspan><tspan x="75.71" y="0">elease</tspan><tspan x="13.89" y="28.8">Moni</tspan><tspan class="cls-11" x="68.68" y="28.8">t</tspan><tspan x="77.19" y="28.8">oring</tspan></text>
      <g>
        <path class="cls-12" d="M282.2,457.83c-.48,0-.72-.24-1-.72a1.59,1.59,0,0,1,.48-1.68l10.79-6a1.23,1.23,0,0,1,1.2,2.16l-11,6C282.68,457.83,282.44,457.83,282.2,457.83Z"/>
        <path class="cls-12" d="M294.18,465a1.25,1.25,0,0,1-1-.48,1.12,1.12,0,0,1,.24-1.68l12-7.19a1.26,1.26,0,0,1,1.68.48c.48.72.24,1.2-.48,1.68l-12,7.19Z"/>
        <path class="cls-12" d="M318.15,477c-.48,0-.72-.24-1-.72a1.59,1.59,0,0,1,.48-1.68l12-6.71a1.23,1.23,0,1,1,1.2,2.16l-12,6.71A.88.88,0,0,1,318.15,477Z"/>
        <path class="cls-12" d="M331.33,483c-.48,0-.72-.24-1-.72a1.59,1.59,0,0,1,.48-1.68l10.79-6a1.23,1.23,0,1,1,1.2,2.16l-10.79,6A.88.88,0,0,1,331.33,483Z"/>
        <path class="cls-12" d="M315.75,513h-7.19a1.13,1.13,0,0,1-1.2-1.2V458.55l-25.65-12.94c-.48,0-.72-.48-.72-1a2,2,0,0,1,.72-1.2l7.19-2.4h1l62.32,31.16a1.32,1.32,0,0,1,.72,1.2c0,.48-.24,1-.72,1l-7.19,2.4h-1L317,463.35v48.42A1.13,1.13,0,0,1,315.75,513Zm-6-2.4h4.79V461.43a1.25,1.25,0,0,1,.48-1,1.07,1.07,0,0,1,1.2,0l28.28,14.14,4.07-1.44-59.2-29.72-4.07,1.44,23.73,12c.48,0,.72.48.72,1Z"/>
        <path class="cls-12" d="M300.17,448c-.48,0-1-.24-1-.72a1.59,1.59,0,0,1,.48-1.68l8.39-4.55a1.23,1.23,0,0,1,1.2,2.16l-8.63,4.55C300.65,448,300.41,448,300.17,448Z"/>
        <path class="cls-12" d="M312.16,454.24c-.48,0-.72-.24-1-.72a1.59,1.59,0,0,1,.48-1.68l10.79-6a1.23,1.23,0,1,1,1.2,2.16l-10.79,6A.88.88,0,0,1,312.16,454.24Z"/>
        <path class="cls-12" d="M324.14,460.23a1.25,1.25,0,0,1-1-.48,1.26,1.26,0,0,1,.48-1.68l9.59-6a1.26,1.26,0,0,1,1.68.48c.48.72.24,1.2-.48,1.68l-9.59,6Z"/>
        <path class="cls-12" d="M336.13,466.22c-.48,0-1-.24-1-.72a1.59,1.59,0,0,1,.48-1.68l9.59-4.79a1.23,1.23,0,1,1,1.2,2.16L336.85,466A.88.88,0,0,1,336.13,466.22Z"/>
      </g>
    </g>
  </g>
</svg>
