<svg id="Layer_1" data-name="Layer 1" xmlns="http://www.w3.org/2000/svg" xmlns:xlink="http://www.w3.org/1999/xlink" viewBox="0 0 1094.72 1100.1">
  <defs>
    <style>
      .cls-1, .cls-5 {
        fill: none;
      }

      .cls-2 {
        fill: #e7d78f;
      }

      .cls-3 {
        fill: #a9d381;
        stroke: #656565;
        stroke-width: 3px;
      }

      .cls-3, .cls-5, .cls-6 {
        stroke-miterlimit: 10;
      }

      .cls-4 {
        clip-path: url(#clip-path);
      }

      .cls-5 {
        stroke: #a08171;
      }

      .cls-6 {
        fill: #f04e27;
        stroke: #000;
      }

      .cls-7 {
        font-size: 28px;
        fill: #3a3436;
        font-family: SFUIDisplay-Regular, SF UI Display;
      }

      .cls-8 {
        letter-spacing: -0.06em;
      }

      .cls-9 {
        letter-spacing: -0.05em;
      }
    </style>
    <clipPath id="clip-path">
      <rect class="cls-1" width="1094.72" height="1100.1"/>
    </clipPath>
  </defs>
  <title>central_kalimantan</title>
  <path class="cls-2" d="M34.4,822.27,55,839.33l32.69,13.06,15.81,11.31,6.72,18,46.94,46.63,31.75,41.34-14.06-26.12,1.69-10.31h4l4.09,9.69-1.5,10,9.69,9.94,8.41,2.19,15.44-13.53,19.59-6.47,10.59-24.78L296,905.64l33.73,1.8h0a13.74,13.74,0,0,0,.67,12c16.08,32.66,21.83,66.71,8.56,101.77-2,5.37-3.18,11.31-6.42,16.24-4.25,6.46-8.64,12.84-13,19.21-2.58,3.74-1.72,7.87,2.06,8.54,8.71,1.57,16.18,6.15,24.45,8.57,9.76,2.85,19.85,1.36,29.81,1.6a2.37,2.37,0,0,1,3.09-1.55c.3.08.46.65.69,1l-3.7.66c9.8,1.4,19.46.33,29.08-1.6H384c7-1,14.1-3.71,21-.11,3.41-.25,9.63,1.07,9.75-.87.47-7.1,5.35-4.67,8.74-5.27,8.18-1.44,16.32-2.91,24-6.39,3.81-1.73,5.77-6.4,10.65-6.31,4.6.09,7.88-2.58,11.55-5,8.91-6,17.8-12.4,27.63-16.32,6.1-2.43,12.84-3.09,18.74-7,11.76-7.8,24.26-13.82,39.07-13.07,4.22.21,8.54-.8,12.76-1.57,3.46-.63,5.18-2.4,5.58-6.55.55-5.76-.42-12.7,6.69-16,.65-.3,1.68-1.71.57-2.68s-2.35-.41-3.63.33c-2.62,1.51-2.63,6-7.48,6.13,3.84-10.16,13.36-10.22,20.68-13.6,2,2.76,5.08,2.32,8.56,2.72-7,1.61-2.91,7.72-5.53,11.16-5.45,7.17-4.35,11.36,3.74,15.89,5.12,2.87,11.74,5.28,14.86,9.1,8.92,10.89,22.69,4.62,32.42,11.2,1.07.73,4.5-.62,5.87-2,5.85-5.8,13.32-4.78,21.73-6.62-6.67,7.55-16.72,4.91-22.07,11.91,2.12,0,4.64.79,5.74-.13,8.22-6.81,15.36-4.54,22.79,1.5,1.83,1.48,5.33,2.9,6-.73a4.93,4.93,0,0,1-.13.52l18.19,12.07,2,6.78,16.66,12.94,11.84-.81,7.15,4.37h0l5.76-.73.8,3.79L785.92,1091l24-.51,10.58-30.71-5-16.32,3.23-15.85,12.27-19.25,5.48-.72,11.14-14.14,2.78-18.86-4.83-18.83,8.72.48,3.58,6.8-.1.93-1.06-.6-1.15,20.77-.06.12-8,16.39h0l-.07.15,4.46.11h0l-2,6.18L838.84,1010l.8.42-2.43.76-11.76,23.6,6.78,32.78L828,1071.6l2.61,13.4-4.23,14.88h268.46V0H0V741.55l19.65,38.5ZM959.81,627.68l.73-.25V642.8l-.73,0ZM911,682.91c2.23-4.94,5.15-9.69,11.35-10.37,3-.34,6.13-.65,7.72,2.46l-11.81-.85-6,10.09,3.08,6.78-.68-.43C911.23,688.59,909.44,686.39,911,682.91ZM866.1,722.36l-.66,3.89.66-3.89Zm0,0c-4.58,1-9.15,2-13.74,3C856.95,724.38,861.52,723.35,866.1,722.36Zm-20.47,41.52-31.87,55.46h0ZM789.18,942.46l-1.53-6.22h0l1.53,6.22ZM789,935.1l4.43-3.74h0Zm14.73-42.63-21,19.46,9.52,17.37-9.53-17.37ZM748.85,711.36c6.38,3.74,10.3-4.41,16.67-3.08-3.3,6.85-10.45,4.51-15.57,6.86-1,.48-1.47-1.06-1.83-2S748.39,711.09,748.85,711.36Zm1.49,280.78,2.87-10.73-2.86,10.74L745.91,998Zm-8-161.23c.1.06.12.27.18.42l-.66-.57A1.56,1.56,0,0,1,742.37,830.92Zm-.93,3.39.45.72-.66-.22Zm-1.82,182.18,3.52,14.31-6.75,17.49.06.34-.06-.36,6.75-17.47Zm-12.93-82.31.86,1.52-.86,1a1.88,1.88,0,0,1,0-2.55Zm-1.82-26.26.82.25v21.68h-.82Zm-12.66,63.46.66-3.61c.22.14.58.25.63.43A2.43,2.43,0,0,1,712.19,971.38Zm2.62-14.59L710.27,963C710.27,960.46,710.36,958,714.81,956.79Zm-4.7,6.49-1,2.46-1-.56Zm2,8.16L707.4,984C708.33,979.59,704.29,973.29,712.14,971.44Zm-4.88,13c-.42,3.42,1.62,7.68-3.2,9.62C703.85,990.46,704.27,987,707.26,984.46ZM704,994.21c0,1.28-.17,2.52-1.54,3.15C702.55,996.11,702.55,994.8,704,994.21Zm-4.24,7.93c-4.49-.31-7.74,3-11.91,3.34,2.54-6.82,10.51-3.83,14.53-8C702.15,999.47,702.82,1002.36,699.75,1002.14Zm-8.09-322.41c3,0,3.88,1.9,4,4.08-.1,3.21-1.53,4.59-4.32,4.62s-4.43-1.31-4.48-4.07C686.82,681.29,688.48,679.69,691.66,679.73Zm-3.91,325.89c0,2-1.18,3-3.1,3.11ZM678.8,1014a21.87,21.87,0,0,0-2.11,3A21.79,21.79,0,0,1,678.8,1014Zm-4.22,7.13c.45-1,.9-1.93,1.36-2.79l4.33-1.84,9.66,4.63-7.06,8.13.56,2.52,1-.25c-.79.18-1.57.39-2.36.52-4.08.66-7.92-1.94-8-4.81-.07-4.17,4.61-1.6,7.14-2.26a10.77,10.77,0,0,1,3.22.15l.08-.06C685.35,1016.75,680.25,1018.7,674.59,1021.09Zm-75.12-33c-.52-2.23,1.2-2.67,2.16-3.62C601.38,985.87,601.07,987.25,599.47,988.08Zm40.85-100c-.4,1.75-.83,4.13-2.08,4.94-9.44,6.08-16.18,14.63-22.6,23.55A5.06,5.06,0,0,1,611,919c5.05-8,8.57-17.17,17.39-22.13,4.21-2.37,5.65-6.6,7.63-10.5.72-1.42,1.55-3.29,3.15-2.88C641.59,884.07,640.69,886.43,640.31,888.07Zm-30.57,35.05a1.06,1.06,0,0,1-1.65-.94c-.08-1.9,1.41-2.57,2.84-3.21C611,920.5,611.33,922.17,609.74,923.13Zm12.48-58.59c-.22.09-.95-.41-1-.75-.53-2,.8-2.62,2.31-3.08C623.08,862,624.06,863.77,622.22,864.54Zm15.86,15.38a6.49,6.49,0,0,1,.52-1.1l.44.51-.55,1.09C638.34,880.24,638,880,638.08,879.91Zm24.15-176.3c3.71.45,6.89-.39,9.3-3.64-.45,5.11-.64,10-8,6.39-3.74-1.81-6.38,2.75-10,2.94C654.7,704.77,657.77,703.08,662.23,703.61ZM653.42,528l.37-2,.87.49-1.11,1.61c-8.76,4.15-8.78,4.16-4.44,19.42a50.86,50.86,0,0,0,2.21,5.3c-4.06-.12-5.37-2-5.26-5a31.1,31.1,0,0,0-1-8.51C642.54,528.91,642.64,528.88,653.42,528Zm-19.9,253.8c-4.78-1.8-5-5.58-2.54-8.67,14-17.37,15.56-38.21,16.88-59.24,3.29.62,2,3,2,4.39-.32,18.78-2.86,37-13.91,53-3.2,4.63-3.77,8.29,2.3,11.08,3.62,1.66,3.07,4.31.6,6.92-3.92,4.14-8.55,7.69-11.37,14.61-1.71-7.5,2.88-10.51,6.56-13.5C638.41,786.84,640,784.24,633.52,781.8Zm-8.81,58.85a11,11,0,0,1,1.4,1.9c.11.25-.36.75-.56,1.14a6.94,6.94,0,0,1-1.34-1.39C624.06,842,624.43,841.49,624.71,840.66Zm4.38,6.44c3.15,6.48,3.15,6.5-5.51,13.47C622.76,855.06,628.42,852.44,629.08,847.1Zm-7.41-17.54c1.81,2.83,1.53,4.94.74,9C620.32,834.89,620.84,832.75,621.68,829.56Zm-5.34,72.85c-1.28,4.81-2.8,8.27-6.52,10.44C609.93,908.6,612.32,905.64,616.34,902.41Zm-17.14,54.11c-1.5-6.47-1.29-13.64,3.17-20.18,2.75-4,3.08-9.65,3-14.88,0-3.45-.05-7.19,4.32-8.49-3.23,7.74-1.13,16.25-3.42,24.13l.29.31c3.93-4.63,4.49-1.77,3.87,2.13,3-.45,1.7-3.66,5.06-4.44-5.6,13.18-3.36,26.9-6.34,39.9-.94,4.08-2.4,8.36-7.5,9.4,2.11-4.87,4.15-9.78,6.34-14.61,1.6-3.51-2-4-3.3-4.52-2.84-1.19-1.35,1.78-1.41,2.59-.62,8.11-6.47,10.16-12.91,11.63C599.16,974.06,601.58,966.83,599.19,956.52ZM420.93,841.88c1.42-.09,3.62-.62,3.72,1.53s1.69,5.56-1.59,5.86c-4.31.4-1.92,4.24-4.36,6.1,0-3.52-.18-6.14.06-8.71C418.93,844.91,417.46,842.11,420.93,841.88Zm-46.46,228.78a32.82,32.82,0,0,1-17.55,0Zm-217-628.83,4.13,1.88-1-6.66,5.69-2.53L162.47,426l4.66-8.22-2.66-7.47,10.5-19.5-.62-17.72,3.34,1.34,1,16.66L172,402.86l-.87,14.53,5.66,10-4.41,4,3.63,1.91-10.12,8.84,2.66,6.44-7,10.88-7.19-10.16Z"/>
  <g>
    <path class="cls-3" d="M1001.42,363.77l7.7,10.79A50.35,50.35,0,0,0,1001.42,363.77Z"/>
    <path class="cls-3" d="M515.79,314.57a3.62,3.62,0,0,0-.07-1.65A5.14,5.14,0,0,0,515.79,314.57Z"/>
    <path class="cls-3" d="M1026.48,398.38l-.32.11,7.55,10.59c1.65-1.14,2.48-2.8,1.19-5.41C1033.34,400.51,1031.64,396.39,1026.48,398.38Z"/>
    <path class="cls-3" d="M510.83,306.57c1.64,0,4.37-1.12,3.56-1.91a7,7,0,0,1-2-3.16c-1.89,1-4.24.64-7.14-.73,2.47,5.84,9.45,8.34,10.48,12.14a21.7,21.7,0,0,1,.6-3,34.42,34.42,0,0,0-5.71-3.11Z"/>
  </g>
  <path class="cls-3" d="M415.53,253.72c1.6,8.06,2.32,16.49,10.92,20.9,1,.53.15,1.28-.14,2-2.66,6.25-1.55,9.71,4.66,12,2.73,1,1.88,2.72,2.65,4.25,2.3,4.52-.55,14.35,9.51,11.94,4.6-1.1,4.66-.12,3.59,3.44-1.24,4.14-1.76,6.38,4.14,8.69,7.79,3,14.09,9.83,19.14,16.82,1.37,1.9,5.29,1.94,4.29,3.78-5.62,10.42,4.27,3.41,5.93,5.48,1.49,2.6-2.78,4.3-.87,7.28,3.66,5.71,7.79,9.55,15.34,8.48,7.34-1,9.81,2.78,7.89,9.72,3.44-2.93,9.49-1.3,11.62-6.64a2,2,0,0,1,1.84-.54c1.24,1,2.37,2.21,1.83,4.05-.89,3-1.41,5.7,2.84,6.83,1.82.48,1,2.07,0,3.14-3.88-4.69-10.95,5.5-14.19-3.07-.57-1.52-2.63-2.48-4-3.69-.34.61-1.08,1.67-1,1.78,3.95,3.54,7.77,6.83,2.86,12.64-1.09,1.29.32,3.64,2.92,3.55,2.25-5.6,6.14-2.52,9.59-1.83,5.19-.43,3.19-7.43,8.4-8.94V383c1.57.74.56,3.53,2.9,3.67l5.55-.46c-1.63-3,1.15-3.52,2.13-2.4,2.46,2.8,4.4.86,7.39-1-1.67,5.11-4.81,8.5-3.62,12.93,2,3.59,4.45-.47,6.62.35,2.08-3.91,1.58-8.74,4.77-12.88a17.21,17.21,0,0,1,4.22,14.14c-.43,3.3-4.74,1.06-7.37.82-.32,1.13-1.78,2.6-2.6,3.88h402l4.41.53,3.15-2.29,3.72.29,3.72-1.43,2-3.43,11.45-5.72,8.87-3.43,2.58-3.15,6.58-3.15,4-6.58,2.29-2.86,1.32-7.12c8.12-.17,11.7-3.07,8.56-10.58,11.33,1.2,13.85-2.75,10.32-14.81-1.19-1-4.26.08-3.5-2.87.43-1.66,1.62-4,3.57-3.33s.91,3.2,1.25,4.91c1.77-.25,3.52.47,2.45-3.09-2-6.62,4.49-14.25,11.29-14.33-2.52-5.9,1.9-15.48,7.55-16.21,2.61-.34,6.81.28,6.54-3-.43-5.14,3.39-11.81-1.4-15.07-3.64-2.48-3.25-5.33-4.23-8.13-.86-2.47.15-4.7,2.3-6.42,1.86-1.49,2.92-.3,4,.88,2.12,2.24,2.6,4.68.46,7.17-.66.77-1.89,1.18-.94,2.51,5-2.72,6.66-5.73,4.5-9.56-1.63-2.9-3.45-6.59-8-5.17s-6.51,4.58-5.54,9.32c.38,1.83,1.13,3.59,1.45,5.43.54,3.11,0,5.95-2.88,7.85a1.83,1.83,0,0,1-2.78-.48,6.54,6.54,0,0,1,0-7.63c2.14-2.89,2-5.93,2.37-9.15.88-8.08-7.32-10.22-10.36-15.69,3.2-2.81,5.83.41,8.71.11,3.6-.37,7.74-1.55,7.39-4.68-.49-4.42,6.66-9.49-.84-13.25l-.15.2c1,4.46-.16,8.7-2.22,12.45-1.58,2.87-4.41,5.44-7.86,2.16s-7.15-4.37-11.7-2.24c-2.27,1.07-4.14-.25-5.61-2.06-1.07-1.32-2-2.51-.15-4.06,5.83-5,1.75-8.9-1.58-12.83-4.78-3.73,2.09-10.38-3.65-14.1l8-.62c.51-8.79-5.57-6.25-10.32-6-.76.71-2,1.43-2.53.54-.79-1.22.86-1.24,1.51-1.73,5.85-9.17,5.4-11.71-2.38-19.32-3.29-3.23-7.44-4.36-11.48-5.55-2.85-.84-4.87-.58-3.39-4.77s-.17-7.52-5.6-7.79c1.22,3,6.47,5,2.63,8.26-3.22,2.74-4.45-1.35-6.41-3.46a6.52,6.52,0,0,0-9.07-.87c7.13-1.12,7.94,7.23,13.63,8.73,1.79.47-1,4.07-1.74,6.18-.52,1.45-1.44,3-3.61,1.81-2.5-1.33-7.23-2.46-7.25-3.75-.12-5.92-4.31-9.78-6-14.77-.53-1.55,1.64-1.8,2.56-2.6,5.28-4.64,9.4-9.58,11.33-16.89l-5.39,4.65c.06,2.44-2.51,2.77-4.37,2.15-6.41-2.16-12.77-.39-19.18-.33-30.22.3-60.45.11-90.67-.13-3.93,0-6.51.37-8.1,4.56-2.07,5.44-8.87,5.69-10.25,2.5-3.84-8.89-10.9-6-17.07-6.92l-7.34.16c-6.48.07-13.64-1.66-19.32.51-25.93,9.92-54.11,11.92-79.38,24.85-16.21,8.3-31.21,18.4-47.16,27-16.32,8.79-31.61,19.55-48.12,28-20.54,10.45-42.08,18.49-65.44,20.74-10.61,1-20.76,6-31.7,4.5-4.91-.68-10.93-.57-11.52-7.91l-.09-.1c-5.47,3.26-2.89,7.44-.65,10.79,2.81,4.2.73,6.66-2.7,5.84-4.44-1.07-6.07,2.24-9,3.38-.39.74-.41,2.41-1.6,1.63-1-.66-.06-1.69.88-2.2-1.7-2.16-3.36-1.61-4.19.53a3,3,0,0,0,2.71,4.05c6,.4,5.47,3.34,2.38,6.37-3.62,3.55-2.47,5.52,1.49,6.77,2,.63,2.42,1.74,2.53,3.43l.12.1c2-1.43,1.38-3.13.62-5s-1.71-4.1,1.17-4.32c2.15-.16,4.71,2.27,4.14,4-.79,2.41-1.54,4.46-1,6.52,1.75-.92,3.09-3,4.09-6.51,2.23,6,.79,11.08-.15,14.88,4.45,3.1,7,7.36,6.61,15-.33,6.44,4.81,13.39,4,20.9-.23,2.09.52,4.56-1.48,6-1.53,1.1-2.4,3.24-4.68,3.25.9-4.59-9.09-.22-5.7-6.94.63-1.24.56-3-.87-3.5-6.88-2.21-2.25-5.78-1-8.65,2.53-5.75,4.19-11.5,2-17.7-.65-1.82-1.83-1.56-2.95-.29l.09.17c3.42,3.3,0,4.09-2,4.83-5.42,2-5.52,1.88-2.47,6.86a1.48,1.48,0,0,1-.27,2.06c-2.55,2.69-.69,4.31.79,6.82,2.62,4.45-2.82,14.18-7.28,13.28-3-.6-4.75.05-7.22,1.31-5.51,2.81-8.92-2.63-11.26-5.34-2.72-3.15,4.51-.73,4.51-4.66A24.55,24.55,0,0,1,481,339.4c-6.19-5-9.12-12.61-14.17-17.58-4.72-4.65-8.52-10.3-13.5-14.84-5.95-5.43-15.64-7.47-16.87-18.46-.47-4.23-4.5-8.18-4.77-13.94-.18-3.72.27-12.37-3.91-12.21-8.78.34-8.45-4.92-9.68-10.2-.43-1.85-1.83-2.58-3.76-1.61C413.14,252.26,415.33,252.71,415.53,253.72ZM506.63,374a4.53,4.53,0,0,1-1,0l.32-1.24a4.15,4.15,0,0,1,.82.66A.69.69,0,0,1,506.63,374Zm521.76-64.44c.15,4.31,2.32,9.29-1.4,11.38-3.57,2-4.09-4.17-7.18-6.1C1023.21,314.21,1024.82,311,1028.4,309.54Zm-16.31,29.1c-.15,0-.29-.26-.43-.4l.48-.38.43.43C1012.4,338.41,1012.24,338.65,1012.09,338.64ZM1003.77,309c.2-2.81,1.25-4.37,4.73-4.37,1.78.44,4,.24,4.54,3.89.57,3.82-2.19,4.6-3.9,6.48C1007.6,312.8,1003.49,313,1003.77,309Zm-31.63,13.87c-.25-2.15-2.17-6.29,3.07-5.91,5.66.4,1.15,5.11,3.47,6.8-1.74,2.58,1.84,7.6-3.86,7C969.41,330.25,972.45,325.61,972.14,322.88Zm-14-20.75c.19-2.87,2-3.93,4.44-3.76,3.2.06,4.28,1.76,4.25,4.46s-1.52,4.16-4.3,4.18C959.16,307,957.89,305.18,958.09,302.13Zm-73-21.16c1.08-2.41-1.92-6.7,3.31-6.5,5.64.22,2.63,4.77,2.8,7.18s2.42,7.23-3.28,6.65C882.54,287.75,886.7,283.13,885.06,281Zm-77.94-67.71c3.51-.3,5,1.15,5.34,4.82.32,4.08-2.69,5.13-5.09,5.16-4.7.06-3.1-4.37-3.84-7C802.56,212.66,805.29,213.48,807.12,213.27Z"/>
  <g class="cls-4">
    <path id="path3223" class="cls-2" d="M249.4,437.33l-1.16,5.84-1.84-2.94Z"/>
    <path id="path3221" class="cls-2" d="M282.9,411.55l4.63,3.41-6.09,4.88-3.44-2Z"/>
    <path id="path122" class="cls-2" d="M209.35,979.65l-8.07,2.13-.43-14.23,17.52-14.18,4.7,11.31-13.72,15"/>
    <path id="path124" class="cls-2" d="M181.7,940.15l-.77,7.5-3.19-5.23,1.36-4.54,2.6,2.27"/>
    <g>
      <polygon class="cls-2" points="1.25 902.77 -17.25 896.77 -24.93 888.17 -24.93 933.87 24.93 888.27 10.09 901.52 1.25 902.77"/>
      <polygon class="cls-2" points="11.75 830.14 20.15 802.21 13.25 776.64 -24.22 714.27 -24.93 713.65 -24.93 869.34 -7.63 846.43 -7.69 841.39 3.09 840.61 11.75 830.14"/>
    </g>
    <g>
      <path class="cls-2" d="M623.57,860.57c8.66-7,8.66-7,5.51-13.47C628.42,852.44,622.76,855.06,623.57,860.57Z"/>
      <path class="cls-2" d="M707.4,984l4.74-12.6C704.29,973.29,708.33,979.59,707.4,984Z"/>
      <path class="cls-2" d="M623,461.39a2.35,2.35,0,0,0-2.44,2.34c-.1,1,.09,2.59,1.4.87,1.14-1.49,2.18,2.13,2.75-.13A2.57,2.57,0,0,0,623,461.39Z"/>
      <path class="cls-2" d="M621.18,863.79c.09.34.82.84,1,.75,1.84-.76.86-2.54,1.27-3.83C622,861.17,620.65,861.81,621.18,863.79Z"/>
      <path class="cls-2" d="M609.82,912.85c3.72-2.17,5.24-5.63,6.52-10.44C612.32,905.64,609.93,908.6,609.82,912.85Z"/>
      <path class="cls-2" d="M624.21,842.31a6.94,6.94,0,0,0,1.34,1.39c.2-.39.67-.9.56-1.14a11,11,0,0,0-1.4-1.9C624.43,841.49,624.06,842,624.21,842.31Z"/>
      <path class="cls-2" d="M615.63,916.56c6.42-8.92,13.17-17.47,22.6-23.55,1.25-.81,1.68-3.19,2.08-4.94s1.28-4-1.18-4.62c-1.6-.4-2.43,1.46-3.15,2.88-2,3.9-3.42,8.13-7.63,10.5C619.52,901.79,616,911,611,919A5.06,5.06,0,0,0,615.63,916.56Z"/>
      <path class="cls-2" d="M707.26,984.46c-3,2.57-3.41,6-3.2,9.62C708.87,992.14,706.84,987.89,707.26,984.46Z"/>
      <path class="cls-2" d="M710.27,963l4.54-6.17C710.36,958,710.27,960.46,710.27,963Z"/>
      <path class="cls-2" d="M712.85,967.77l-.66,3.61a2.43,2.43,0,0,0,1.29-3.17C713.43,968,713.07,967.91,712.85,967.77Z"/>
      <path class="cls-2" d="M599.47,988.08c1.6-.83,1.91-2.21,2.16-3.62C600.67,985.41,598.95,985.86,599.47,988.08Z"/>
      <path class="cls-2" d="M603.33,967.85c.06-.82-1.43-3.78,1.41-2.59,1.35.56,4.89,1,3.3,4.52-2.2,4.83-4.24,9.73-6.34,14.61,5.1-1,6.56-5.31,7.5-9.4,3-13,.74-26.72,6.34-39.9-3.35.79-2,4-5.06,4.44.62-3.9.06-6.76-3.87-2.13l-.29-.31c2.29-7.88.18-16.38,3.42-24.13-4.38,1.31-4.35,5-4.32,8.49,0,5.23-.3,10.86-3,14.88-4.47,6.55-4.67,13.72-3.17,20.18,2.39,10.31,0,17.54-8.77,23C596.87,978,602.72,976,603.33,967.85Z"/>
      <path class="cls-2" d="M608.09,922.19a1.06,1.06,0,0,0,1.65.94c1.59-1,1.26-2.62,1.19-4.15C609.5,919.62,608,920.28,608.09,922.19Z"/>
      <path class="cls-2" d="M497.32,1033.59c-9.83,3.91-18.72,10.36-27.62,16.32-3.67,2.45-7,5.13-11.55,5-4.89-.09-6.85,4.58-10.65,6.31-7.66,3.48-15.8,5-24,6.39-2.38.42-5.49-.64-7.3,1.13l21.82-2.32,32.63-14.22,32.52-20.56A61.25,61.25,0,0,0,497.32,1033.59Z"/>
      <path class="cls-2" d="M418.7,855.38c2.45-1.86,0-5.71,4.36-6.1,3.28-.3,1.68-3.84,1.59-5.86s-2.3-1.63-3.72-1.53c-3.47.23-2,3-2.17,4.78C418.52,849.24,418.7,851.86,418.7,855.38Z"/>
      <path class="cls-2" d="M534.19,469.78a9.22,9.22,0,0,0-1-2c-.33.3-.81.56-.79.76.08.69.14,1.59.58,2S534.44,470.91,534.19,469.78Z"/>
      <path class="cls-2" d="M346.22,984.91a114.07,114.07,0,0,0-.61-15.7Z"/>
      <path class="cls-2" d="M638.08,879.91c0,.12.26.33.41.5l.55-1.09-.44-.51A6.49,6.49,0,0,0,638.08,879.91Z"/>
      <path class="cls-2" d="M356.93,1070.66a32.82,32.82,0,0,0,17.55,0Z"/>
      <path class="cls-2" d="M335.93,1030.15c1-3,1.89-6,3-8.92A113.54,113.54,0,0,0,345,998.12Z"/>
      <path class="cls-2" d="M650.21,1027.65c-1.37,1.36-4.8,2.71-5.87,2-9.74-6.58-23.51-.31-32.42-11.2-3.12-3.81-9.74-6.23-14.86-9.1-8.1-4.54-9.19-8.72-3.74-15.89,2.62-3.44-1.52-9.55,5.53-11.16-3.47-.4-6.59,0-8.56-2.72-7.31,3.38-16.83,3.44-20.68,13.6,4-.1,4.7-3.15,6.28-5.08l.29-1.2.53.4a3.66,3.66,0,0,1,.38-.26c1.28-.74,2.48-1.32,3.63-.33s.08,2.37-.57,2.68l-.4.21,4.3,3.24,6.25,14.72,29.28,17.88,25,6.22,23.25-9.89C661.1,1022.72,655.1,1022.81,650.21,1027.65Z"/>
      <path class="cls-2" d="M604.43,478.12c-2.61,3.67-6.82,2.41-10.1,3,3.11,3.62,8.73-.93,11.65,3.76-1.3,2.7-2.06,5.5.89,7.5a4.2,4.2,0,0,0,5.68-.57c2.64-3,.93-5.66-1.26-8.08-2-3,6.33-3,2-6.74C609.93,474.08,607,474.52,604.43,478.12Z"/>
      <path class="cls-2" d="M645,539.36a31.1,31.1,0,0,1,1,8.51c-.12,3,1.2,4.84,5.26,5a50.86,50.86,0,0,1-2.21-5.3c-4.34-15.26-4.32-15.27,4.44-19.42l1.11-1.61-.87-.49-.37,2C642.64,528.88,642.54,528.91,645,539.36Z"/>
      <path class="cls-2" d="M662.23,703.61c-4.46-.53-7.53,1.16-8.69,5.68,3.6-.19,6.24-4.75,10-2.94,7.36,3.56,7.55-1.27,8-6.39C669.12,703.22,665.94,704.06,662.23,703.61Z"/>
      <path class="cls-2" d="M655,521.58c.45-4,0-8,1.26-13.18C648.54,513.65,655.18,517.53,655,521.58Z"/>
      <path class="cls-2" d="M611.22,470.11a4,4,0,0,0-.72.61l.63.2.58-.38C611.54,470.39,611.29,470.07,611.22,470.11Z"/>
      <path class="cls-2" d="M634.06,790.38c-3.68,3-8.28,6-6.56,13.5,2.82-6.91,7.45-10.47,11.37-14.61,2.47-2.6,3-5.25-.6-6.92-6.07-2.79-5.51-6.45-2.3-11.08,11-16,13.59-34.21,13.91-53,0-1.42,1.27-3.77-2-4.39-1.32,21-2.9,41.87-16.88,59.24-2.49,3.09-2.24,6.87,2.54,8.67C640,784.24,638.41,786.84,634.06,790.38Z"/>
      <path class="cls-2" d="M621.68,829.56c-.84,3.19-1.35,5.33.74,9C623.21,834.5,623.49,832.39,621.68,829.56Z"/>
      <path class="cls-2" d="M959.81,627.68v15.15l.73,0V627.43Z"/>
      <path class="cls-2" d="M945,413.06a22.74,22.74,0,0,0-14.33,5.08C937.08,417.26,942.2,418.5,945,413.06Z"/>
      <path class="cls-2" d="M922.37,672.54c-6.2.69-9.12,5.43-11.35,10.37-1.57,3.47.22,5.67,3.66,7.68l.69.43-3.09-6.79,6-10.09,11.8.85C928.49,671.88,925.4,672.2,922.37,672.54Z"/>
      <path class="cls-2" d="M966.78,302.83c0-2.71-1.05-4.4-4.25-4.46-2.46-.17-4.25.89-4.44,3.76-.2,3,1.07,4.9,4.38,4.88C965.26,307,966.75,305.68,966.78,302.83Z"/>
      <path class="cls-2" d="M973,396.76c.45-.18,1.06-.24,1.24-.55s-.14-.83-.24-1.25l-1.61.65Z"/>
      <path class="cls-2" d="M505.62,374a4.53,4.53,0,0,0,1,0,.69.69,0,0,0,.13-.6,4.15,4.15,0,0,0-.82-.66Z"/>
      <path class="cls-2" d="M974.82,330.79c5.7.57,2.12-4.44,3.86-7-2.32-1.69,2.19-6.4-3.47-6.8-5.24-.37-3.32,3.77-3.07,5.91C972.45,325.61,969.41,330.25,974.82,330.79Z"/>
      <path class="cls-2" d="M1013,308.53c-.55-3.66-2.75-3.45-4.54-3.89-3.47,0-4.53,1.56-4.73,4.37-.28,4,3.83,3.79,5.36,6C1010.84,313.14,1013.61,312.36,1013,308.53Z"/>
      <path class="cls-2" d="M510.83,306.57l-.22.2a34.42,34.42,0,0,1,5.71,3.11c.95-3.8,2.38-8.86.15-14.88-1,3.53-2.35,5.59-4.09,6.51a7,7,0,0,0,2,3.16C515.19,305.45,512.47,306.57,510.83,306.57Z"/>
      <path class="cls-2" d="M710.11,963.28l-2,1.9,1,.56Z"/>
      <path class="cls-2" d="M1027,320.92c3.72-2.09,1.55-7.07,1.4-11.38-3.57,1.46-5.19,4.67-8.58,5.28C1022.91,316.75,1023.43,322.92,1027,320.92Z"/>
      <path class="cls-2" d="M807.36,223.24c2.41,0,5.41-1.08,5.09-5.16-.29-3.67-1.83-5.12-5.34-4.82-1.83.21-4.57-.61-3.6,2.93C804.26,218.87,802.66,223.3,807.36,223.24Z"/>
      <path class="cls-2" d="M704,994.21c-1.44.59-1.45,1.89-1.54,3.15C703.82,996.73,704,995.5,704,994.21Z"/>
      <path class="cls-2" d="M724.85,907.91v21.93h.82V908.16Z"/>
      <path class="cls-2" d="M687.74,1005.63l-3.1,3.11C686.56,1008.58,687.71,1007.65,687.74,1005.63Z"/>
      <path class="cls-2" d="M687.84,1005.48c4.17-.33,7.42-3.65,11.91-3.34,3.07.21,2.4-2.67,2.62-4.63C698.35,1001.66,690.38,998.67,687.84,1005.48Z"/>
      <path class="cls-2" d="M691.66,679.73c-3.18,0-4.83,1.56-4.78,4.63.05,2.76,1.71,4.1,4.48,4.07s4.23-1.42,4.32-4.62C695.54,681.63,694.68,679.77,691.66,679.73Z"/>
      <path class="cls-2" d="M726.68,934.18a1.88,1.88,0,0,0,0,2.55l.86-1Z"/>
      <path class="cls-2" d="M945.26,412.93c10-1.54,17.06-8.22,24.68-13.95C961.11,402.58,951.82,405.37,945.26,412.93Z"/>
      <path class="cls-2" d="M1012.09,338.64c.15,0,.32-.23.47-.36l-.43-.43-.48.38C1011.8,338.38,1011.94,338.63,1012.09,338.64Z"/>
      <path class="cls-2" d="M887.9,288.3c5.7.59,3.46-4.3,3.28-6.65s2.84-7-2.8-7.18c-5.24-.2-2.23,4.09-3.31,6.5C886.7,283.13,882.54,287.75,887.9,288.3Z"/>
      <path class="cls-2" d="M749.94,715.14c5.13-2.35,12.27,0,15.57-6.86-6.37-1.33-10.29,6.82-16.67,3.08-.46-.27-1.08.87-.74,1.78S748.89,715.62,749.94,715.14Z"/>
      <path class="cls-2" d="M741.43,834.31l-.21.51.66.22Z"/>
      <path class="cls-2" d="M742.37,830.92a1.56,1.56,0,0,0-.48-.16l.66.57C742.49,831.19,742.47,831,742.37,830.92Z"/>
    </g>
    <path class="cls-5" d="M741.79,830.67l.75.66c-.06-.14-.07-.35-.18-.42a2.44,2.44,0,0,0-.63-.19l-.6-.42ZM710.2,963.06l4.61-6.27c-4.54,1.24-4.55,3.78-4.54,6.34l-2.14,2.06,1,.56ZM623.52,860.61c8.72-7,8.72-7,5.56-13.51-.67,5.38-6.4,8-5.5,13.57-1.54.47-2.94,1.1-2.4,3.11.09.34.82.84,1,.75C624.1,863.75,623,861.92,623.52,860.61Zm30-151.31c3.63-.14,6.28-4.76,10-2.95,7.36,3.56,7.55-1.27,8-6.39-2.4,3.25-5.58,4.09-9.3,3.64-4.48-.54-7.55,1.17-8.7,5.74l-.43.61ZM611.29,483.76c-2-3,6.33-3,2-6.74-3.39-3-6.32-2.51-8.89,1.1s-6.82,2.41-10.1,3c3.11,3.62,8.73-.93,11.65,3.76-1.3,2.7-2.06,5.5.89,7.5a4.2,4.2,0,0,0,5.68-.57C615.19,488.81,613.48,486.19,611.29,483.76ZM945.06,413c10.1-1.48,17.21-8.22,24.88-14-8.88,3.62-18.22,6.41-24.79,14.07a22.8,22.8,0,0,0-14.47,5.09C937.12,417.25,942.27,418.52,945.06,413ZM653.42,528c-10.78.88-10.89.9-8.41,11.35a31.09,31.09,0,0,1,1,8.51c-.12,3,1.2,4.84,5.26,5a50.84,50.84,0,0,1-2.21-5.3c-4.34-15.26-4.32-15.27,4.44-19.42l1.11-1.61-.87-.49ZM610.94,919a5.06,5.06,0,0,0,4.69-2.4c6.42-8.92,13.17-17.47,22.6-23.55,1.25-.81,1.68-3.19,2.08-4.94s1.28-4-1.18-4.62c-1.6-.4-2.43,1.46-3.15,2.88-2,3.9-3.42,8.13-7.63,10.5-8.83,5-12.34,14.17-17.39,22.14-1.44.64-2.94,1.3-2.86,3.21a1.06,1.06,0,0,0,1.65.94C611.34,922.16,611,920.49,610.94,919ZM627.5,803.88c2.82-6.91,7.45-10.47,11.37-14.61,2.47-2.6,3-5.25-.6-6.92-6.07-2.79-5.51-6.45-2.3-11.08,11-16,13.59-34.21,13.91-53,0-1.42,1.27-3.77-2-4.39-1.32,21-2.9,41.87-16.88,59.24-2.49,3.09-2.24,6.87,2.54,8.67,6.45,2.43,4.89,5,.54,8.57C630.38,793.37,625.78,796.38,627.5,803.88ZM505.24,300.78c2.8,6.64,11.46,9,10.55,13.79-.86-3.66,4-10.56.69-19.57C514.4,302.33,510.83,303.41,505.24,300.78Zm301.89-87.51c-1.83.21-4.57-.61-3.6,2.93.73,2.68-.87,7.1,3.84,7,2.41,0,5.41-1.08,5.09-5.16C812.17,214.42,810.63,213,807.12,213.27Zm201.37,91.37c-3.47,0-4.53,1.56-4.73,4.37-.28,4,3.83,3.79,5.37,6,1.71-1.88,4.47-2.65,3.9-6.48C1012.49,304.88,1010.28,305.09,1008.5,304.64Zm-29.81,19.13c-2.32-1.69,2.19-6.4-3.47-6.8-5.24-.37-3.32,3.77-3.07,5.91.31,2.73-2.73,7.37,2.69,7.91C980.52,331.37,976.95,326.35,978.68,323.77ZM885.06,281c1.63,2.16-2.52,6.78,2.83,7.33,5.7.59,3.46-4.3,3.28-6.65s2.84-7-2.8-7.18C883.14,274.27,886.14,278.57,885.06,281Zm77.47,17.4c-2.46-.17-4.25.89-4.44,3.76-.2,3,1.07,4.9,4.38,4.88,2.79,0,4.27-1.34,4.3-4.18S965.73,298.43,962.53,298.37ZM695.69,683.81c-.15-2.17-1-4-4-4.08-3.18,0-4.83,1.56-4.78,4.63.05,2.76,1.71,4.1,4.48,4.07S695.59,687,695.69,683.81Zm324.13-369c3.09,1.93,3.61,8.11,7.18,6.1,3.72-2.09,1.55-7.07,1.4-11.38C1024.82,311,1023.21,314.21,1019.81,314.81ZM765.52,708.28c-6.37-1.33-10.29,6.82-16.67,3.08-.46-.27-1.08.87-.74,1.78s.78,2.49,1.83,2C755.07,712.79,762.22,715.13,765.52,708.28ZM418.7,855.38c2.45-1.86,0-5.71,4.36-6.1,3.28-.3,1.68-3.84,1.59-5.86s-2.3-1.63-3.72-1.53c-3.47.23-2,3-2.17,4.78C418.52,849.24,418.7,851.86,418.7,855.38Zm237.57-347c-8,5.44-.57,9.42-1.3,13.63C655.5,517.92,655,513.82,656.27,508.4Zm69.4,399.76-.82-.25v21.93h.82Zm-368.74,162.5a32.82,32.82,0,0,0,17.55,0Zm264.75-241.1c-.84,3.19-1.35,5.33.74,9C623.21,834.5,623.49,832.39,621.68,829.56ZM960.54,627.43l-.73.25v15.15l.73,0ZM623,461.39a2.35,2.35,0,0,0-2.44,2.34c-.1,1,.09,2.59,1.4.87,1.14-1.49,2.18,2.13,2.75-.13A2.57,2.57,0,0,0,623,461.39Zm1.7,379.26c-.27.83-.65,1.38-.5,1.65a6.94,6.94,0,0,0,1.34,1.39c.2-.39.67-.9.56-1.14A11,11,0,0,0,624.71,840.66ZM533.19,467.8c-.33.3-.81.56-.79.76.08.69.14,1.59.58,2s1.46.36,1.21-.77A9.22,9.22,0,0,0,533.19,467.8Zm439.8-71c.45-.18,1.06-.24,1.24-.55s-.14-.83-.24-1.25l-1.61.65ZM727.53,935.69l-.86-1.52a1.88,1.88,0,0,0,0,2.55Zm-221.59-563-.32,1.24a4.53,4.53,0,0,0,1,0,.69.69,0,0,0,.13-.6A4.15,4.15,0,0,0,505.95,372.72Zm235.28,462.1.66.22-.45-.72ZM611.13,470.92l.58-.38c-.17-.15-.43-.47-.49-.43a4,4,0,0,0-.72.61ZM639,879.32l-.44-.51a6.48,6.48,0,0,0-.52,1.1c0,.12.26.33.41.5Zm373.09-541.47-.48.38c.14.14.28.4.43.4s.32-.23.47-.36Z"/>
    <polygon class="cls-6" points="835.78 177.48 815.29 177.48 815.29 156.98 825.53 146.29 835.78 156.98 835.78 177.48"/>
  </g>
  <text class="cls-7" transform="translate(583.51 330.76)">M<tspan class="cls-8" x="23.27" y="0">AW</tspan><tspan x="63.25" y="0">AS SCHUTZGEBIET</tspan></text>
  <text class="cls-7" transform="translate(843 135.77)">TIM<tspan class="cls-9" x="46.1" y="0">P</tspan><tspan x="61.18" y="0">AH</tspan></text>
</svg>
