<svg id="Layer_1" data-name="Layer 1" xmlns="http://www.w3.org/2000/svg" viewBox="0 0 1638 1641.55">
  <defs>
    <style>
      .cls-1 {
        fill: #a9d381;
      }

      .cls-2, .cls-3 {
        fill: #f6d3aa;
        stroke: #a08171;
      }

      .cls-2, .cls-3, .cls-6 {
        stroke-linecap: square;
        stroke-linejoin: bevel;
      }

      .cls-2 {
        stroke-width: 8.1px;
      }

      .cls-3, .cls-5, .cls-6, .cls-8, .cls-9 {
        stroke-width: 0.99px;
      }

      .cls-4 {
        fill: #e7d78f;
      }

      .cls-5 {
        fill: #e0e1e0;
      }

      .cls-5, .cls-6, .cls-7, .cls-8, .cls-9 {
        stroke: #1079ab;
      }

      .cls-10, .cls-11, .cls-5, .cls-7, .cls-8, .cls-9 {
        stroke-linejoin: round;
      }

      .cls-6, .cls-7 {
        fill: #fdfcea;
      }

      .cls-7 {
        stroke-width: 1.58px;
      }

      .cls-8 {
        fill: #c7eafb;
      }

      .cls-10, .cls-11, .cls-9 {
        fill: none;
      }

      .cls-10, .cls-11 {
        stroke: #656565;
      }

      .cls-10 {
        stroke-width: 3.12px;
      }

      .cls-11 {
        stroke-width: 1.13px;
      }

      .cls-12, .cls-13 {
        font-size: 28px;
        fill: #3a3436;
      }

      .cls-12 {
        font-family: SFUIDisplay-Regular, SF UI Display;
      }

      .cls-13 {
        font-family: SFUIDisplay-Bold, SF UI Display;
        font-weight: 700;
      }

      .cls-14 {
        letter-spacing: -0.01em;
      }

      .cls-15 {
        letter-spacing: -0.01em;
      }

      .cls-16 {
        letter-spacing: -0.02em;
      }

      .cls-17 {
        fill: #f8be1a;
      }

      .cls-17, .cls-30 {
        stroke: #000;
        stroke-miterlimit: 10;
      }

      .cls-18 {
        letter-spacing: -0.1em;
      }

      .cls-19 {
        letter-spacing: -0.02em;
      }

      .cls-20 {
        letter-spacing: -0.06em;
      }

      .cls-21 {
        letter-spacing: -0.24em;
      }

      .cls-22 {
        font-size: 40px;
        fill: #5f4f55;
        font-family: SFUIDisplay-Light, SF UI Display;
      }

      .cls-23 {
        letter-spacing: 0em;
      }

      .cls-24 {
        letter-spacing: 0.17em;
      }

      .cls-25 {
        letter-spacing: -0.1em;
      }

      .cls-26 {
        letter-spacing: -0.05em;
      }

      .cls-27 {
        letter-spacing: -0.04em;
      }

      .cls-28 {
        letter-spacing: -0.07em;
      }

      .cls-29 {
        fill: #56a145;
      }

      .cls-30 {
        fill: #f04e27;
      }
    </style>
  </defs>
  <title>east_kalimantan-clean</title>
  <g>
    <g>
      <path id="path114" class="cls-1" d="M1371,440.51c-.48,2.53,3,3-.86,5.68-3.65-4.27.42-3.37.86-5.68"/>
      <path id="path116" class="cls-1" d="M1377.5,421.09a79.92,79.92,0,0,1,3.85,7.34l2.62-2.28-1,2.34,3.39.1-3.63,1.61c3.87,5,8.3,8.09,12.51,14.3-10,4.45-24.9-9.38-13.9-13.31-2.43-2.65-1.76-1.86-4.95-2.29-.81-3.49-1.77-4.91,1.12-7.81"/>
      <path id="path120" class="cls-1" d="M1187.2,207.91c6,5,10.38,8.66,17.22,11.49,7.92,3.28,17.42,1.5,22.74,9.08l-14,6.73c-.27-5.51-2.7-9.14-7.38-11.44-9.95-4.89-4.61,3.9-14,4.43-9.71.55-15.48-16.61-4.64-20.3"/>
      <path id="path122" class="cls-1" d="M1262.43,166.4h0"/>
      <path id="path196" class="cls-1" d="M1245.27,587.92l2.26,4.18c-3.78-1.51-1.88-2.82-2.26-4.18"/>
      <path id="path198" class="cls-1" d="M1209.55,529.32c2.84,2.17,5.33,5.22,7.88,7.72-6.67.54-6-2.56-7.88-7.72"/>
      <path id="path200" class="cls-1" d="M1395.4,441.24l3.34,1.34c-3.38,2.69-1.9.06-3.34-1.34"/>
      <path id="path232" class="cls-2" d="M923,1193.92c-1.84-.74-4.58.41-2.31-2l-2.1,1.07.46-3.47,3.94,4.44"/>
      <path id="path234" class="cls-2" d="M961.38,1158.09c-2.21-.82-2.37,1.45-2.31-2.52l2.31,2.52"/>
      <path id="path236" class="cls-2" d="M949,1148.43c-.9-.72-2.75,1.18-2.76-2.84l6.13-1.53.41,3.35c-2.59-3.31-1.83-.16-3.79,1"/>
      <path id="path274" class="cls-3" d="M873.17,802.22l-4.65-5.81c4.57.95,3,2.91,4.65,5.81"/>
      <path id="path280" class="cls-3" d="M895.05,755.36l-3.91,2.54c-2.46-6.21.86-3.87-6.14-6,9.36-7.7,11,.63,10.05,3.47"/>
      <path class="cls-4" d="M1267.9,178.72l-3.26.82c2.9-5.58,2-5.71.27-10.86l-2.5,3.39c-.86-4.32-1.68-11.1-4.81-14.26-4.14-4.18-7.59-2.61-6.53-2,1.88,1.1-2.5,3.75-3.81,2.82-2.34-1.67-1.43-3.76-3.74-6.68a92,92,0,0,0-5-9.73c-.63-.92,1.77-4.64,1-5.4-1.31-1.3-5.06-.19-6.35-1.51-3.09-3.19-7.27-6.07-10.53-9.47-8.54-8.91-15.54-18.93-24.34-27.66-8.26-8.2-18.47-15.2-20.89-27.39-1.86-9.37,3.59-19.39-3.2-26.58,1.78,1.88-12.24-4.16-10-3.34-5-1.82-8.67-4.12-14.07-5.7-15.51-4.54-21.18-2.58-31.84-14.86,8.59,1.1,15.8,7.08,21.81-4.88-2.15-.27-8.21.58-9.84-.29-2.78-1.49-6.58-1.16-9.5-2.39-1.1-.47-1.39-6.15-2.1-6.48-2.53-1.21-5.33-2.59-8.13-3.88H.58V472.55c3.65-.93,8.91-4.12,12.5-8-1.24,1.64-2.63,3.3-3.87,5C4.53,475.76,2.26,473,.36,483-3.86,505.15-.69,531.37-1,553.83c-.12,7.86-.93,103.71.59,126.39-.27,3.19.47,8,.47,10.28v25.16q0,32.29,0,64.58,0,122.49-.12,245-.13,237.61-.23,475.21,0,46.66,0,93.32c0,10.43-3.64,34.24.73,44.26H759.81c1-11.5,8.76-21.09,15-30.56-7.3,4.52-14-4-17-8.6-2.84,3.35-6.86,5.81-9.52,9.3a18.78,18.78,0,0,0-4-13.73c6.65,1.21,9.13-3.73,14.22-4.32,3.22-.37,7.26,3.16,10.35,2.31,2.31-.64,3.87-5.08,6-5.48,15.9-3,17.52,1.11,19.11,18.13,14.2-1.1,10.71-8.43,12.69-16.51,1.43-5.83,10.84-24,8.44-28.7-4.72-9.26-46.48-16.85-57.09-17.56-10.42-.7-22.9,3.88-32.95,1.41-7-1.71-12.26-6.5-19.53-7.88-13.57-2.59-28.69,1.83-42.16-1.21-8.45-1.9-13.3-5.79-20.85-11.26.9,7.67-13.85,16.87-20.07,13.45.32,8.14-8.61,20.22-16.47,14.93-6.85-4.61-7.51-21.74-1-25.79-7.77-2.11-11.71-16.27-12.86-22.39-1.58-8.33-2.81-20.37-.29-30,2.09-8,11.5-12.31,3.55-18.82-8.87-7.28-19.31,4.21-28.46-6.73,7.93-5.41,7.89-12.58-1.89-14.4,6.93-14.44,8-23.67,7.81-38.66,0-4.85,1.38-12.18.08-17.87-1.59-6.93-8.42-10.73-7.58-18.54-11.27.93-7.08-8.26-8.56-14.14-1.37-5.44,2.27-4.82.17-9.91-2.38-5.76-4.65.52-6.93-3-6.8-10.46-.84-10.78-4.16-20.44-1.37-4-2-15.59-10.51-6.61-5.57-13.81-14.14,6.5-17.88-6.16-1.87-6.34,10.11-17.66,14.38-22.14,3.86-4.06,14.25-17,18.85-18.4,11.06-3.46-1.45,10.9,5.85,16.6,8.2-6.43,12.09-11.1,16.58-20.09,2.65-5.31,4.32-11.67,7.7-17.61l-1.08.68.16-.19c3.47-4.35,2.23-18,5.58-24.17,6.17-11.37,23.59-15,19.14-26.22-6.12-15.38-12.74-2.29-18.59-3.87-8.16-2.21-2.24-4.5-8.31-11.91-2.73-3.33-12.32-7.48-15.56-10.17-4.07-3.36-3.41.56-7.36-4.77-2.82-3.81.1-8.85-1.72-11.7-7.42-11.55-25.58-19.15-34.72-31.06-12.22-15.92-26-10.15-40.73-20.77-11.43-8.26-9.37-26.68-10.31-40-.55-7.76-.3-21.37-3.57-28.31-2.32-4.93-7.25-8.45-10.26-13.32-4.61-7.45-5.2-11.73-11.24-18.42-2.14-2.38-8.9-6.13-9.8-9.18s3.8-4.56,3.24-8.26c-1.38-9.15-4-8.73-6.57-15.82-1.34-3.73-2.92-11.92-2.12-15.63.59-2.72,4.83-6.34,4.78-6,.76-4.48-2.43-12-1.82-16.75.47-3.7,5.26-7.27,6.48-10.83s-.06-10.1,1.36-12.8c2.84-5.4,11.89-8.27,14-14.66,2.24-6.93-4-13.65-3.63-21.6a283.89,283.89,0,0,0-26.66,12c-5,2.51-10.12,2.47-14.54,7.28-2.61,2.83-1.88,9.22-4.46,11.14-3.84,2.86-11.3,1.7-15.67,3.74-4.13,1.93-6.6,6-10.55,8-5.77,2.82-17.13,8-20.36-1.38-12.08,7.75-15.63,5.6-17.72-7.09-1.91-11.6-4.6-20-8-31.87-2.37-8.38.27-19.5-4.52-25.82-2.3-3-6.31-2.66-9.29-3.77.65.24-15.22-4.82-13.28-3-14.21-13.47,5.42-37.28,11.55-46.23,1.8-2.62,30.45-43.08,31.34-24.81,8.13-5.12,22.08-5.24,27.73,3.69,3.46-13.69,29.78-15.88,25.46-35.79-1.64-7.58-16.42-23.16-21.74-31.14-7.89-11.86-13.76-22-17.26-35.9-6.11-24.36-6.32-27.29-27.19-41.65C332.52,627,310.3,634.87,325,644l-1.43,1.83c-6.12-1.46-7-7.3-9.82-8.94-10.58-6.17-1.74-3.42-14.48-2.34-5.15.44-7.95-.68-12.42,1.25-7.68,3.31-7.57,9.33-16.19,7.25l3.23-4.7c-9.28,2.4-23.75,13.3-26.72,24.77.15,0-19.56,2.7-20.28,3.21-5.85,4.13.32,8.28-5,14.3-6.88,7.74-11.57-.82-21.29,3.29-.34.14-3.19,4.22-3.52,4.55l-6,3.75,1.4,7.91c-10.54,10.11-25.27-7.58-41.94-6.87-8.12.35-17.27,4.58-24.82-.15-7.38-4.63-4-12.28-16-14.5,7.49-7.37,8.38-15.52,1.25-24.22-8.44-10.3-18.64-7.55-28.44-3.74-4,1.56-7.11,3.4-11.85,4.47-1.72.39-2.15,3.63-3.92,4s-4.14-3.57-5.85-3.32c-6.72,1-21.44,1-27,7.11-2.11-7.77-10.22-8.08-16.11-5a27,27,0,0,0,2.17-3.1c.85-1.48-2.25-6,.07-9.08,2-2.63,6.87-1.35,8.51-3.53,6.85-9.13,2.43-7.72,5.88-17.39,1.4-3.93,9-12.3,9.58-15.68,1.63-9.1-6.32-9.06-10.48-16.25-8.91-15.41,11.38-18.63,8.54-34.4-1.21-6.75-9.46-5.35-6.78-13.8,2.58-8.16,9.46-1.36,14-5.4,9.68-8.56,4.32-22.12,19.17-23.67,4.49-.47,9.84,2.59,13.16,1.89S86.78,511,90,510.2c2.83-.74,4.18,5.48,8.08,3,15.43-9.91-1.59-25.48,15.53-33.69-5-4-5-20.85-3.43-27.91a19.57,19.57,0,0,1,1.94-5.39c61.69-10.07,113.62,3.62,163.62,40.41,42.42,31.21,80.7,56.61,136,49.78,89.91-11.09,175.1-69.29,246.7-121.2,81.41-59,160.19-121.92,249.15-169.56,110.94-59.42,235.71-91.27,360.92-64.49ZM127.66,437.31c-4.14,2.63-8.3,3.16-12.19,5C118.34,440.12,122.31,438.9,127.66,437.31Zm.74-.48-.3.19c-.34-.41-.71-.82-1.1-1.22,7.65-.5,2-4.39,9.1-8.44a14,14,0,0,1,4-1.42C135.11,428.81,133.46,433.29,128.4,436.83Z"/>
      <path id="path398" class="cls-1" d="M1243.84,632.81c1.71,4.25,3.48,6.15-.63,9.43-5.68-4.6-3.45-5.79.63-9.43"/>
      <path id="path400" class="cls-1" d="M1240.38,577.35c1.81,3.38,3.44,6.3.29,9.55-3-5.21-4.28-9.48-.29-9.55"/>
      <path id="path402" class="cls-1" d="M1239.46,559.94c.69,1.91,3.34,4.1,2.54,8.11-4.22-2.2-2.12-4-2.54-8.11"/>
      <path id="path404" class="cls-1" d="M1223.33,546.77l-3.75-2.4,2.11-1,1.64,3.44"/>
      <path id="path406" class="cls-1" d="M1222.72,540.38c10.9,10.94,6.32,11.85,12.52,23.95-7.64-3.31-14.51-18.4-12.52-23.95"/>
      <path id="path408" class="cls-1" d="M1210.52,536.69l-3.75-5.73c4.36,1.32,2.55,3,3.75,5.73"/>
      <path id="path410" class="cls-1" d="M1216.2,528c.43.12-1.25,2.05-3.35-2.54l3.35,2.54"/>
      <path id="path412" class="cls-1" d="M1487.49,524.6c-2.07-3.67-1.13-2,0,0"/>
      <path id="path414" class="cls-1" d="M1472,519.13h0"/>
      <path id="path416" class="cls-1" d="M1426,403.43h0"/>
      <path id="path420" class="cls-1" d="M1182.85,231.69c2.44.11,30.12,16.55,30.11,16.48.71,5.33-18.24,14-18.42,4.33-8.12.55-16,6.27-24.07,4.31-6.1-1.49-6.72-15.4-14.21-1.81-3-8.22,2.26-6.39-.91-13.86,9.39-3.41,22.47-3.94,27.51-9.44"/>
      <path id="path422" class="cls-1" d="M1177.86,233.73c-3.22.27-5.3,1.37-6.39-4.12,4.28-1.1,3.82,1.41,6.39,4.12"/>
      <path id="path424" class="cls-1" d="M1210.9,240.84c-9.61.52-14.26-4.74-21.18-10.37,4.24-3.42,8.76-9.27,13.64-7.91,8.33,2.33,6,10.66,11.69,15.64l-4.15,2.64"/>
      <path id="path426" class="cls-1" d="M1177.26,211c10.38,3.47,6.85,23.29-6.21,18.13,2.24,6.46-3.61,7.73-10.06,9.4-.43-8.3.35-15.27-5.21-22,7.94-3.33,15.62,2.23,21.49-5.48"/>
      <path id="path428" class="cls-1" d="M1167.58,210l6.57,1.11c-2.77,7.58-13.21,3.88-20.13,3.49a19.76,19.76,0,0,1,13.56-4.6"/>
      <path id="path430" class="cls-1" d="M1204.47,208.51c2.37,2.19,5.15,1.19,5.14,6.7-7.08-3.87-5.23-5.6-5.14-6.7"/>
      <path id="path432" class="cls-1" d="M1201.93,218.14a20.39,20.39,0,0,1-12.61-10.05c5.85,1.69,23.28,4.37,12.61,10.05"/>
      <path id="path434" class="cls-1" d="M1218.16,214.35l-2.64,3.82c-5.58-3.34-8.71-9.18-4.14-14.38,2.14,3.33,5.35,6.89,6.78,10.56"/>
      <path id="path442" class="cls-5" d="M1131.37,29.68c-3-1.42-4.77-.19-5.9-3.81l5.9,3.81"/>
      <path id="path444" class="cls-5" d="M1151.06,17.88c27.36,5.4-7.69,19.66-16.52,7.2,5.15-5,11.62-15.66,16.52-7.2"/>
      <path id="path446" class="cls-5" d="M1111.42-2.14c8.9,1.33,18.1,3.6,27.08,4,4.9.24,25.11-4.25,17.46,7.47-5.41,8.3-36.94,7.88-38.06-5.8-7.15,3.48-17.55-2.79-6.48-5.71"/>
      <path id="path450" class="cls-5" d="M1155.34-2,1136.2-.2"/>
      <path id="path562" class="cls-1" d="M1395.4,441.24l3.34,1.34c-3.38,2.69-1.9.06-3.34-1.34"/>
      <path id="path570" class="cls-1" d="M1177.26,211c10.38,3.47,6.85,23.29-6.21,18.13,2.24,6.46-3.61,7.73-10.06,9.4-.43-8.3.35-15.27-5.21-22,7.94-3.33,15.62,2.23,21.49-5.48"/>
      <path id="path574" class="cls-1" d="M1210.9,240.84c-9.61.52-14.26-4.74-21.18-10.37,4.24-3.42,8.76-9.27,13.64-7.91,8.33,2.33,6,10.66,11.69,15.64l-4.15,2.64"/>
      <path id="path578" class="cls-1" d="M1177.86,233.73c-3.22.27-5.3,1.37-6.39-4.12,4.28-1.1,3.82,1.41,6.39,4.12"/>
      <path id="path580" class="cls-1" d="M1182.85,231.69c2.44.11,30.12,16.55,30.11,16.48.71,5.33-18.24,14-18.42,4.33-8.12.55-16,6.27-24.07,4.31-6.1-1.49-6.72-15.4-14.21-1.81-3-8.22,2.26-6.39-.91-13.86,9.39-3.41,22.47-3.94,27.51-9.44"/>
      <path id="path582" class="cls-1" d="M1218.16,214.35l-2.64,3.82c-5.58-3.34-8.71-9.18-4.14-14.38,2.14,3.33,5.35,6.89,6.78,10.56"/>
      <path id="path584" class="cls-1" d="M1187.2,207.91c6,5,10.38,8.66,17.22,11.49,7.92,3.28,17.42,1.5,22.74,9.08l-14,6.73c-.27-5.51-2.7-9.14-7.38-11.44-9.95-4.89-4.61,3.9-14,4.43-9.71.55-15.48-16.61-4.64-20.3"/>
      <path id="path586" class="cls-1" d="M1201.93,218.14a20.39,20.39,0,0,1-12.61-10.05c5.85,1.69,23.28,4.37,12.61,10.05"/>
      <path id="path588" class="cls-1" d="M1204.47,208.51c2.37,2.19,5.15,1.19,5.14,6.7-7.08-3.87-5.23-5.6-5.14-6.7"/>
      <path id="path590" class="cls-1" d="M1167.58,210l6.57,1.11c-2.77,7.58-13.21,3.88-20.13,3.49a19.76,19.76,0,0,1,13.56-4.6"/>
      <path id="path594" class="cls-1" d="M1262.43,166.4h0"/>
      <path id="path606" class="cls-5" d="M1155.34-2,1136.2-.2"/>
      <path id="path612" class="cls-5" d="M1111.42-2.14c8.9,1.33,18.1,3.6,27.08,4,4.9.24,25.11-4.25,17.46,7.47-5.41,8.3-36.94,7.88-38.06-5.8-7.15,3.48-17.55-2.79-6.48-5.71"/>
      <path id="path614" class="cls-5" d="M1151.06,17.88c27.36,5.4-7.69,19.66-16.52,7.2,5.15-5,11.62-15.66,16.52-7.2"/>
      <path id="path616" class="cls-5" d="M1131.37,29.68c-3-1.42-4.77-.19-5.9-3.81l5.9,3.81"/>
      <path id="path652" class="cls-6" d="M1075.23,1079.24c4.28,3.34,8,7.36,7.53,12.57-6.87-3.75-17.89-14-17.38-19.85,3.21,2.37,7,4.52,9.86,7.29"/>
      <path id="path654" class="cls-1" d="M1045.9,1079.93c2.54,4.32,18.64,31,.8,27,7.57,2.84,5.82,7.79-1.52,11.26-2.39-2.5-4.89-5.84-5.67-9.23-2.7-11.71,1.63-2.25,3.33-10,.44-2,3.89-4.7,4.73-8.44,1-4.59-5.47-3.87-1.66-10.59"/>
      <path id="path656" class="cls-1" d="M1031.69,1086.5c5.26,5.64,3.86,15.87-1.65,21.55-4-5.94-.65-21.53,1.65-21.55"/>
      <path id="path658" class="cls-1" d="M1085.81,1013.89c3,2.09,4.26,5.29,9.79,5.61-4.26,5.52-9.79,6.66-13.13,4.77,4.78,6.92,1.08,12.27-4.36,8.78-4.14,3.17-7.3,2.42-12.69-.53,6.49,3.12,25,5.22,18.43,18.39-6.25-6.75-16.91-13.63-23.45-14.43,7.11,2.54,7.69,4.34,12.85,7.4l-1.89,6.76c-1.18-2.07-2.35-2.17-3.14-5.68-4.36,2.18-2.94.11-6.73.3l-.95,3.14c-1.89-3.39-1.24-1.9-4.67-3.42l1.52-3.65c-1.15,6.65,4.41,9.36,11.21,4.54-1.72,5-.68,3.7-1.49,9.45-13.66-8.48-27-21.11-37.11-33.22,7.4-3.36,10.57,1.72,17.64,1.2,5.63-.41,10.18-3.91,15.9-5.27,6.43-1.53,18.13-4,22.25-4.13"/>
      <path id="path660" class="cls-1" d="M1087.87,1025.78c4.74.51.6,3.88-3.41,6.86-.58-2.19-1.45-4.62-2-6.87l3.32,1.28c-.05-4.39.35-1.77,2.11-1.27"/>
      <path id="path662" class="cls-1" d="M1079.43,1051.37a84,84,0,0,1,5.49,7.07c-3-1.72-6.69-2.2-9.74-3.79,8.29,7.41,36.68,17.09,50.39,9.56,7.92,23.19-24,20.46-25.86,11.91-3,.83-2.8,1-4.3,3.78,3.24-2.94,8.08,1.86,13.94,5.25-9.34,13.07-20.55-7-26.21-12.78-5.94-6-19.34-13.72-24-21,2.38,1.75,5.67,2.72,8.28,4.13l-1.28-5.8c7.33.73,3.74,1.23,8.06-4.31,1.61,1.87,4,3.91,5.2,6.05"/>
      <path id="path664" class="cls-1" d="M1104,973.67c-1.63,1.95-3.51,3.74-5.25,5.59,2.83-6.67,3.76-6.36,5.25-5.59"/>
      <path id="path666" class="cls-1" d="M1102.47,1005.34c-3,.71-5.66,1.12-9.12-1A19.61,19.61,0,0,1,1105.1,999l-2.63,6.32"/>
      <path id="path668" class="cls-1" d="M1108.95,999.94l5.43.44-2.49,5c8.35-10.72,8.58,5.44,5.17,12-4.1,7.94-11.38,10.74-20.5,9.91,2.94-11.46-13.83-17.29-21.41-11.69-2.47-8.83,20.93-16.89,21.64-2.72-1.18-2.12-1.56-5.23-2.29-7.55,4.83,2.11,5.63.11,9,5.39l3.61-4.86-3.93,4.76c-2.75-5.43-.23-10.08,5.81-10.72"/>
      <path id="path670" class="cls-1" d="M1093.63,1002.42l-3.48,1.57c5.12-3.4,6.32-1.12,3.48-1.57"/>
      <path id="path672" class="cls-1" d="M1128.41,973.36c16.3,22.87-64.93,30.6-51.15,42.39a24.25,24.25,0,0,1-8.2-.13c-3.35-12.38,49-49.49,59.35-42.26"/>
      <path id="path674" class="cls-1" d="M1114.49,998.75l-6.62-.08c4-4.1,3.82-.62,6.62.08"/>
      <path id="path676" class="cls-1" d="M1088.64,947.35c5.86,5.52-5,36.32-17.33,30.65l3.93-2.73c-2.86-4.65-1.26-6.75-.89-12.32,14.69,6.73,1.94-13.06,14.28-15.6"/>
      <path id="path678" class="cls-1" d="M1095.88,953.54a15.38,15.38,0,0,1-7.09,11c.18-5.48,2.42-9.9,7.09-11"/>
      <path id="path680" class="cls-1" d="M1098.83,953.7c8.09,6.1,3.13,6.83,1.39,12.45-.81,2.63-4.92.83-5.77,2.11-1,1.46-.08,6.55-1.14,8.1-3.61,5.29-9.26,17.13-17.05,21.37-1.12-14.08,14.21-32.77,22.57-44"/>
      <path id="path682" class="cls-1" d="M1102.82,968.89c-6.51,9.88-12.21,24.51-24.54,28.19,6.52-5.29,18.55-21,15-28,2.59-1.35,6.35-3.37,8.95-4.55,2.57,1.6,1.12,2.22.61,4.39"/>
      <path id="path684" class="cls-1" d="M1093.56,1030.77c-.69-2-3.72-1.67-.54-5.75l.54,5.75"/>
      <path id="path686" class="cls-1" d="M1089.92,1027.45c4.78,3.87,8.25.18,15.33,3.92-1.78,16.2-14,.93-20.66,2.52,1.68-2,3.33-4.72,5.33-6.44"/>
      <path id="path688" class="cls-1" d="M1106.49,1031.69c14.88,1.86-.86,17.41-7.18,8,4.28-1.29,4.1-4.48,7.18-8"/>
      <path id="path690" class="cls-1" d="M1090.79,1035c6.74,5.17,5.59,15-1.28,5.26l-3,5.82a38.14,38.14,0,0,1-5.52-10.55c3-.16,6.84-1,9.78-.53"/>
      <path id="path692" class="cls-1" d="M1094.79,1046.09c11.34-4.44,7.08,14.68-9.76,5.68,1.38-2.06,2.39-5,4.1-6.77l3.68,3.26c-1.7-2.11-2.84-4.8-4.68-6.78,2.2,1.52,4.58,2.93,6.66,4.6"/>
      <path id="path694" class="cls-1" d="M1099.7,1057.59l-6.85-.54c4-2.7,4.55,0,6.85.54"/>
      <path id="path696" class="cls-1" d="M1067.69,1009.89c2.72,7.24-13.13,12.43-19,10.11l19-10.11"/>
      <path id="path698" class="cls-1" d="M1056,1111.73c-5.65-1.65-3.59-7.36.56-12.26,5,4.94,6.62,10-.56,12.27"/>
      <path id="path700" class="cls-1" d="M1023.6,1110.78c-1.36-2.82-3-5.42-1-10.47.33,3.47.82,7,1,10.47"/>
      <path id="path702" class="cls-1" d="M1089.81,1097.25c-4.8-1.83-7.45-2.9-5.72-8.38,4.4,2.3,5.21,5.3,5.72,8.38"/>
      <path id="path704" class="cls-1" d="M1029.3,1092.1c-3.17,5.62-3.58,13-2,19.17-4.93-4.66-5.68-19.13.47-23.17l1.57,4"/>
      <path id="path706" class="cls-1" d="M1041,1036.67c8.68,2.41,18,11.24,17.16,20.84l-.29-4.51-2,1.19c-.23,3.21.72,9.69,4.73,12.9-4,1.29-2.51,2.73-6.81,3.11.64,4.39,1.45,5,1.51,9,5.67-1.1,22.24,27.46,21,33.88-6.2-1.46-8.63-4.71-4.9-9.6-1.19,4.92-1.55,1-.89,6-5.74,1.68-35-46-26-50.92l-1-1.87-2,5-6.93-30.54c2,1.77,4.5,3.47,6.28,5.49"/>
      <path id="path708" class="cls-1" d="M1040,1059c1.49,8.65,7.54,20.15,1.74,27-1.07-15-7.25-25.24-5.33-36.83,1.16,3.17,2.84,6.52,3.59,9.81"/>
      <path id="path710" class="cls-1" d="M1068.76,1059.23c1.92,2.36,3.49,5.17,5.19,7.7-3.54-.27-7.09-2.64-10.71-6.81,7.39,8.49,11.56,9.51,17.76,20.73-7.6-4.5-27.08-16.53-21.14-26.15,2.64,1.34,6.68,2.58,8.9,4.53"/>
      <path id="path712" class="cls-1" d="M1037.42,1058.8c.76,2.4-2,3.71,1.94,4.32l-.95,1.84-2.7-3.92c1.59,2,.75,2.83,3.82,5.38l-4.83,3.49,5.06-.67c.28,3.7-.64,4.21.6,7.59-4.27-.09-2.19.86-4.54-1.38l-.65,3.77c7.06.31,6.74,4,.5,8.37l5.37,3.05-4.95-3.18,2.62-3c8.89,7.37,9.84,13.27-1.66,12.88-.25-13.53-9.83-27.61-2.56-42.19l2.93,3.6"/>
      <path id="path714" class="cls-1" d="M1061.14,1067.71c3,7.54,3.13,15.19,12.44,14.54l-2.47,2.62c5.64,2.19,4.74,8.12-2.58,11.38-2.78-7-3.58-18.9-12.53-17.08l2.52-5.9,1.08,4.09c1.56-2.41,1.81-1.4,2.5-5.83l-2.12,5.76c-3.09-3.88-4.43-7.52,1.15-9.57"/>
      <path id="path716" class="cls-1" d="M1080.46,1069.88c5.21,3.87,9.32,9.82,10.17,16.33-4.07-3.88-24-18.58-10.17-16.33"/>
      <path id="path762" class="cls-7" d="M864.89,1177.31c1.29,2.56,4.48,1.72,1.46,6.27-4.87-3.64-2.34-4.25-1.46-6.27"/>
      <path id="path818" class="cls-1" d="M899.7,1225.86c-13.48,4.84-9.12-6.1-6-10.64-3.14-4.06-3.09-8.34-3.34-13.26-9.06,13.33-4.58-.91-5.94-6.76-1.89-8.14-5.45-14.87-13-19,5-.81,4.59-5.24,8.67-9.7,5.28-5.76,13.14-9.7,20.28-14-1.2,8.9,5.2,5,10.69,8.72,4,2.72,8,8.09,12.3,10,7.15,3.22,25.51,5.87,29.24,15,8.39,20.47-39.36,40.32-52.89,39.63"/>
      <path id="path824" class="cls-8" d="M1111.91,825.43c-2.51-2-1.26-1,0,0"/>
      <path id="path844" class="cls-8" d="M923,1193.92c-1.84-.74-4.58.41-2.31-2l-2.1,1.07.46-3.47,3.94,4.44"/>
      <path id="path852" class="cls-8" d="M961.38,1158.09c-2.21-.82-2.37,1.45-2.31-2.52l2.31,2.52"/>
      <path id="path860" class="cls-8" d="M949,1148.43c-.9-.72-2.75,1.18-2.76-2.84l6.13-1.53.41,3.35c-2.59-3.31-1.83-.16-3.79,1"/>
      <path id="path764" class="cls-7" d="M872.09,1151.34c-3.33-2.36-1.34-1,0,0"/>
      <path class="cls-1" d="M1363.52,431.48c.41-.18.82-.38,1.23-.6Z"/>
      <path id="path5038" class="cls-8" d="M660.9,935.33l1.43,3.05C658.29,937.2,661,936.74,660.9,935.33ZM762.32,952c3.74,5,2.2,8.35-3.81,10.34C759.74,958.95,760.68,955.11,762.32,952Zm-14.4,19Zm4.88,2.47c-.28,2.85-2.61,3.78.34,5.52l-4.51,1.4.64-2.53-3.81.82C747.83,977,750.24,974.81,752.8,973.43Zm3.94,8,1.25,6.53-2.41-3.14-3.54,2.9C753.54,985.67,755,983.14,756.74,981.39Zm3,4.58Z"/>
      <path id="path5069" class="cls-8" d="M790.38,902.51c-1.76-2.14-2.82-.94-3.49,1.53.68-2.47,1.73-3.67,3.49-1.53m-2.39,3c-3,1-5.49-1.12-7.16-4.27,1.67,3.14,4.18,5.29,7.16,4.27m-5.88-1.79c-6,1-9.49,5.07-9.11,11.29-.3-6.06,3-10.38,9.11-11.29m-36.82-43c2.7,2.34,5.43,2.46,8.18.24-2.75,2.22-5.48,2.09-8.18-.24m18.93,19.06a42.36,42.36,0,0,0,5.49,6.78,53.52,53.52,0,0,0-3.07-11.84l-2.42,5.06m8.25,13.86c-.14-1.81,1.76-2.55-1.22-4.5l1.22,4.5m1.31,3.11c-.31,2.14-4,2.53,1.22,3.6l-1.22-3.6M770.52,930c3.16,1,8.18,4,11.58,3.81,4.4-.18,2.91-4.2,6.77-5,7.23-1.52,14.74-2.27,22-3.4-17,2.61-25.56,9.49-40.41,4.6m58.19,6,2.66,3.79c3.92-5.51,3.49-2.27,1.35-7.59l-4,3.79m-6.67.2c-1,1.3-3.53-.9-1.33,1.64s.44-.48,1.33-1.64m-25.18,10.24c-2.6,3.1-3.88,4.07,3.34,8.09,3.75-5,1-5.58-3.34-8.09m22.92-29.17c-3.66,1.67-2,.91,0,0m108.29-122c4.33-4-.43.39,0,0m8-.51h0m-58.75,23,3.57,1.57c-.42-5-.15-5.93-3.39-10-.06,2.7-.5,5.72-.18,8.4m-1.8.47c-2,4.91-4.5,6.43-1.44,12a73.76,73.76,0,0,0,1.44-12M818.67,868.7l5.9-1c-4.2,5.16-3,8.3,3.85,8.75,2.08-8.84-7.8-11.4-10-20,1.2,4.58-4.76,6.22.29,12.25"/>
      <g>
        <path class="cls-1" d="M1529.78,549.69h0l-.07,0c-4.54-2-8.41-7.12-13.64-8.8-8-2.58-17.56,1.36-22.69.81-11.69-1.26-1.31,2-9.08-9.39-3.64-5.34-9.49-8.75-15.94-12.85,2.84-1.67-.51-1,3.33-.56l-4-6c-2.57,4.06-8.85,1.36-15.77.35,31.89,1.08-1.74-26.84-11.23-34.56-7.16-5.82-15.73-10.26-23.39-16.17-5-3.82-15.4-18.9-15.68-6.18-3-5.79.59-.09-5.37-2L1396,452l-1.14,2.37c-1.93-.44.63-1.48-3.33-.12.54-3.22,0-1.23-2.54-2.07l3.37-1.46c-5-1.72-2.43-2.5-5.95,1.66l-2.09-2.47c-2.33,2.66.2,2.6-4.17,1.53l4-3.11c-4.9-3.71-6.94-1.32-6.85,4.8-3.3-4.69-2.37-4,1.28-10.27l-2.77-1.73c-1.07,2.68-3,5.06-4.2,7.67-2.29-2.29-3.54-1.63-3.79-1.77l-.42-5.51c-4.31,1-3.73-.49-7.07-.58,5.92-3.3,8.54-6.36,1.59-7.53l2.25-1.09a19.94,19.94,0,0,1-13,1c5.47-2.21,12.28-3.66,11.53-10.06l-2.77,1.45c1.73-5.43.46-5.42-.14-6.47l.81-2.54c-3.8,1.54-6.53,1.7-11.5.78l5.11-3.3a357.78,357.78,0,0,1-44.1-20.2c-6.08-3.36-11.56-8.55-17.24-12.57-3.67-2.6-10-5.76-13.17-8.47-7.15-6-19.56-18.21-23.24-27-2.79-6.65,7-7.92-.82-15-4.42-4-4.73.94-8.11.09-9.78-2.48-23-3.22-31.21-10.15-3.71-3.16-5.65-8.89-8.74-12.7-.69-.85,1.41-3.83.8-4.75-1.18-1.74-8.65-1.52-9.26-3.44-1.21-3.8,4.59-19.87,5.16-25.86-6.64,3.78-9.35-8.28-15.69-11-8.7-3.71-21,3-23.91-9.63-6.8,6.66-12.34,4-14.87-4.32,2.58.38,5.38-.85,8-.57l-2.41-5.49c17.7-5.92-7.16-28.38-6-30.18,2.31-3.65,40.09-6.69,44.82-5.31h0c7.55.57,14.33,3.52,18.62-3.43,8.8,10.85,14.7,8.38,27,3.54,7.71-3,6.25-1.34,14.26-8.48,3.56-3.17,4.72-5.33,9.23-6.86-.79-4.67,10.12-11.33,2-11.06,2.93-5.65,1.91-5.67.28-10.85l-2.5,3.39c-.85-4.68-2.15-15-7.69-17.41-4.05-1.77-5.1,3.47-5,3.55-5.82-4-2.16-4.41-4.41-8.74-.82-1.59-6.22-13.06-5.78-12.63-13-12.65-14.53,1.58-24.87,5.43-4.53,1.69-11.22-2.08-15.88-.58-6.47,2.08-11,10.13-17.27,12.92-23.44,10.48-38.33-15.95-55.48-28.64-9.15-6.77-3.3-7.17-14.15-6.8-5.51.19-11.25,4.93-16.61,4.24-8.61-1.12-29-13.94-35.18-20.24-8.37-8.49-6.9-18.49-21-20.58-10.87-1.61-19.3,5.79-29.62,7.08C985.89,93.6,969.75,81.83,947,95.1c-20.88,12.19-40.36,16-61.78,25.95-15.46,7.2-42.67,31.68-61,22-4.83-2.55-1.62-7.68-5.29-10.94s-8.24-4.38-12.39-6.6c-5.81-3.11-18.79-14-25.68-9.93-5.38,3.21-2.16,14.57-3.76,19.14-1.37,3.92-4.49,6.35-6.94,9.94-6.93,10.13-16.83,17.76-20.44,30.08-6,20.32,3.29,43-7.52,61.58-11.45,19.66-45.06,28.59-36.49,55.74,2.22,7,5,10.23,9.46,11.94-8.06,2-.71-.91-7,5.47-6.6,6.64-11.21,17.9-16.17,25.81-11.36,18.14-24.94,34.52-38.1,51.42-9.32,12-25.36,26-18.32,38.64-1.28-1.26-2.56-2.58-3.87-4-9.55,16.09-48.06,9.43-64.86,14.62-12.72,3.93-20.92,9.46-34,9.16-9.84-.22-18.14-4.36-27.65,2.86-10.44,7.93-6.07,19.9-11.57,29.54-2.38,4.17-9.14,5.85-11.49,10l-5.19,3.05c-3.71,12.4-14.37,6-23.51,3.54-2.13,26.74-29.49,8.28-42.45,7.08-16.05-1.49-16.55,9.68-26.46,15.25-12.17,6.84-18.62-3.6-29.31-2.91,9-12.87-10-28.79-22.8-28.46-6.84.18-12.09,7.39-18.18,5.64-4.09-1.18-5.48-11.6-6.54-13.89-6.41-13.89-14.7-18-30.37-24s-24.75-17.58-36.62-29.51c-1,4.93-3.28,6.91-7.08,10.3-12-7.35-25.36-15.77-39.27-22.65-5.26-2.6-5.64-5.09-10.93-4.71-7.11.51.93,4.2-2.11,5.29-5.73,2-13.15,4.33-19.47,6.87-3,1.2-4.13,5.33-6.09,6.09-4.68,1.82-11.59-.1-15.93,2.34-2.91,1.63-2.6,5.46-5.17,7.15-3.33,2.18-8,3.88-11.86,6.26-11.08,6.77-8.66,4.72-10.7,16.46-1.31,7.54-3.65,18.55,2.81,23.59-17.41,8.09,1.27,24-12.88,32.77-3.78,2.33-11,.49-13.91.67-2.37.14-4.28,5.46-6.66,5.73s-3.82-3.62-7.42-3.1c-6.16.89-5.44-1.6-11.25,2.17-5.4,3.5-5.56,9.67-9.5,13.77-1.62,1.69-.79,6-2.52,7.55s-9-1.35-10.45.49c-3.59,4.54-3.81,6-3.1,11.73.63,5,6.77,4.16,5.95,12.49S34.13,574.88,32.38,582c-3.58,14.6,15.07,16.54,10.88,30.51-.94,3.14-7,4.87-7.91,8-1,3.57,2.66,8.47,1.49,12-2.34,7-6.45,6.6-10.15,10.8-15.43,17.49,6.44,5.74,7.76,19.83,5.86-5.87,13.92-4.85,21.61-4.61,2.61.08,3.12-2.71,5.23-3,2.34-.31,5.61,5,7.88,4.5,3-.64,10.47-7.47,14.72-9,5.82-2.13,11-5.33,17.84-3.25,6.27,1.91,15.51,10.3,15.62,17.5.08,5-6.56,9.56-5.93,12.54-.52-2.43,12.34,11.85,11.94,11.58,6.44,4.32,8.57,6.18,18.07,6.24,13.5.09,19.39-3.37,33.06,3.35,7.43,3.65,11.45,9.59,19.86,3.55,1.19-.86-3.07-8.6-2.19-10.08,1.34-2.27,5.9-3.46,8-5,4.43-3.25,8.09-1.94,13.47-3.57,8.3-2.5,4.93,2,12.54-7.62,1.06-1.34-4-6.15-.94-8.59,2.61-2.05,6.7.92,10.07-.39,4.88-1.89,8.16-5.32,12.78-3.79,3-11.44,17.4-22.34,26.64-24.73l-3.23,4.68c8.6,2.1,8.51-3.91,16.17-7.2,4.46-1.92,7.24-.83,12.38-1.26,12.72-1.08,3.9-3.79,14.44,2.35,2.79,1.62,3.71,7.45,9.82,8.9l1.4-1.83c-14.62-9.09,7.53-17,8-25.63,21.09,14.54,20.53,17.23,27.1,41.57,3.74,13.85,9.3,23.92,17.21,35.8,5.3,8,20.07,23.53,21.71,31.07,4.31,19.85-22,22-25.4,35.7-4.93-8.5-20.21-9.27-27.67-3.68C345.91,741,317.3,781.32,315.5,784c-6.11,8.94-25.68,32.67-11.51,46.11-2-1.85,13.91,3.22,13.23,3,3,1.1,7,.72,9.28,3.75,4.76,6.3,2.14,17.41,4.5,25.76,3.31,11.7,5.69,20.49,7.93,31.77,2.48,12.44,5.34,15,17.67,7.08a11,11,0,0,0,3.84,5.3,6.77,6.77,0,0,0,4.83,1c13.13-7.22,31.13-7.22,40.13-20.22,2-4,2-9,6.7-11,1.72-1.1,3.52-2.09,5-3.1,12,3.13,12.14-4.06,23.59-7a37.91,37.91,0,0,1,8-.84c.68,4.91,5.54,11.4,4.92,15.35-1.25,8-11.81,9.42-15,15.56-1.22,2.37-3.53,15.22-4.33,18.81-.72,3.21-3.64,5.61-4,8.59-.39,3.53,4.42,6.43,3.6,10.75-1.16,6.08-5.72,1.77-7.1,8.85-.61,3.12,1,11.42,2.16,14.32.94,2.3,5.4,7.21,5.62,8,1.31,4.7-2.51,13.23-1.81,16.41,1.38,6.32,11.39,10.66,15.75,17.12,5.46,8.08,12.88,20.77,15.91,29.32,5.23,14.72,1.52,31.86,4,46.8,3.75,22.33,13.77,16.4,31.55,23.62,13.43,5.45,16.25,16.09,25.41,26,5.59,6,14.27,9.07,20.13,14.87,7,7,3.83,8.69,8.74,15.54,8.53,11.9,22.21,12,27.81,29.9,5-2.54,9.36-4.72,13.57-6.54,13.56,12.05,15.22,10.66,1.72,22.43-8.22,7.16-12.39,13.61-15,24.43-2.06,8.53-1.39,18.19-5,25.9-4.33,9.28-12.06,16.93-20.15,23.68-8.28-6.4,4.94-17.79-4.7-16.8-2.89.3-16.34,13.55-19.07,16.73s-4.74,8.95-7,12.28c-3.52,5.11-6.27.05-7.9,7.59-2.33,10.73,6.55,10.9,12.46,3.63,1,2.48,4,4.16,5,6.65,8.53-9,9.15,2.64,10.52,6.62,3.32,9.65-2.63,10,4.15,20.42,2.27,3.5,4.56-2.73,6.93,3,2.1,5.08-1.53,4.47-.16,9.9,1.48,5.9-2.71,15,8.54,14.16-.82,7.75,5.91,11.65,7.58,18.53,1.37,5.64-.13,13-.08,17.86.16,15-.87,24.21-7.82,38.66,9.78,1.82,9.85,9,1.91,14.4,9.22,11.15,19.29-.52,28.46,6.73,7.38,5.83-1.56,13-3.6,21.35-3,12.42.12,18.34,2.37,28.73,1.6,7.37,1.32,18.51,10.83,21.1-6.18,3.84-6.13,21.08.63,25.66,7.66,5.19,17.75-6.66,16.85-14.79,6.23,3.41,21-5.78,20-13.45,16,11.63,21.81,11.29,41.93,11.86,7.81.22,18.37-1.46,25.95.74,5.14,1.49,9.35,6.42,14.52,7.77,14,3.66,31.08-1.57,45.64.68,16.26,2.52,30.21,8.82,45,15.6,3.31-15.8,21.36-60.76,7.41-73.74,2.13,11.52-17.16,17.78-8.93,1.08-7-2.21-12.73-.09-18.22,2.87,7.27-4.49,11.81-11,7.33-17.81h0c-2.86-2.46-19,2-24.91,3.23-5,1-7.49-1.89-10.2,1.14-.81.9-1.84,11.45-1.53,15-1.28-5.55.73-13.58,1.41-20.06-22.79,9.62-9.82-4.47,1.81-10.3,6.7-3.36,14.58-1.27,18.35-8.38,2.55-4.8-.23-21.39-.48-26.83-.44-9.45-1.77-13.5-4.19-22.65-.67-2.55-5.78-4.93-5.85-6.9-.14-4,6.31-9.14,7.35-13.09,5.07-19.11-23.19-19.54-23.78-9.5-10.52-5.93-42.42,19.86-45.92-1.81,10.1,1.24,20.16-1.16,20.12-13.32v0c7.6.16,10.08-6.8,13.71-8.84,7-4,18.1-6.94,25.81-10.12,11.36-4.67,39.61-9.58,41.59-22.78l-3.13.59c2.87-1.23,2.93-3.67,1.62-11-1-5.62-1.42-10.21-7.48-11.75,3.92-14.5,9.62-21.39,23.87-28.46,11-5.47,31.74-4.94,40.6-13.18,6-5.56,7-22.55,6.63-31.22-.38-7.95,2.67-2.48,1.15-7.65-.7-2.39-7.72-3.29-8-5.74-.44-4.1.92-7.21,6.24-9.75-1.7-1.5-4-3.83-6.06-4.82,4.93-7.3-14.1-9.67-12.91-19.9l3.11.83-1.37-2.8,3.65.35c.92-8,2.14-23.59,10-25.33.84,5.26-3.51,21.14-7.55,26.76l6.57,2.69c6.34-6.62,8.78-13.08,18.42-19.24,10.3-6.59,15-11,22.65-18.44l-4,6.35c-14.49,13.58-8.1,8.93,7,18.06,3.39,2.06,3.52,6.48,7.91,9,3.9,2.23,10.54,2.59,14.43,4.6,13.66,7.05,14.36,12.83,27.27-2.53,7.44-8.85,12.38-20.41,19.24-29.84,3.81-5.24,8-12.28,13.06-16.34,4.76-3.85,14.14-4.55,18-9.2,5.74-6.93,3.15-23.06,6.21-31.56.88-2.44,5.32-2.46,6.36-5.24,1.49-4,.64-9.58,1.36-13.77.86-5,3.34-10.21,4-15.06,1-8.28-7-21.83-6.27-26.42,2-12.2,32.8-10.46,41.13-21.19,5.95-7.67,18-25.22,1.58-27.66,5.59-5,.89-9.19,3.24-15.25,12,4.21,6.11-16.43,3.56-24-2.37-7-18.39-24.27-2.53-28.26l-4.48,5.76c12.41-9.19,8.64-29.22,15.31-41.75,2.44-4.58,10.53-9,11.83-13.77,0,0-.5-16.79-.07-16-1.49-2.79-5-4-9.66-4.48.66-.53,2.13,0,6.09-2.56a8.84,8.84,0,0,0-8.43-3.47c-2.1,2.83-3.67,3.2-5.53,4.91l2.58-4.71-3.25-.51c1.42-3.07.84-1.62,3.65-2.34l-1.26-3.44,4.82-.89c-4.23-2.56-1.9-2-3.82-4.86l5.29.61c-2.62-.44-2.85-1.39-5.05-2.47l3.4.53-1.43-2.1c12,7.34,10.19-8.06,6.76-12.86l-3.92,2.8c-1.77-1-.45-1.08-5.75-.86-.71-1.8-.35-1.89-.21-1.86a11.47,11.47,0,0,1-1.86-1.39c5.75-3.16,3.16-.78,6.1-4.67l4.58,1.19-4.29-4,3.19.71-1.74-2.65c3.07.53,3.34.09,6.7-.75l-4.9-3.11c8,.28,9.91-5.5,4.58-10.32l4-4-3.64-.63c1-5.55,6.83-9.55,1.18-18,7.42,2.57,9.28-3.7,9-10.44l-11.47.07c12.42-3.07,25.61-8.76,15.33-17.25l2.44-3.06-3.6-1.12c6.4,1.23,3.89.77,5.56,5.13,14.29-1.42,6.67-9.35,8.75-17.33,2.13-8.16,8-15.67,13.22-19-.6-1.76,5-21.35,7.86-25.45,1.92-2.73,9.23-1.21,11-4.15,2.7-4.4-1-13.24.4-18.37,4.63-16.56,28.6-36.87,46.62-34.74.66-5.65,6.52-7.14,12.4-7.78.07,10.35,21,22.94,30.09,17.14,4.42-2.81,3.42-14.89,1.32-23.41-2.87-11.67-11.71-21.46-14.57-32.35-2.1-8-12.15-19.88-11-25.23l-5.73-1.29,2.81.53c-9.43-3.14-10.71-7.86-8.5-18.61,6.64,2.34,21.33,10.67,25.13,16,6.42,9.06,2.58,18.83,7.94,26.68,3.46,5.06,7.39,3.3,11.41,8.13,1.85,2.22,1.3,9.85,1.67,10.16,8.16,6.85,21.91,7.6,32.05,10.19s19.75,4.41,30,6c3.81.59,13.3.45,16.71,2.6,4.65,2.94,5.62,9,9,10.48,11.19,5,14.62-5.59,20.75-7.27,5.9-1.62,12.89,4,18.34-.78,1.47,16,29,5.67,36.75,2.57,7-2.82,31.26-14,28.6,5.26,7.11-5.64,14.47,3.32,23.08,2.82l-.61-2.1c-.48-.86,4.43,1.91,4.23,1.82l-2.94,1.68c5,.21,8.21-2.94,8.33-8.21l3.64.88c-2.58-11.3,8.18-11.14,13.37-15.11,4.22-3.23,9.73-5.58,14.89-10.41,5.61-5.25,11.69-7.95,14.76-15.54,3-7.31,1.15-12.64,3.05-19.16h0Zm-736,942.86c-5.8,3.36-11.46,7-18.16,6.64-4.62-.25-7-2.32-8.07-5.37C771.25,1499,784.06,1497.53,793.83,1492.55Zm697.82-939a20.3,20.3,0,0,1-10.42-1.4c5,.3,10.33-2.24,15.52-3.93a50.53,50.53,0,0,1,6-1.58C1498.55,549.06,1495.3,552.9,1491.65,553.51Z"/>
        <path class="cls-1" d="M1085.56,804.33c.06,0,0,0,0,0Z"/>
        <path class="cls-1" d="M1091.76,821.16c.44.07,1,.14,1.55.18Z"/>
      </g>
      <path id="path5060" class="cls-8" d="M892.64,747.64c-2.62,1.06-5.17,2.87-7.64,4.24,6,3.65,3.74-1.23,6.14,6l3.71-1.69c.43-1.65.13-5-2.21-8.55m-23.51,50.23,4.59,4.29c-1.58-5-4.18-4.09-4.59-4.29"/>
      <path id="path6818" class="cls-9" d="M1098.84-1.16c5.79-.4,16,7.27,20.58,9.54,2.51,1.24,6.67,4.73,10.92,6.77,2.06,1,7.31-.09,9.84.28-5.74,11-13.71,6.88-21.8,4.87,12.49,14.41,22.71,9.88,39.89,16.5,2.14.82,5.55,5.71,6.17,6-.35-.14,7.87,1.56,7.85,1.54,3.74,3.55,5.9,6.3,6.52,14.74,1.38,19,3.12,23.23,17.67,37.33,11,10.68,20.37,22.35,30.11,34.23"/>
      <path id="path4166" class="cls-9" d="M759.47,1641.76c1.65-13.4,8.14-23.23,15.33-34.32-7.3,4.52-14-4-17-8.6-2.84,3.35-6.86,5.81-9.52,9.3a18.78,18.78,0,0,0-4-13.73c6.65,1.21,9.13-3.73,14.22-4.32,3.22-.37,7.26,3.16,10.35,2.31,2.31-.64,3.87-5.08,6-5.48,15.9-3,17.52,1.11,19.11,18.13,17.37-1.19,17.11-30.78,21.54-45.05"/>
      <path id="path5064" class="cls-10" d="M630.18,420c13.57-22.44,29.5-42.2,45.48-63,12-15.68,30-35.75,33.73-55.18"/>
      <path id="path5073" class="cls-10" d="M477.38,490.19c5.3-4.62,12.77-9.17,15.84-15.25,4.49-8.91,1.3-17.37,9.13-25.33,11.7-11.89,23.35-4.27,37.18-4.87s27.48-10.65,41.63-13c13.45-2.2,41.63,2.2,49.86-11.3"/>
      <path id="path5063" class="cls-10" d="M449.42,864.3c-7.16-3.51-14.07,5.29-19.76,7-3.54,1.07-5.78-.51-8.95.34-4.62,1.24-8.29,2.43-12,6.14-3,3-3.51,10.55-5.68,12.29-4.56,3.65-19.29,7.49-25.2,10.22-5.63,2.6-18.11,11.84-22,.26-12.33,7.91-15.19,5.36-17.67-7.08-2.25-11.29-4.63-20.07-7.93-31.77-2.36-8.36.26-19.47-4.5-25.76-2.29-3-6.32-2.65-9.28-3.75.67.25-15.18-4.82-13.23-3-14.17-13.44,5.4-37.17,11.51-46.11,1.8-2.63,30.41-43,31.25-24.74,7.47-5.59,22.75-4.82,27.67,3.68,3.4-13.67,29.71-15.85,25.4-35.7-1.64-7.54-16.41-23.11-21.71-31.07-7.91-11.88-13.47-22-17.21-35.8-6.57-24.33-6-27-27.1-41.57-.52,8.67-22.67,16.54-8,25.63l-1.4,1.83c-6.1-1.45-7-7.28-9.82-8.9-10.55-6.14-1.72-3.43-14.44-2.35-5.13.44-7.92-.66-12.38,1.26-7.66,3.3-7.57,9.3-16.17,7.2l3.23-4.68c-9.24,2.39-23.68,13.29-26.64,24.73-4.62-1.53-7.91,1.9-12.78,3.79-3.37,1.31-7.46-1.66-10.07.39-3.1,2.45,2,7.26.94,8.59-7.61,9.57-4.24,5.12-12.54,7.62-5.38,1.62-9,.32-13.47,3.57-2.14,1.57-6.7,2.77-8,5-.88,1.48,3.38,9.23,2.19,10.08-8.41,6-12.43.11-19.86-3.55-13.66-6.72-19.55-3.26-33.06-3.35-9.5-.06-11.63-1.92-18.07-6.24.4.27-12.47-14-11.94-11.58-.64-3,6-7.51,5.93-12.54-.12-7.2-9.35-15.6-15.62-17.5-6.85-2.08-12,1.12-17.84,3.25-4.25,1.56-11.7,8.38-14.72,9-2.27.48-5.54-4.81-7.88-4.5-2.11.28-2.63,3.07-5.23,3-7.69-.25-15.75-1.26-21.61,4.61-1.32-14.08-23.19-2.34-7.76-19.83,3.7-4.2,7.81-3.76,10.15-10.8,1.17-3.51-2.48-8.41-1.49-12,.87-3.16,7-4.89,7.91-8,4.19-14-14.46-15.91-10.88-30.51,1.75-7.14,10-9,10.8-17.39s-5.32-7.48-5.95-12.49c-.71-5.7-.5-7.19,3.1-11.73,1.46-1.84,8.65,1.1,10.45-.49s.9-5.86,2.52-7.55c3.93-4.1,4.1-10.27,9.5-13.77,5.82-3.77,5.09-1.27,11.25-2.17,3.6-.52,5,3.37,7.42,3.1S85,513.1,87.38,513c2.94-.18,10.13,1.66,13.9-.67,14.15-8.75-4.53-24.68,12.88-32.77-6.46-5-4.12-16-2.81-23.59,2-11.75-.38-9.69,10.7-16.46,3.89-2.38,8.54-4.08,11.86-6.26,2.57-1.68,2.26-5.52,5.17-7.15,4.35-2.44,11.25-.52,15.93-2.34,2-.76,3.09-4.89,6.09-6.09,6.33-2.54,13.74-4.83,19.47-6.87,3-1.09-5-4.78,2.11-5.29,5.29-.38,5.67,2.11,10.93,4.71,13.91,6.88,27.27,15.3,39.27,22.65,3.81-3.39,6.1-5.37,7.08-10.3C251.85,434.46,261,446.12,276.59,452s24,10.07,30.37,24c1.06,2.29,2.45,12.71,6.54,13.89,6.09,1.76,11.34-5.46,18.18-5.64,12.76-.33,31.84,15.59,22.8,28.46,10.68-.69,17.14,9.75,29.31,2.91,9.91-5.57,10.4-16.74,26.46-15.25,13,1.2,40.31,19.65,42.45-7.08,9.14,2.5,19.8,8.86,23.51-3.54"/>
      <path id="path4141" class="cls-10" d="M2.27,472.34c7.36-2.66,22.15-15.58,10.16-22.11,16.08-9.46,36.13-19.77,53.2-22.82,25.17-4.49,44.6-12.35,62.81,9.76"/>
      <path id="path6820" class="cls-10" d="M239.26,423.79c2.12-5,4.43-8.32,5.06-12.73.85-5.89-2-7.4-.68-13.46,2.83-12.8,14-11.57,22.83-19,9.29-7.79,8.91-15.5,8.7-28.19-.11-6.92,3.48-24.94-4.84-29.87,12.31-4.82,4.3-12,7-14.12,9-7.18,10.08,3.14,17.34,2,8.79-1.42,6.62-7.2,12.35-10.7,4.64-2.83,13.17-2.36,18.6-8.25-13.36-9.17-9.05-24,1.75-32-10.36-12.87-25.17,9.09-27.91-10.24l5.43-1.2c-8-9.59,6.72-12.15,1.41-20.42-6.13-9.55-18.42,3.16-23.25-2.29-10.31-11.63,9.24-14.64,12.46-17.28,5.29-4.32,5.16-13.63,10.74-19.13,4.45,9.84,5.91,1,13.9.89,3.93-.06,11,2.27,14.55,1.54,1.45-.3,8.42-6,9.26-7,7.5-8.86.22,2.43,2.3-8.66.51-2.74-1.82-12.56,2.11-15.22,4.85-3.29,5.74,3.09,9.36,2.13,5.91-1.57,12.49-10,17.9-9.64l-.08-5.6,13.82.15c-4-16.83,17.31-20,27.31-21.93,4.61-.88,10.41,1.14,15.43-7.19.88-1.46,1-8,1.65-10.8-8.5,4.41-12.23-9.41-17.92-14.12-13.47-11.15-7.35,2.83-20.24,1.67.1,0-8.59-6.49-8.63-6.65-2-7.22,4.13-3,4.66-7.21.33-2.56,3.82-4.75,4.13-5.93.66-2.54-2.27-8.12-1.9-11.2-8.14-2.14-4.69-4.35-2.69-9.33,3-7.51,7.61-5.23,9.86-14.62,1.74-7.24,5.3-3.88-.43-9.79-1-1.05-11.6-3.06-14.06-5,8.9-3.14,20.9-14.43,17-23.39"/>
      <path id="path5059" class="cls-10" d="M447.56,864.29c-.93-.46,4,14.29,4,14.13-.86,8.86-7.94,8.33-12,15.55-2.92,5.18-2,10.46-4.09,16.55-1.31,3.84-6.41,7.64-6.95,11.63-.42,3.17,5.08,6.39,4.11,10-2,7.27-5.58,3.14-7.19,9.87-1.94,8.09,4.65,17,6.3,22.3,1.52,4.82.11,10.74.82,15.83,1,7.21,7.67,9.46,13.44,17.32,5.46,7.44,13.68,20.6,16.94,28.6,5.72,14,2,32.2,3.81,46.82,2.72,22.5,12.42,18.53,30.23,25.15,14.21,5.28,17.11,15,26.69,25.6,5.75,6.35,14.52,9.59,20.62,15.63,7,7,3.83,8.69,8.74,15.54,8.53,11.9,22.21,12,27.81,29.9l14.24-7.28"/>
      <path id="path9019" class="cls-10" d="M815.54,1560c-14.74-6.78-28.7-13.08-45-15.6-14.55-2.26-31.63,3-45.64-.68-5.17-1.35-9.38-6.28-14.52-7.77-7.57-2.2-18.14-.52-25.95-.74-20.13-.58-25.89-.23-41.93-11.86.9,7.67-13.82,16.86-20,13.45.9,8.13-9.2,20-16.85,14.79-6.76-4.58-6.81-21.82-.63-25.66-9.52-2.59-9.23-13.73-10.83-21.1-2.26-10.39-5.39-16.31-2.37-28.73,2-8.39,11-15.52,3.6-21.35-9.17-7.24-19.24,4.43-28.46-6.73,7.94-5.42,7.86-12.58-1.91-14.4,7-14.46,8-23.66,7.82-38.66-.05-4.83,1.45-12.22.08-17.86-1.67-6.88-8.41-10.78-7.58-18.53-11.25.85-7.06-8.26-8.54-14.16-1.37-5.43,2.26-4.82.16-9.9-2.37-5.73-4.65.49-6.93-3-6.79-10.46-.83-10.76-4.15-20.42-1.37-4-2-15.61-10.52-6.62-1-2.49-4-4.17-5-6.65-5.91,7.27-14.79,7.1-12.46-3.63,1.63-7.54,4.39-2.48,7.9-7.59,2.3-3.34,4.24-9,7-12.28s16.18-16.43,19.07-16.73c9.64-1-3.57,10.4,4.7,16.8,8.09-6.74,15.82-14.4,20.15-23.68,3.6-7.71,2.92-17.37,5-25.9,2.62-10.82,6.79-17.27,15-24.43,13.54-11.79,11.83-10.36-1.82-22.52"/>
      <path id="path9015" class="cls-11" d="M897.52,1093.05c8.25,3.46,34.92,19.82,34.88,29.41,0,6.45-11.83,11.1-15.75,15.3-4.8,5.14-9.82,13.78-17.27,15.49m-82.94,163.91c-14.8,2.84-37.07,8.76-49-4-15.66-16.79,1-28.07,1.73-40.78.08-1.46-5.2-4.06-5.39-7-.24-3.8,6.2-11.29,5.67-13.72-1.52-7-6.43-3.16-12.63-8.3-16.16-13.38,1.71-30.45,6-44.74,2.95-9.82-.79-16.44,5.31-26.07,4.32-6.82,12.63-10.69,16.6-17.61,7.26-12.62,1.51-12.12,13.24-18.23,9.32-4.85,18.25-4.65,26.82-11.4,11.77-9.28,12.41-31.79,29.22-36.63,7.24-2.09,15.38,1.56,19.41,1.66,1.62,0,6.85-3.92,10.24-3.79,4,.15,10.15,4.79,13.86,6.54"/>
      <path id="path5057" class="cls-11" d="M594.9,1177.86c8.48-6.71,27.4-7.12,37.81-6.31,11.43.88,21.09,9.36,32.27,10.55,20.33,2.17,51-4.41,62.36-21.2,8.38-12.41,8.86-14.78,23.46-20,12-4.34,24.56-8.38,32.64-19.19,6.71-9,4.65-18.28,18.78-22.35,13.17-3.79,19.93,7.85,33.38,7.26"/>
      <path id="path9007" class="cls-11" d="M871.4,1176.21c.48.15,24.4-21,29-23.7-1.2,8.9,5.2,5,10.69,8.72,4,2.71,8,8.1,12.3,10a257.68,257.68,0,0,1,29.24,15"/>
      <path id="path5061" class="cls-11" d="M582.94,733.57c1.92,20.82-4.86,11.6-10,27.77-.9,2.84,4.43,5.77,3.91,8.36-.38,1.92-1.25,4.69-1.92,7.28-6.45,25-30.43,30.44-51.95,31.26-12.71.48-22.74-.7-28.88,11.46-4.19,8.28-.75,14.3-6.67,18.63-3.57,2.61-7,2.13-9.47,3.44-2.11,1.12-4.53,3.1-8.16,6.64-8.41,8.2-7.86,15.55-20.63,16.2"/>
      <path id="path5061-2" data-name="path5061" class="cls-11" d="M809.76,1097.9c-.42-18.6,1.25-28.45,9.88-43.51,4.94-8.62,9.41-8.65,6.22-19.9-1.8-6.35-7-14.65-12.59-18-7.64-4.52-14.86-1.21-20-7.94-4-5.29-6.16-18.86-7.3-25.29-1.25-7.1.16-15.19-2.48-21.81-3.57-9-15.3-13.53-6.58-22.73-20.27,9.6-9-11.14-20-15.34-2.41-.92-14.32,14.18-22.89,14.57-21.49,1-48.6-32.42-65.7-43.59-6.14-4-22.34-8.2-25.75-14.21-6.89-12.16,8.28-24.56,12.38-32.93,5.91-12.06,1.12-18.9-7.64-30.36-8.41-11-11.43-14.1-14.32-28.26-12.37,2.89-23.58,5.38-35.08,10.77-2.73-6.37-5.13-13.84-9-19.38-3.38-4.87-10.85-8.08-14.57-14.86"/>
      <path id="path5067" class="cls-11" d="M476.21,489.74c3.4,5.61,3.46,13.89,3.78,19.07.1,1.67,3.23,4.56,3,7.26-.21,3-5.35,5.6-5.39,8.56,0-.82,3.88,10.46,3.18,8.87,1.8,4.09-.52,5.51,6.52,11.64,12.91,11.23,16,10.82,12,30.94-1.53,7.66-4,17-6.25,24.2-1.66,5.24-5.86,11.77-7.19,18.61-3.15,16.2,7,22.2,16.58,30.91,11.14,10.07,14.41,24.69,28.82,30.92,6.09,2.63,12.62-.22,15.81,6.38,3.4,7-2.57,11.18.88,18.39,4.85,10.13,26.16,20.65,35.19,27.78"/>
      <path id="path820" class="cls-1" d="M991.49,1001.54c-16.49-9.71-28.26,49.13-31,3.24-.47-8,1.73-20.11,7.27-25.69,4-4,11.67-3.87,15.2-8.18s2.35-12.46,5.82-16.86c5.44-6.92,16.83-11.18,23.25-6.61,5.29,3.76,4.89,9.06,8.22,11.67,5.34,4.19,8.6-3.29,12.36,4,5.73,11-10.68,14.73-16,23-5.71,8.81-5.6,20.68-6.87,32.47-7.92-3.76-18.48-6.67-18.26-17"/>
      <path id="path7291" class="cls-11" d="M1090.84,842.38c-9.63-3.44-42.06,6.86-45.05-6.86-13,2.06-6.47,10.53-13.64,15.41-6.14,4.19-18.8,4.29-26.3,5.49-18.88,3-38.88,1.83-25.32-20,9.24-14.85,17.36-25.12,18.38-42.85.38-6.7-.8-16,.72-22.19,2-8.06,15.27-17.08,8.73-24.51"/>
      <path id="path5047" class="cls-11" d="M1064.63,841c-1.5-11.84,4.64-19.11,10.35-27.86,5.05-7.74,6.69-15.6,16.72-15.94"/>
      <path id="path5075" class="cls-11" d="M631,420.48a108.93,108.93,0,0,0,18.21,15.87c12,8.62,9.39,9,16.41,20.12,9.61,15.26,20.36,25.62,23.95,44.56,1.29,6.84,7.22,22,5.45,28.79-2.52,9.74-11.77,8.65-18,15.06-11.48,11.8-11.32,33-17.48,47.52-11.06,26.09,1.43,19,19.5,32.22,7.22,5.27,10.14,16.39,17.3,21.74,6.62,4.94,14.77,4.43,21.09,10.59,5.89,5.74,12.67,17.56,15.63,25,4.53,11.45,2.79,8.35-.33,21.12-5,20.66,7.44,24.06,21.77,36.17,9.25,7.82,13.44,13,23.72,18.27,10.92,5.59,12.25,5.15,16.61,16.68,7.64,20.23,3.63,41.89,2.67,63L869.14,836c-1-6-5.14-17.53-3.09-22.83s19-14,23.22-17.12c14-10.32,30-21.55,37.49-38.16,6.61-14.69,1.31-31.87,5.34-46.77.94-3.47,4.77-7.28,5.1-10.9.46-4.91-4.53-10.55-3.78-15.41,1-6.7,7.83-12.94,15-14.46,11.79,32.35,24.86,67.12,60,77.39"/>
      <path id="path9017" class="cls-9" d="M735.32,1358.91c0,12.16-10,14.56-20.12,13.32,3.5,21.67,35.39-4.12,45.92,1.81.59-10,28.85-9.61,23.78,9.5-1,3.95-7.5,9.07-7.35,13.09.07,2,5.18,4.36,5.86,6.9,2.42,9.15,3.75,13.2,4.19,22.65.25,5.43,3,22,.48,26.83-3.77,7.11-11.65,5-18.35,8.38-11.63,5.83-24.6,19.91-1.81,10.3-1.14,10.83-6,26,7,26.67,14,.76,23.49-16,39.09-11-8.23,16.7,11.06,10.43,8.93-1.08,13.94,13-4.1,57.94-7.41,73.74m.89-242.83c-2,13.2-30.24,18.11-41.59,22.78-7.71,3.17-18.78,6.15-25.81,10.12-3.62,2-6.11,9-13.71,8.84"/>
      <path id="path9013" class="cls-9" d="M873.41,1176.8l-6.57-2.69c4-5.62,8.39-21.49,7.55-26.76-7.87,1.74-9.1,17.36-10,25.33l-3.65-.35,1.37,2.8-3.11-.83c-1.19,10.22,17.84,12.6,12.91,19.9,2,1,4.37,3.32,6.06,4.82-5.32,2.54-6.68,5.65-6.24,9.75.26,2.44,7.29,3.35,8,5.74,1.52,5.17-1.54-.3-1.15,7.65.42,8.67-.64,25.65-6.63,31.22-8.87,8.24-29.57,7.7-40.6,13.18-14.25,7.07-19.95,14-23.87,28.46,8.83,2.08,7.91,14.68,9,22.14"/>
      <path id="path9011" class="cls-9" d="M899.7,1225.86c-13.48,4.84-9.12-6.1-6-10.64-3.14-4.06-3.09-8.34-3.34-13.26-10,14.74-4.85-22.42-16.72-25.22m78.94,9.49c-7.52,21.7-28,41.14-52.89,39.63"/>
      <path id="path5071" class="cls-9" d="M1090.64,843.1c11.3-7.83,4.32,2,4.86,6.9,1.71,15.22,2.11,7.79-6.42,21.65-8,13-4.72,35.18-17.63,44.93l4.48-5.76c-15.85,4,.16,21.26,2.53,28.26,2.55,7.53,8.48,28.17-3.56,24-2.35,6.07,2.35,10.21-3.24,15.25,15.27,2.59,5.54,15.69.4,23.91-4.13,6.61-5.68,9.86-13.19,13.4-6.66,3.13-20.9-.36-26,5.15-6.32,6.77,3.83,18.52,2.92,29.07-.7,8.07-3.07,26.22-5.92,33.35-1.5,3.75-6.93,4.47-8.59,8.66-2.59,6.54,2.22,17-1.07,23.12-4.05,7.6-16,9.61-23,15.85-18,16-25.17,40-43.74,55.88"/>
      <path id="path5049" class="cls-9" d="M1108.51,746.28c.23,6.75-1.63,13-9,10.44,5.65,8.41-.19,12.41-1.18,18l3.64.63-4,4c5.34,4.81,3.44,10.59-4.58,10.32l4.9,3.11c-3.35.84-3.62,1.28-6.7.75l1.74,2.65-3.19-.71,4.29,4-4.58-1.19c-2.94,3.89-.35,1.51-6.1,4.67,3.69,3.08.62-.45,2.08,3.25,5.3-.22,4-.14,5.75.86l3.92-2.8c3.43,4.81,5.23,20.2-6.76,12.86l1.43,2.1-3.4-.53c2.57,1.26,2.44,2.36,6.61,2.65l-6.85-.78c1.92,2.83-.42,2.31,3.82,4.86l-4.82.89,1.26,3.44c-2.82.72-2.24-.73-3.65,2.34l3.25.51-2.58,4.71c1.87-1.71,3.44-2.08,5.53-4.91a8.84,8.84,0,0,1,8.43,3.47c-7.4.15-6.48,2.21-6.86,6.51"/>
      <path id="path5066" class="cls-9" d="M1529,548.85c-1.91,6.53-.09,11.86-3.05,19.18-3.08,7.59-9.16,10.29-14.76,15.54-5.15,4.83-10.67,7.18-14.89,10.41-5.2,4-16,3.81-13.37,15.11l-3.64-.88c-.13,5.27-3.3,8.42-8.33,8.21l2.94-1.68c.2.09-4.71-2.69-4.23-1.82l.61,2.1c-8.6.5-16-8.45-23.08-2.82,2.66-19.3-21.56-8.08-28.6-5.26-7.75,3.11-35.28,13.44-36.75-2.57-5.45,4.83-12.44-.83-18.34.78-6.13,1.68-9.56,12.23-20.75,7.27-3.43-1.52-4.39-7.54-9-10.48-3.41-2.15-12.9-2-16.71-2.6-10.27-1.6-20-3.44-30-6S1263.12,590,1255,583.15c-.38-.32.17-7.94-1.67-10.16-4-4.83-7.95-3.06-11.41-8.13-5.36-7.84-1.51-17.62-7.94-26.68-3.81-5.37-18.49-13.7-25.13-16-2.22,10.75-.94,15.46,8.49,18.61l-2.81-.53,5.73,1.29c-1.19,5.35,8.85,17.21,11,25.23,2.85,10.9,11.69,20.68,14.57,32.35,2.1,8.52,3.09,20.6-1.33,23.41-9.12,5.8-30-6.79-30.09-17.14-5.89.64-11.74,2.12-12.4,7.78-18-2.14-42,18.17-46.62,34.74-1.43,5.13,2.3,14-.4,18.37-1.8,2.94-9.12,1.43-11,4.15-2.89,4.1-8.46,23.7-7.86,25.45-5.2,3.36-11.09,10.86-13.22,19-2.08,8,5.54,15.91-8.75,17.33-1.67-4.36.84-3.9-5.56-5.13l3.6,1.12-2.44,3.06c3.43,2.69,3,9.49-1.12,15"/>
      <path id="path5068" class="cls-10" d="M709.38,301.83c-19.18-28.73,11.42-40.14,25.77-58.18C744,232.5,746.63,229,747,215.09c.38-12.85-1.59-28.94,2-41.19,4.18-14.24,16.64-21.23,23.37-33.58,4-7.43,2.33-24.56,11.55-26.5,2.64-.56,27.67,12.27,30.72,15,9.58,8.42,4.38,14,19,13.3,26.91-1.36,42.4-21.86,67.38-29.26,13.1-3.88,20.17-3.93,32-10.86,12.85-7.5,21.66-14.29,36.13-15.59,12.28-1.1,24.46,3.48,36.66,3,11.29-.48,21.59-8.43,33.23-6.71,14.78,2.18,12.83,12.61,21.88,21.3,6,5.78,27,18.92,34.68,19.74,6.24.67,13.87-6.69,20-5.59,6.37,1.14,8.41,6.76,13.82,12,8.75,8.44,16.71,16.33,27.14,21.87,22.94,12.2,17.88,1.6,38.26-7.31,5.87-2.57,10.79-.5,16.33-2.6,6.14-2.32,9.51-6.33,14.73-12"/>
      <path id="path5062" class="cls-11" d="M709.38,301.83a183.46,183.46,0,0,0,22.23,3.59c17.45,1.77,10.69,1.21,18.66,13.6,5.78,9,2.44,9.23,15.07,7.51,7-1,16.37-9.51,21.07-5.06,5.84,5.53-1.88,16.42,2.36,22.83s19.77,7.72,26.55,10.92c16.89,8,26.48,10.28,45.82,6.05,13.42-2.93,33.69-10.36,47.14-2.17,5.79,3.53,11,14,14.43,19.84,1.92,3.25,2.55,8.37,5,11.27,2.71,3.16,10.6,4.47,12.48,8.18,6.62,13.06-12.3,35.83,10.47,39.75,8.62,1.48,13.33-3.33,21.22-1,11.93,3.54,13.81,9.29,27.25,9.68,8.87.26,17.13-1.08,26-1.46,15.27-.66,13.92,2.92,16.33-12.54.72-4.62-.21-12.69,2.13-16.8,2-3.57,8.13-4.22,10.37-7.66,4.38-6.74,2.11-18,7.77-24,2.16,3.54,21.3,18.41,25.18,19.05,17.57,2.9,7.11-18.55,18.3-26.63,10.73-7.75,19.38,10.14,28.19,7.27,8.46-2.76,8.37-24.1,18.54-28,14.83-5.72,16.29,9.66,23.27,17.11,10,10.71,12.39,12.59,17.18,28.41,3.92,12.94,6.16,20.15,4.84,33.24-2,19.74-2.75,20.69,15.38,28,11.48,4.6,19.76,9.92,23.55,22.73,3.13,10.59,1.73,19.48,14.41,24.34,10.08,3.87,23-.9,32.93-2.43,13.18-2,23.66-2.29,37-3,9.41-.5,6.12,2.26,11.49-2.92s2.85-18.95,8.52-23.53c5.27-4.26,1.67.2,7.13-1.58,2.5-.82,2,4.73,3.6,4.45,3.8-.65,6.86-5.34,10.63-6.23,9.7-2.28,21.88-3.26,31.08,1.57,15.07,7.92,14.63,16.84,17.45,31.47,7.21,37.43,39.67-3.63,55.93,21.32,5.06,7.77.41,12.41,7.46,18.4,4.33,3.68,11.38,6.25,17.09,5.29,5.28-.88,9.72-8.52,17.38-9,6.22-.38,14.66,3.65,20.75,5.17"/>
      <path id="path5070" class="cls-9" d="M1193.58,205.83c-4.73-1.38-42.51,1.66-44.82,5.31-1.15,1.81,23.71,24.26,6,30.18l2.41,5.49c-2.59-.28-5.4.95-8,.57,2.53,8.29,8.07,11,14.87,4.32,2.92,12.65,15.21,5.92,23.91,9.63,6.34,2.71,9.05,14.77,15.69,11-.57,6-6.37,22.05-5.16,25.86.61,1.92,8.08,1.7,9.26,3.44.62.92-1.48,3.9-.8,4.75,3.09,3.81,5,9.54,8.74,12.7,8.16,6.94,21.42,7.68,31.21,10.15,3.37.85,3.69-4.07,8.11-.09,7.85,7.07-2,8.35.82,15,3.69,8.79,16.1,21,23.24,27,3.22,2.71,9.5,5.87,13.17,8.47,5.68,4,11.16,9.2,17.24,12.57a357.77,357.77,0,0,0,44.1,20.2l-5.11,3.3c5,.92,7.7.76,11.5-.78l-.81,2.54c.59,1.05,1.87,1,.14,6.47l2.77-1.45c.75,6.4-6.06,7.85-11.53,10.06a19.83,19.83,0,0,0,14.19-1.62l-3.48,1.69c7,1.17,4.33,4.23-1.59,7.53,3.34.09,2.76,1.56,7.07.58l.41,5.51c.25.13,1.51-.53,3.79,1.77,1.22-2.62,3.12-5,4.2-7.67l2.77,1.74c-3.65,6.27-4.58,5.58-1.28,10.27-.09-6.12,2-8.51,6.85-4.8l-4,3.11c4.37,1.07,1.84,1.13,4.17-1.53l2.09,2.47c3.52-4.17.91-3.38,5.95-1.66l-3.37,1.46c2.49.85,3.08-1.15,2.54,2.07,4-1.37,1.4-.32,3.33.12l1.14-2.37.22,2.28c6,1.91,2.34-3.78,5.37,2,.28-12.71,10.72,2.36,15.68,6.18,7.66,5.91,16.23,10.35,23.39,16.17,9.49,7.72,43.12,35.64,11.23,34.56,6.92,1,13.2,3.71,15.77-.35l4,6c-3.84-.49-.49-1.12-3.33.56,6.45,4.1,12.3,7.51,15.94,12.85,7.77,11.41-2.61,8.13,9.08,9.39,5.13.55,14.65-3.38,22.69-.81,5.27,1.69,9.14,6.89,13.72,8.83M1226,130c4.25,4.8,10.61,6.48,13.06,9.52,1.8,2.23,4.63,15,5.7,15.84,7.21,5.64,6.65-3.55,8.43-2.41,6.1,3.92,8.37,12.41,9.23,19.1l2.5-3.39c1.63,5.19,2.66,5.2-.28,10.85,8.16-.28-2.75,6.38-2,11.06-4.51,1.53-5.67,3.69-9.23,6.86-8,7.14-6.55,5.45-14.26,8.48-12.3,4.85-18.2,7.31-27-3.54-4.29,6.95-11.07,4-18.62,3.43"/>
    </g>
    <text class="cls-12" transform="translate(1272.61 1084.95)">MAKASSAR STRAIT</text>
    <text class="cls-13" transform="translate(1165.26 1556.36)"><tspan class="cls-14">K</tspan><tspan x="18.29" y="0">J7 </tspan><tspan class="cls-15" x="55.96" y="0">F</tspan><tspan x="71.04" y="0">o</tspan><tspan class="cls-16" x="87.46" y="0">r</tspan><tspan x="97.36" y="0">est</tspan></text>
    <text class="cls-13" transform="translate(1165.26 1483.64)">BOS</text>
    <circle class="cls-17" cx="1039" cy="244.55" r="8.86"/>
    <circle class="cls-17" cx="1124.9" cy="676.17" r="8.86"/>
    <text class="cls-12" transform="translate(984.46 224.22)">BERAU</text>
    <text class="cls-12" transform="translate(1006.67 646.88)">SANG<tspan class="cls-18" x="73.65" y="0">A</tspan><tspan x="88.58" y="0">T</tspan><tspan class="cls-18" x="105.12" y="0">T</tspan><tspan x="118.93" y="0">A</tspan></text>
    <circle class="cls-17" cx="1078.9" cy="792.38" r="8.86"/>
    <text class="cls-12" transform="translate(975.67 783.09)">BON<tspan class="cls-18" x="57.23" y="0">T</tspan><tspan x="71.04" y="0">ANG</tspan></text>
    <circle class="cls-17" cx="937.78" cy="957.71" r="8.86"/>
    <circle class="cls-17" cx="853.08" cy="1240.31" r="8.86"/>
    <circle class="cls-17" cx="687.74" cy="1461.65" r="8.86"/>
    <circle class="cls-17" cx="906.23" cy="1213.92" r="8.86"/>
    <circle class="cls-17" cx="545.78" cy="883.23" r="8.86"/>
    <text class="cls-12" transform="translate(863.72 1050.6)">SAMARIN<tspan class="cls-19" x="118" y="0">D</tspan><tspan x="136.58" y="0">A</tspan></text>
    <text class="cls-12" transform="translate(505.55 924.07)">SEN<tspan class="cls-19" x="51.67" y="0">D</tspan><tspan class="cls-20" x="70.25" y="0">AW</tspan><tspan x="110.22" y="0">AR</tspan></text>
    <text class="cls-12" transform="translate(790.27 942.43)">TENGGARANG</text>
    <circle class="cls-17" cx="470.18" cy="738.45" r="8.86"/>
    <text class="cls-12" transform="translate(389.88 716.9)">UJOH<tspan class="cls-21" x="73.42" y="0"> </tspan><tspan x="73.42" y="0">_</tspan><tspan class="cls-21" x="84.74" y="0" xml:space="preserve">             </tspan><tspan x="84.74" y="0">BILANG</tspan></text>
    <text class="cls-22" transform="translate(623.97 712.06)">EA<tspan class="cls-23" x="46.21" y="0">S</tspan><tspan x="69.12" y="0">T </tspan><tspan class="cls-24" x="101.02" y="0">	</tspan><tspan x="116.87" y="0">KALIMAN</tspan><tspan class="cls-25" x="277.88" y="0">T</tspan><tspan x="296.95" y="0">AN</tspan></text>
    <text class="cls-12" transform="translate(773.55 1200.73)">BALIK<tspan class="cls-26" x="73.04" y="0">P</tspan><tspan x="88.12" y="0">A</tspan><tspan class="cls-26" x="105.78" y="0">P</tspan><tspan x="120.86" y="0">AN</tspan></text>
    <text class="cls-12" transform="translate(853.84 1286.73)">PENAJAM</text>
    <text class="cls-12" transform="translate(607.18 1439.4)"><tspan class="cls-18">T</tspan><tspan x="13.81" y="0">ANAH</tspan><tspan class="cls-21" x="88.29" y="0" xml:space="preserve">           </tspan><tspan x="88.29" y="0">GROG</tspan><tspan class="cls-27" x="165.25" y="0">O</tspan><tspan x="184.5" y="0">T</tspan></text>
    <circle class="cls-17" cx="899.35" cy="544.53" r="6.26"/>
    <text class="cls-12" transform="translate(884.47 526.84)">MUARA<tspan class="cls-21" x="95.01" y="0" xml:space="preserve">         </tspan><tspan x="95.01" y="0">_</tspan><tspan class="cls-21" x="106.33" y="0" xml:space="preserve">    </tspan><tspan class="cls-20" x="106.33" y="0">W</tspan><tspan x="130.42" y="0">AHAU</tspan></text>
    <text class="cls-12" transform="translate(709.38 381.52)">P<tspan class="cls-28" x="16.58" y="0">T</tspan><tspan x="31.21" y="0">.</tspan><tspan class="cls-21" x="38.32" y="0"> </tspan><tspan x="38.32" y="0">RHOI</tspan></text>
    <text class="cls-12" transform="translate(798.89 459.24)">PELANGSIRAN</text>
    <rect class="cls-17" x="979.61" y="986.19" width="14.54" height="14.54"/>
  </g>
  <path d="M1636.55,8.61V1636.55H3.2V8.61H1636.55m5-5H-1.8V1641.55H1641.55V3.61Z"/>
  <path class="cls-29" d="M695,414c-.4-1.87-.71-3.77-1.22-5.61-1.5-5.44-6-2.07-9-2.81-1.52-.37-3.41,1-4.91-.61l-1-7.21.79-.81c5-1.34,2.54-6.16,4.21-9.05l0,.07c5.06.62,10.11,1.26,15.18,1.84,3.16.36,6.27.37,8.87-1.93.83-1.78,3.19-.24,4.08-1.89l2-.07v0c-.14,1.49.58,2.14,2,2.06l-.09-.06c-.78,4.13,4.53,2.79,5.05,5.55.82,4.3,4.19,2.79,6.69,3.06A18.36,18.36,0,0,0,732,396l-.06-.05c-.74,4.36,1.54,8.52.86,12.88-3.59,1.22-4,3.74-2.24,6.56.9,1.42.88,2.19,0,3.45-1.34,1.9-.85,12.89.86,14,3.37,2.14,6.87,5.13,11.22,2.93,3.9-2,7.27,2.9,11,.4,2.28,3.34,6,3.4,9.41,4.4,6.17,1.8,11.71,4.36,16.14,9.8,2.78,3.4,3.4,8.73,8.51,10.33,2.39.75,5.37-.32,7.18,2.24-2.31,0-4.32,1.17-6.68,1.3-9.59.54-18.85,3.21-28.23,5.08-.86.17-3.24,0-2.45,2.94,3.74,14.24,7.1,28.57,10.6,42.87-.52,1.18.59,1.89.84,2.85-2.94-.06-5.88-.08-8.82-.18-1.66-.06-3.47-.34-3.92-2.19-1.14-4.73-4.34-6.24-8.77-6.11-.4-3.34-4.82-4.74-4.16-8.59l-.21,0c.1-3.79,3.41-5.76,4.94-8.74,1.16-.4,2.15-1.08,1.86-2.43-1-4.43-1-9.39-6-11.7-.5-5.58,3.23-9.36,5.81-13.62,2.29-3.77,2-9.37-.87-12.25-3.16-3.18-6-.49-8.66.94-4,2.13-7.7,4.9-11.83,6.71-2.95,1.29-4.13,3-3.54,5.9,1,4.77,2.25,9.44,2.29,14.4,0,1.6,1.71,3.14,3.55,4.31,3.17,2,6.84,3.77,8.36,7.68l-1,6.85q0,3.07,0,6.14L734.87,509c-2.14.09-3.31,2-5,2.83-2.56,1.31-4.4,3.73-8.06,1.51-2.11-1.28-5.28.62-8.06.81-11.34.76-21.77,4-30.95,11.38-4.14,3.31-9.7,3.45-14.76.66,0-.94-.22-1.77-1.24-2.12-1.47-4.58-5.44-9.2,1.44-13.21,2.28-1.33,2.33-5.07,2.44-7.62.13-3.22,1.81-4.25,4.13-5.24,2.82-.89,4.68-1,5.39,3,.8,4.48,4.09,4.68,7.7.88,2-4.53,6-6.91,10.4-8.13,2.93-.82,4.75-3.3,7.74-3.85,1.79-.33.92-2.08.78-3.28-.24-2.18-3-3-2.9-5.4l-1.05-10.29,0,.07H708l0-.06a1.72,1.72,0,0,0,1.68,2.18c1,1.23,2.65,1.59,3.06.13.62-2.22,1.49-5-.93-6.81-5.17-3.85-7.19-9.9-10.7-14.89-.4-.56-.14-1.59-.18-2.4-.79-5.39-2.54-10.65-2-16.2l-.06.11c1.52-.95,2-2.61,2.55-4.1,1.78-4.78.49-10.39-2.56-11.86l.1.07-1.14-1.1C695.79,416.82,696.14,414.41,695,414Zm17.92-4.95c-.45.14-2.54-.9-2.69.62s-2,2.83-.27,4.92c6.81,8.18,4.21,17.27,1.57,26.06a17.3,17.3,0,0,0-.62,6.75c.27,3,1.69,4.17,5,3.4,4.71-1.09,7.51-5.08,11.59-6.9,4.33-1.93,4-4.41,1.94-7.67-4.44-7.14-8.63-14.38-10.62-22.7C718.27,411,717.34,408.27,712.94,409.06Z"/>
  <rect class="cls-29" x="1108.51" y="1519.46" width="38.91" height="38.91"/>
  <polygon class="cls-30" points="790.25 464.42 769.76 464.42 769.76 443.93 780.01 433.24 790.25 443.93 790.25 464.42"/>
  <polygon class="cls-30" points="847.52 531.06 827.02 531.06 827.02 510.56 837.27 499.87 847.52 510.56 847.52 531.06"/>
  <polygon class="cls-30" points="862.48 546.65 841.99 546.65 841.99 526.16 852.23 515.47 862.48 526.16 862.48 546.65"/>
  <polygon class="cls-30" points="879 562.24 858.51 562.24 858.51 541.75 868.75 531.06 879 541.75 879 562.24"/>
  <polygon class="cls-30" points="1138.21 1486.1 1117.72 1486.1 1117.72 1465.6 1127.96 1454.91 1138.21 1465.6 1138.21 1486.1"/>
</svg>
