<svg id="Layer_1" data-name="Layer 1" xmlns="http://www.w3.org/2000/svg" viewBox="30 0 780.66 444.31">
  <defs>
    <style>
      .cls-1 {
        fill: #939598;
      }

      .cls-1, .cls-13, .cls-14, .cls-2, .cls-3 {
        fill-rule: evenodd;
      }

      .cls-2 {
        fill: #bcbec0;
      }

      .cls-3 {
        fill: #e7d78f;
      }

      .cls-13, .cls-14, .cls-16, .cls-4 {
        fill: none;
      }

      .cls-4 {
        stroke: #fff;
      }

      .cls-13, .cls-14, .cls-4 {
        stroke-miterlimit: 2.61;
        stroke-width: 1px;
      }

      .cls-5 {
        font-size: 10px;
      }

      .cls-18, .cls-5 {
        fill: #77696e;
        font-family: -apple-system, BlinkMacSystemFont, "Segoe UI", "Roboto", "Oxygen", "Ubuntu", "Cantarell", "Fira Sans", "Droid Sans", "Helvetica Neue", sans-serif;
      }

      .cls-6 {
        letter-spacing: -0.01em;
      }

      .cls-7 {
        letter-spacing: -0.04em;
      }

      .cls-8 {
        letter-spacing: -0.01em;
      }

      .cls-9 {
        letter-spacing: 0em;
      }

      .cls-10 {
        letter-spacing: -0.09em;
      }

      .cls-11 {
        letter-spacing: -0.1em;
      }

      .cls-12 {
        letter-spacing: -0.02em;
      }

      .cls-13 {
        stroke: #231f20;
      }

      .cls-13, .cls-14 {
        stroke-dasharray: 1 3;
      }

      .cls-14 {
        stroke: #6d6e71;
      }

      .cls-15 {
        letter-spacing: 1.65em;
      }

      .cls-16 {
        stroke: #000;
        stroke-miterlimit: 10;
        stroke-width: 2px;
      }

      .cls-17 {
        fill: #f04e27;
      }

      .cls-18 {
        font-size: 12px;
        letter-spacing: 0.01em;
      }
    </style>
  </defs>
  <g>
    <g>
      <path class="cls-1" d="M519,341.62l2.47,2.86,3.47-1.78,3-.47.24-4.23-2.1.61-4.43.48L519,341.62Zm13.41-5.12,3.42,3.84,4,3.68.52-.22,3.06-3,2.7-.83,3.06.24,6.85-1.25,4.68-2.85,4.8-1.36,1.26-2,1.86-.3,3.3-2.14L572,329l-1.56-1.54L564.16,329l-3.95-.24-3.71.83h-3.35l-4.55.71-6.94-.36-5.27,4.62Z"/>
      <polygon class="cls-2" points="285.05 149.66 288.42 155.67 293.76 159.41 294.3 160.78 298.08 164.28 299.45 167.01 301.91 167.31 306.71 166 307.25 164.1 311.39 164.4 313.72 163.21 322.84 163.69 332.07 160 334.53 157.86 342.59 157.62 346.78 159.63 348.1 161.65 352.05 161.53 358.87 157.86 366.76 156.67 366.29 154.19 372.87 144.36 375.5 137.37 380.53 129.91 384.12 117.24 384.12 114.75 385.79 111.91 385.55 109.78 389.02 105.63 391.78 106.82 397.04 106.34 404.34 106.46 406.14 107.77 410.8 107.65 414.4 108.71 414.69 107.24 418.64 109.85 421.4 110.56 424.87 108.78 429.18 107.95 429.18 106.06 424.75 102.39 424.75 98.12 426.78 96.7 433.48 97.3 438.99 95.99 442.46 93.39 441.74 90.78 439.11 90.78 435.28 90.07 432.4 87.47 429.53 87.71 425.46 83.8 423.19 83.8 420.56 86.28 419 84.86 422.59 81.78 420.8 79.65 419.36 80.13 417.09 83.2 415.65 81.43 414.33 80.84 414.45 75.98 417.33 74.92 417.21 72.79 413.26 70.18 411.82 71.13 408.71 68.28 408.59 63.78 405.24 61.65 403.69 62.6 404.64 65.56 401.05 69 399.62 68.76 400.69 65.8 400.1 63.07 397.94 62.96 395.67 70.3 393.27 70.89 389.81 78.82 389.21 83.09 383.22 89.36 380.35 89.36 375.56 91.14 373.89 93.27 375.68 93.15 374.49 94.93 376.04 95.52 379.87 94.45 378.32 96.82 375.68 98.12 375.22 98.75 375.54 100.05 377.57 105.75 376.14 108.55 373.92 107.3 373.62 103.2 372.92 100.24 372.33 100.38 372.38 99.69 370.92 99.87 369.12 102.55 370.26 109.85 368.52 110.69 365.29 108.19 362.41 103.38 360.67 103.2 358.16 102.1 355.94 104.91 355.82 108.78 351.51 112.45 349.95 115.77 345.29 120.15 344.21 123.11 340.14 128.08 335.71 131.87 322.19 135.07 320.7 135.78 321.62 140.04 323.21 141.8 321.14 141.03 318.81 142.24 314.89 142.72 313.05 144.92 311.96 148.33 311.9 153.07 309.03 156.97 309.15 158.28 302.57 157.45 295.75 154.96 290.96 155.08 289.16 152.48 286.29 149.28 285.05 149.66"/>
    </g>
    <g>
      <polygon class="cls-3" points="43.04 86.22 45.43 85.04 52.25 85.98 59.91 91.19 62.3 92.74 67.21 91.43 71.4 91.55 73.19 92.74 75.47 91.91 78.94 91.91 82.77 93.33 85.16 97.59 86.6 98.06 88.51 102.09 91.86 103.86 92.7 109.08 93.78 111.56 97.73 112.16 101.67 116.53 104.91 116.89 114.48 123.17 115.8 125.42 119.39 126.13 122.38 129.92 122.62 134.77 124.29 137.14 126.56 134.89 127.52 139.27 129.44 140.57 130.28 139.03 134.22 139.27 140.45 142.71 145.23 147.44 146.01 153.52 148.71 155.6 150.86 154.94 153.14 155.42 160.09 162.19 160.63 166.47 160.63 168.67 164.77 172.06 170.59 171.88 174.36 173.66 175.14 175.74 173.53 178 171.97 178.41 170.41 179.84 168.01 180.31 172.21 180.08 175.62 178 179.46 175.44 182.4 175.8 187.49 181.38 188.45 184.77 183.53 185.54 179.58 188.45 177 190.77 180.6 189.46 182.58 190.23 186.17 189.7 188.69 191.01 184.84 193.15 181.49 194.69 181.37 197.41 187 201.2 193.46 201.32 195.13 202.86 199.08 201.32 199.56 209.37 200.88 212.92 199.32 216.12 201.48 214.82 203.87 218.01 204.35 222.87 207.58 223.34 212.6 222.75 215.72 224.05 216.67 226.66 218.71 227.73 220.02 231.51 223.02 233.88 225.53 235.07 226.01 238.14 224.69 240.51 221.7 241.81 221.46 247.03 222.9 249.51 220.14 256.02 221.94 262.06 220.26 271.06 220.62 278.4 218.35 280.65 216.44 279.83 213.44 275.21 210.69 274.62 209.38 276.87 209.25 281.13 207.94 282.19 201.48 276.27 198.48 275.68 198.48 277.46 199.44 279.12 199.44 282.31 198.25 283.73 195.97 279.94 193.82 279 192.98 275.56 183.17 267.04 178.38 265.73 176.71 262.18 169.29 257.56 164.98 252.83 161.39 250.58 160.79 245.84 156.72 243.24 155.04 241.34 150.38 240.39 148.7 236.37 142.6 228.91 136.62 224.41 135.06 220.26 135.42 215.65 129.2 204.28 128.48 196.23 124.65 193.38 120.58 186.28 120.58 183.44 115.68 180.12 111.37 178.82 109.81 174.08 106.46 165.32 106.62 164.27 105 160.11 102.9 157.79 104.22 155.48 103.62 153.75 101.64 154.05 99.36 152.74 94.93 147.22 91.45 147.28 89.35 145.38 88.75 141.16 87.19 139.86 87.19 135.6 85.52 135.6 79.66 130.04 73.79 120.8 68.41 116.3 66.25 117.13 63.74 116.18 59.31 110.73 57.16 110.73 49.98 102.92 47.35 101.73 43.19 92.79 42.35 87.98 43.04 86.22"/>
      <polygon class="cls-3" points="52.54 132.42 51.22 133.79 50.27 135.81 53.44 137.77 57.34 137.24 55.06 134.21 52.54 132.42"/>
      <polygon class="cls-3" points="75.14 146.86 79.04 148.11 77.6 146.03 75.14 146.86"/>
      <polygon class="cls-3" points="75.32 159.34 78.56 159.22 80.18 157.5 82.34 158.27 84.8 162.9 88.64 165.87 87.61 168.19 86.92 172.48 85.46 173.16 82.31 167.4 79.97 166.81 79.13 163.15 75.32 159.34"/>
      <polygon class="cls-3" points="99.06 181.5 102.96 181.56 104.4 182.57 104.76 180.43 100.86 179.07 99.06 181.5"/>
      <polygon class="cls-3" points="96.85 190.41 95.17 193.98 97.15 196.24 99.48 193.92 99.43 191.54 96.85 190.41"/>
      <polygon class="cls-3" points="99.04 202.62 99.04 205.23 102.63 206.53 106.94 212.92 111.13 214.22 111.13 208.07 106.22 201.08 102.51 199.9 99.04 202.62"/>
      <polygon class="cls-3" points="117.11 217.54 115.44 219.44 117.35 221.92 121.06 223.11 117.11 217.54"/>
      <polygon class="cls-3" points="123.22 227.96 123.69 231.51 126.21 229.26 123.22 227.96"/>
      <polygon class="cls-3" points="128.12 231.16 125.97 234.12 132.07 239.68 131.35 236.49 131.59 233.76 128.12 231.16"/>
      <polygon class="cls-3" points="158.84 272.53 163.03 275.56 162.97 273.24 160.87 271.69 158.84 272.53"/>
      <polygon class="cls-3" points="147.32 149.42 149.13 154.35 152.12 153.87 155.12 150.49 152.18 147.16 150.14 148.88 147.32 149.42"/>
      <polygon class="cls-3" points="158.78 157.44 162.91 163.5 164.53 164.93 166.63 161.36 164.83 158.86 160.51 157.32 158.78 157.44"/>
      <polygon class="cls-3" points="168.19 162.49 165.73 166.59 166.33 169.68 172.03 170.33 175.92 172.23 177.18 171.16 176.1 166.41 172.45 163.32 168.19 162.49"/>
      <polygon class="cls-3" points="209.91 293.74 210.28 295.4 211.47 295.28 211.59 293.74 209.91 293.74"/>
      <polygon class="cls-3" points="212.37 296.06 213.69 297.42 216.21 296.53 216.51 293.2 219.99 292.73 221.54 289.34 221.3 285.89 224.66 282.03 226.16 283.52 230.06 283.46 235.39 284.29 237.91 286.31 239.29 285.12 240.79 283.46 245.88 283.76 249.12 286.31 255.06 287.74 262.31 288.51 264.23 291.95 263.63 295.16 264.95 296.53 270.65 299.08 280.66 298.91 289.53 300.33 297.08 299.08 299.12 296.41 300.08 289.94 303.2 289.76 307.27 294.04 309.91 293.98 312.91 293.44 315.19 294.81 318.67 297.84 321.54 297.66 323.88 300.21 326.04 299.14 330.48 299.2 330.66 303.6 333.83 307.76 334.07 310.2 336.35 312.75 340.07 314.48 343.66 313.17 346.24 314.71 348.94 314.59 351.1 313.23 353.8 313.17 354.57 314.24 357.45 314.71 359.31 316.73 358.29 323.92 356.62 326 358.47 327.25 359.43 332.18 357.45 332.77 355 330.28 351.28 330.69 347.02 327.19 343.61 326.3 340.43 322.97 337.91 322.91 333.18 325.35 328.2 325.53 324.01 323.16 319.35 322.22 315.52 325.41 311.33 322.45 305.59 322.1 302.12 323.99 293.38 320.68 285.36 315.7 280.1 315.82 276.15 313.1 273.76 313.22 271.72 315.58 268.61 315 266.1 312.39 263.81 312.57 260.81 316.02 253.44 313.94 248.28 310.08 243.25 309.72 240.97 308.53 237.91 310.32 234.01 308.95 229.64 308.24 228.14 306.81 230.42 302.71 231.86 301.34 229.52 301.23 227.54 302.29 225.32 300.93 223.82 298.07 220.22 299.5 213.51 299.38 211.35 298.14 211.23 296.23 212.37 296.06"/>
      <polygon class="cls-3" points="255.48 111.27 258.77 114.42 260.63 114.42 259.91 116.97 262.37 116.97 263.75 112.34 259.97 107.29 257.15 108.95 255.48 111.27"/>
      <polygon class="cls-3" points="227.84 131.35 227.78 134.03 229.58 133.08 227.84 131.35"/>
      <polygon class="cls-3" points="227.78 124.46 229.58 122.56 227.54 121.61 227.78 124.46"/>
      <polygon class="cls-3" points="228.2 125.95 227.18 127.91 229.4 128.21 228.2 125.95"/>
      <polygon class="cls-3" points="217.8 129.05 217.44 131.9 219.24 133 222.47 129.58 219.78 128.54 217.8 129.05"/>
      <polygon class="cls-3" points="197.44 162.13 195.94 165.46 199.48 166.41 200.5 170.51 202.66 169.74 203.68 164.75 202.06 163.02 203.38 160.47 201.58 160.88 200.02 162.31 197.44 162.13"/>
      <polygon class="cls-3" points="249.3 226.64 250.5 229.49 250.32 231.1 246.94 231.9 245.82 233.56 248.46 233.68 248.37 232.61 250.56 231.51 250.47 236.18 252.99 238.7 255.81 234.39 257.54 236.98 260.09 237.48 261.08 235.17 263.63 233.98 262.1 230.71 256.56 227.18 250.98 226.13 249.3 226.64"/>
      <polygon class="cls-3" points="238.57 232.84 238.09 235.63 240.07 233.91 238.57 232.84"/>
      <polygon class="cls-3" points="214.71 211.8 214.65 214.48 211.53 216.85 213.57 219.53 219.63 219.94 221.25 221.55 221.37 224.81 223.22 226 224.24 230.4 227.96 232.78 231.26 232.36 232.34 235.63 233.9 236.94 235.57 234.5 234.44 231.17 236.17 227.13 230.72 225.89 227.18 222.02 225.86 214.6 224.54 213.41 224.12 210.61 221.72 209.49 219.63 209.49 219.93 212.4 221.13 214.54 217.95 213.47 215.79 211.21 214.71 211.8"/>
      <polygon class="cls-3" points="198.71 191.6 197.03 193.8 199.72 196.35 202.6 194.69 201.52 191.6 198.71 191.6"/>
      <polygon class="cls-3" points="201.34 184.47 199.54 187.68 201.22 189.7 203.92 188.81 207.76 190.83 209.08 189.76 204.04 185.13 201.34 184.47"/>
      <polygon class="cls-3" points="189.29 165.22 192.83 166.35 194.45 163.14 193.79 160.82 189.29 165.22"/>
      <polygon class="cls-3" points="123.23 85.79 123.83 89.18 125.63 91.61 126.95 90.72 126.35 88.47 124.61 86.15 123.23 85.79"/>
      <polygon class="cls-1" points="372.92 100.24 373.62 103.2 373.92 107.3 376.14 108.55 377.57 105.75 375.54 100.05 375.22 98.75 374.37 99.9 372.92 100.24"/>
      <polygon class="cls-1" points="358.16 102.1 360.67 103.2 362.41 103.38 365.29 108.19 368.52 110.69 370.26 109.85 369.12 102.55 370.92 99.87 372.38 99.69 372.45 98.48 372.21 95.17 368.98 96.35 365.03 99.31 358.94 101.12 358.16 102.1"/>
      <polygon class="cls-3" points="807.62 227.03 805.53 288.72 804.57 293.38 804.51 296.03 805.24 297.39 803.89 337.34 802.9 337.33 798.83 335.9 794.19 330.95 793.12 328.57 793.24 327.5 789.88 324.53 788.32 323.58 787.72 321.02 789.22 318.65 789.1 314.96 788.32 318.59 786.16 319.95 781.18 319.6 778.37 321.08 776.03 321.02 774.59 319.6 770.69 321.68 768.65 319.36 770.15 318.41 771.17 315.85 771.17 313.95 771.95 312.88 772.55 308.67 770.45 307.83 768.59 305.46 770.39 305.04 771.89 305.51 775.19 304.21 777.29 303.97 774.89 303.32 771.23 303.85 768.29 302.49 765.54 300.41 766.38 298.27 767.93 298.09 770.51 298.39 769.13 296.72 764.82 293.63 761.94 291.67 761.01 289.6 761.85 286.16 758.14 282.37 758.14 280.95 761.49 278.23 758.38 278.46 756.46 277.16 757.18 275.98 755.86 274.44 758.26 272.55 754.43 273.25 753.35 271.95 751.55 272.66 750.24 271.71 752.99 268.52 750.6 269.94 747.61 270.06 743.18 268.28 741.98 265.2 737.43 263.66 734.56 264.14 724.75 261.06 714.58 257.98 709.61 257.67 705.64 255.83 704.86 254.4 704.44 253.1 700.9 252.33 701.08 249.95 703.48 249.6 704.8 249.95 704.62 249.18 702.16 248.77 699.34 249.89 697.12 249.06 696.04 247.7 695.08 247.4 693.63 249.06 693.03 245.8 691.71 244.91 690.45 245.5 689.61 246.87 687.75 244.85 686.73 240.82 685.26 237.38 687.29 234.77 687.29 230.86 685.62 234.06 684.3 237.61 683.82 240.1 682.39 240.81 679.88 245.31 680.23 248.03 676.88 252.18 673.53 252.89 670.54 251.94 668.03 246.38 668.15 244.36 669.58 243.77 669.94 241.52 669.47 239.27 667.43 239.98 666.23 238.8 664.56 234.77 661.57 233.23 657.74 232.64 656.54 230.98 658.57 228.49 662.52 228.14 663.84 229.44 667.31 229.8 669.82 231.1 673.05 229.21 674.13 225.3 676.64 224.47 681.79 226.84 683.82 229.8 685.26 226.6 687.05 224.23 688.73 224.82 689.21 221.27 688.25 219.14 679.88 218.19 681.07 219.85 679.04 220.33 677.36 219.85 672.22 220.92 670.18 220.21 668.27 221.15 666.23 219.97 663.24 220.68 660.13 220.21 656.66 217.37 655.7 213.57 656.42 212.63 654.62 209.55 649.96 206.94 648.16 205.05 647.21 206.35 644.57 207.77 640.74 207.18 641.34 205.17 645.29 202.68 645.65 200.31 644.45 198.18 646.97 196.05 651.51 195.93 653.79 193.8 656.42 193.09 660.73 189.78 662.04 188.59 667.31 187.53 675.81 190.72 681.07 194.28 686.46 194.04 691.96 194.51 693.28 195.93 692.2 197.71 692.2 201.74 695.07 204.1 696.15 207.06 694.11 210.02 692.32 213.1 693.52 217.48 693.76 225.06 695.91 228.73 697.83 231.1 699.14 231.22 698.78 227.07 700.34 225.42 702.25 226.6 702.13 229.92 703.21 233.11 704.29 232.4 705.36 235.36 709.07 238.32 710.99 240.34 713.74 240.34 716.97 238.91 717.81 235.96 719.6 234.53 721.47 233.86 721.47 229.76 723.57 226.37 726.81 226.08 729.99 224.24 730.35 221.2 731.54 219.48 733.04 220.19 735.08 220.02 738.14 218.89 742.94 218.29 743.6 215.92 742.04 213.01 742.64 211.4 750.91 206.59 754.81 206.94 757.5 209.44 762.54 211.64 768.47 212.95 771.59 215.56 774.95 215.86 779.14 217.05 788.74 221.38 791.2 220.91 793.47 221.27 797.61 222.28 800.61 222.16 803.07 223.88 802.59 225.31 802.71 227.09 804.8 227.8 807.56 227.03 807.62 227.03"/>
      <polygon class="cls-3" points="609.87 181.38 616.18 184.52 616.65 186.18 612.15 183.75 609.87 181.38"/>
      <polygon class="cls-3" points="643.02 188.02 638.21 185.35 637.07 186 637.49 186.72 640.19 187.79 640.25 189.15 637.49 189.56 634.43 188.2 629.63 187.49 631.91 186.84 630.83 185.71 631.85 185.12 635.15 185.06 637.67 183.16 643.26 183.16 647.28 185.59 647.88 187.84 645.12 188.79 643.02 188.02"/>
      <polygon class="cls-3" points="637.61 197.81 634.19 196.57 631.07 197.22 633.65 198.58 637.61 197.81"/>
      <polygon class="cls-3" points="640.01 195.44 637.31 195.85 638.75 197.4 640.01 195.44"/>
      <polygon class="cls-3" points="639.47 197.87 636.05 200.3 636.11 204.75 639.65 205.52 641.21 204.39 642.06 198.82 639.47 197.87"/>
      <polygon class="cls-3" points="546.81 117.66 550.16 121.45 551.23 124.89 549.8 126.54 546.81 123.94 546.21 119.8 546.81 117.66"/>
      <polygon class="cls-3" points="567.06 105.8 568.26 109.78 568.62 112.86 570.3 112.15 571.62 109.24 570.84 106.16 568.62 104.73 567.06 105.8"/>
      <path class="cls-3" d="M567.06,113.81l1.8.48,1,3.08h-1.26S567.06,113.87,567.06,113.81Z"/>
      <polygon class="cls-3" points="593.72 144.24 594.74 149.46 596.6 147.86 599.06 148.04 601.46 145.72 600.5 143.17 598.34 141.81 596.24 143.35 593.72 144.24"/>
      <polygon class="cls-3" points="590.61 188.23 587.85 182.91 587.85 176.75 590.24 175.92 594.08 177.1 598.38 177.22 600.65 179 603.89 178.76 602.33 177.46 601.73 175.09 597.55 172.13 595.39 171.9 594.08 169.65 596.23 167.16 602.21 165.15 604.72 159.34 604.49 156.97 602.57 154.96 597.3 156.86 592.28 159.34 591.92 161.59 593.6 161.71 592.16 163.37 589.29 164.67 588.21 167.28 586.3 167.63 584.86 164.91 587.25 162.54 589.89 162.42 591.2 158.28 591.2 153.3 588.33 152.12 587.73 150.34 590.24 147.5 590.61 144.9 588.93 145.37 583.9 150.23 582.83 154.96 583.18 159.11 581.15 160.65 580.07 164.79 581.75 166.92 583.66 170.36 582.35 172.49 581.75 175.8 584.98 178.41 584.5 180.42 585.1 182.32 583.78 185.75 585.94 189.42 589.41 191.55 592.04 196.88 594.91 198.06 595.63 200.67 595.87 198.66 597.18 198.18 596.23 196.64 591.92 192.85 590.61 188.23"/>
      <polygon class="cls-3" points="577.27 195.61 578.47 198.05 575.04 197.04 576.25 194.84 577.27 195.61"/>
      <polygon class="cls-3" points="577.15 189.03 575.28 188.97 574.26 192.18 576.31 192.94 577.21 190.75 577.15 189.03"/>
      <polygon class="cls-3" points="579.91 190.87 582.19 190.46 584.05 191.76 583.87 194.19 586.21 195.2 587.05 196.57 585.55 198.11 583.75 196.45 580.93 196.5 579.13 193.78 578.89 191.82 579.91 190.87"/>
      <polygon class="cls-3" points="579.37 209.97 583.99 206.53 588.01 206.71 592.1 210.8 591.14 212.7 589.1 212.7 586.33 212.7 584.11 213.12 581.23 211.93 579.37 209.97"/>
      <polygon class="cls-3" points="627.28 211.45 621.16 212.94 619 214.36 620.44 215.72 625.72 217.44 630.29 216.08 628.97 215.37 628.73 212.88 627.28 211.45"/>
      <polygon class="cls-3" points="598.7 243.55 600.56 243.25 600.68 244.5 599.42 244.85 598.7 243.55"/>
      <polygon class="cls-3" points="595.58 243.79 597.26 243.79 597.56 245.27 595.94 245.27 595.58 243.79"/>
      <polygon class="cls-3" points="587.05 245.45 590.96 244.26 592.58 243.07 594.32 243.9 592.34 247.4 591.74 245.86 589.28 247.34 587.05 245.45"/>
      <polygon class="cls-3" points="585.85 235.42 583.93 237.14 585.79 237.44 585.85 235.42"/>
      <polygon class="cls-3" points="589.4 232.04 586.51 232.22 587.17 233.64 588.86 233.52 589.4 232.04"/>
      <polygon class="cls-3" points="590.24 241.28 593.24 236.55 595.75 239.27 597.18 241.4 600.18 241.16 603.29 238.09 605.32 238.09 607.12 241.16 614.3 241.99 615.85 239.86 619.2 239.86 625.79 243.77 628.78 244.36 632.37 248.15 635.84 248.15 637.15 245.19 635.6 239.03 627.34 234.42 620.52 233.11 617.17 230.39 613.58 230.04 610.59 232.64 607.12 232.28 604.72 231.34 599.82 231.69 593 231.57 591.56 233.47 591.32 235.36 588.57 236.31 587.49 239.15 588.33 241.28 590.24 241.28"/>
      <polygon class="cls-3" points="557.46 236.07 560.57 237.38 563.2 235.13 569.54 235.48 574.21 237.38 574.45 239.27 577.32 242.59 577.08 245.07 574.33 244.96 570.98 247.91 567.15 247.56 563.2 247.91 561.76 246.61 556.86 245.66 554.23 242.11 554.7 237.97 557.46 236.07"/>
      <polygon class="cls-3" points="465.68 303.78 463.39 302.6 462.11 303.78 463.93 305.3 465.68 303.78"/>
      <polygon class="cls-3" points="462.22 280.98 464.86 286.2 463.54 288.63 462.28 292.07 461.56 289.64 460.12 287.33 461.26 285.25 461.5 282.64 462.22 280.98"/>
      <polygon class="cls-3" points="554.39 217.56 554.39 220.17 556.67 223.85 556.55 225.4 555.23 224.8 553.79 220.94 553.19 218.22 554.39 217.56"/>
      <polygon class="cls-3" points="545.2 213.59 547 212.76 549.53 213.71 551.87 212.64 558.05 213.47 561.41 214.06 557.51 215.01 550.25 216.67 546.64 215.67 546.52 214.42 545.2 213.59"/>
      <polygon class="cls-3" points="528.75 213.88 530.91 211.75 532.53 212.16 534.58 211.34 537.88 212.16 539.98 213.29 542.08 211.75 544.24 212.52 544.3 215.31 541.72 215.01 538.78 216.38 536.44 215.79 532.83 217.92 529.71 217.27 528.51 215.49 528.75 213.88"/>
      <polygon class="cls-3" points="499.51 274.57 502.33 269.77 503.83 264.67 504.13 259.5 505.51 258.26 507.85 258.62 507.91 260.75 508.93 262.94 508.81 264.49 507.97 263.18 507.43 264.62 505.45 266.15 504.49 267.4 505.21 269.89 507.85 270.48 508.39 271.96 507.25 273.33 505.27 273.98 503.41 277.13 501.31 278.19 499.09 277.01 499.51 274.57"/>
      <path class="cls-3" d="M491.88,271.25l2.94-3.32-1-2,2.22-2.25,2.82-1.42,1.5,2.79-.06,1.72-2.1,2.14-.36,2.73-1.26.35-.42,1.31-2.88.36L492,272.62S492,271.19,491.88,271.25Z"/>
      <path class="cls-3" d="M484.62,268.88l-.18,2.08-1,1,1.2,3.56,1.44.59,2.46-1.66-.78-3.32-2-2.85S484.68,268.88,484.62,268.88Z"/>
      <path class="cls-3" d="M508.87,215l-2.51,1.07,1.8.83S508.87,215.12,508.87,215Z"/>
      <polygon class="cls-3" points="512.34 212.98 510.91 214.29 513.3 214.64 512.34 212.98"/>
      <polygon class="cls-3" points="516.65 209.67 514.74 211.09 517.25 211.92 516.65 209.67"/>
      <polygon class="cls-3" points="502.75 205.82 506.47 203.62 511.03 203.98 511.38 205.41 510.31 207.3 512.82 206.71 514.02 204.7 516.41 206.47 515.81 208.96 512.82 209.67 511.86 208.48 510.31 210.73 507.56 208.72 505.4 210.61 502.89 208.84 502.75 205.82"/>
      <path class="cls-3" d="M485.28,189.62l2.64,1.07.12-1.78S485.34,189.56,485.28,189.62Z"/>
      <polygon class="cls-3" points="482.94 190.46 484.44 190.4 486.72 191.76 484.38 192.29 482.94 190.46"/>
      <polygon class="cls-3" points="462.08 176.04 465.91 174.74 470.46 176.87 475.84 176.99 481.83 174.03 485.78 174.5 487.21 176.39 490.68 176.39 492.72 175.45 499.78 176.16 503.49 175.92 504.21 174.97 508.15 175.09 510.79 176.51 511.63 178.17 514.98 179.24 527.54 176.39 532.8 172.84 534.24 170.12 536.39 169.88 538.19 167.75 540.46 166.21 541.54 163.37 542.98 161 544.53 159.82 542.98 158.16 542.62 156.26 537.95 155.2 534.72 156.26 534.12 159.46 531.61 161.36 531.37 163.01 527.9 165.5 525.27 165.85 523.59 168.34 519.64 169.29 511.75 167.75 505.04 167.16 503.85 168.93 502.29 169.17 499.06 166.33 496.55 166.09 493.68 166.21 490.56 165.5 486.25 164.79 483.98 166.21 481.47 164.79 478.24 161.71 473.33 160.76 470.34 160.88 470.34 164.44 467.82 166.09 466.39 169.17 464.24 171.06 459.93 169.65 455.98 170.59 454.42 172.37 454.78 173.55 450.6 177.46 450.6 182.2 451.43 184.92 451.19 190.37 450.36 192.26 452.03 196.17 452.51 199.25 451.19 197.59 450.24 195.1 448.08 195.69 445.93 198.3 443.3 199.72 442.7 202.92 443.18 206.71 441.98 209.19 442.81 216.06 441.98 217.6 441.5 220.33 439.35 221.27 439.46 225.42 435.64 228.38 434.44 232.64 435.04 233.94 433.6 235.84 435.52 241.52 437.31 244.13 438.51 243.41 441.02 243.41 442.81 242.11 444.49 242.94 445.57 247.09 448.44 254.66 447.24 256.56 446.29 260.82 443.89 264.26 443.53 271.36 444.01 276.93 445.81 276.93 448.08 278.35 451.55 278.23 453.11 276.45 456.22 277.16 458.97 276.69 461 278.23 461.6 275.62 461.25 272.31 458.97 270.77 458.49 266.5 460.29 263.54 461 258.1 460.41 253.01 459.09 251.59 462.32 246.85 463.4 242.59 462.44 237.5 460.29 235.6 460.29 234.06 463.88 231.81 465.31 229.56 468.67 228.85 472.01 230.04 471.66 231.69 473.21 234.42 473.21 237.73 470.58 240.69 469.86 243.65 471.66 246.97 473.93 247.32 475.96 249.81 479.79 252.06 480.39 255.14 479.07 254.9 478.24 260.94 479.43 264.26 481.83 265.09 483.62 264.49 487.33 266.03 490.08 265.56 489.85 264.38 488.89 262.01 491.76 259.4 494.63 258.69 498.58 256.44 503.49 256.8 505.28 254.9 506.6 255.61 508.99 255.61 510.43 253.24 509.95 251.82 505.64 251.47 504.32 252.06 502.89 251.59 499.78 251.94 499.54 249.57 497.98 249.34 498.1 247.8 496.67 247.44 495.23 248.27 495.11 246.49 492.24 245.66 491.28 243.65 493.2 241.76 493.91 240.22 495.11 240.69 494.15 238.68 495.59 238.44 496.31 236.78 494.75 235.25 492.48 234.53 493.44 232.99 493.08 231.22 490.2 229.32 488.29 229.21 487.45 226.13 482.9 221.03 480.15 219.14 478.48 216.18 478.83 214.88 480.15 215 480.87 216.65 483.86 216.77 486.49 214.76 487.21 212.75 493.91 210.38 498.7 206.71 500.97 202.92 503.97 201.38 504.09 199.13 507.68 198.3 510.91 199.96 512.94 200.2 515.81 196.17 515.81 193.56 512.34 192.26 504.92 192.97 501.69 195.22 496.78 195.22 494.39 195.93 491.52 198.89 488.41 198.66 486.02 199.25 482.9 197.35 479.91 196.52 476.68 200.67 474.41 206.12 471.18 207.77 467.71 207.3 466.87 205.76 462.56 201.02 458.25 197.35 455.98 191.55 456.46 185.16 459.09 179 462.08 176.04"/>
      <polygon class="cls-3" points="415.9 112.14 416.86 113.8 415.21 113.06 415.9 112.14"/>
      <polygon class="cls-3" points="416.02 110.3 419.53 111.61 419.59 112.7 416.86 112.58 415.9 110.98 416.02 110.3"/>
      <polygon class="cls-3" points="417.88 119.47 414.49 120.3 416.98 120.98 417.88 119.47"/>
      <polygon class="cls-3" points="414.34 122.82 415.93 123.74 415.9 126.64 414.82 126.32 414.34 122.82"/>
      <polygon class="cls-3" points="393.53 241.41 394.4 242.21 394.01 246.57 393.11 246.83 392.93 242.71 393.53 241.41"/>
      <polygon class="cls-3" points="392.12 241.58 392.3 247.31 391.43 250.6 388.88 252.35 387.56 250.75 388.07 246 389.78 241.26 391.31 240.31 392.12 241.58"/>
      <polygon class="cls-3" points="277.13 189.62 281.18 190.8 281.79 191.69 280.07 192.64 277.1 191.6 276.5 190.06 277.13 189.62"/>
      <polygon class="cls-3" points="278.72 196.76 282.99 197.51 284.82 199.26 286.14 199.64 286.23 200.83 282.32 200.65 280.7 200.74 278.36 198.04 278.72 196.76"/>
      <path class="cls-3" d="M282.14,202l4.12.18,2.4,1.69-3.21,3.32-2.07.59L282,206l.48-2.11S282.18,202,282.14,202Z"/>
      <polygon class="cls-3" points="274.21 162.66 276.84 158.16 280.79 152.95 282.46 150.46 285.05 149.66 288.42 155.67 293.76 159.41 294.3 160.78 298.08 164.28 299.45 167.01 301.91 167.31 306.71 166 307.25 164.1 311.39 164.4 313.72 163.21 322.84 163.69 332.07 160 334.53 157.86 342.59 157.62 346.78 159.63 348.1 161.65 352.05 161.53 358.87 157.86 366.76 156.67 366.29 154.19 372.87 144.36 375.5 137.37 380.53 129.91 384.12 117.24 384.12 114.75 385.79 111.91 385.55 109.78 389.02 105.63 391.78 106.82 397.04 106.34 404.34 106.46 406.14 107.77 410.8 107.65 414.4 108.71 414.22 109.61 412.54 109.97 412.78 111.5 411.7 113.16 415.17 114.47 418.4 118.25 414.69 119.2 410.99 118.61 409.43 119.56 412.06 122.64 413.46 123.41 413.85 125.21 412.42 125.6 411.23 128.08 413.98 130.45 415.05 133.88 420.56 139.57 423.07 141.82 421.4 144.9 417.09 145.84 416.49 147.86 417.93 149.04 418.64 151.88 421.16 153.3 428.22 159.82 430.61 159.82 433.36 162.9 434.32 164.91 436.95 165.5 436.12 168.46 434.08 169.29 431.93 168.46 429.41 170.24 425.58 169.76 420.2 164.55 421.28 168.93 420.32 170.59 418.76 168.58 415.29 172.01 415.29 174.38 413.74 176.16 413.14 182.43 411.7 184.68 410.51 190.37 406.08 193.8 407.75 198.06 405.72 201.02 402.85 203.98 401.45 200.9 399.77 200.06 400.68 202.26 400.43 205.76 397.61 208.96 397.07 211.87 394.31 213 391.85 212.64 392.45 214.12 391.13 216.02 395.15 215.79 395.81 216.44 395.33 219.34 393.41 220.71 394.49 221.42 396.41 221.24 396.83 223.5 395.81 226.05 393.17 225.28 392.69 224.62 392.51 225.93 394.01 227.35 395.03 228.3 392.51 233.58 390.76 233.59 390.04 232.28 389.09 236.43 389.09 238.68 385.62 244.96 379.99 248.74 375.2 249.57 368.38 252.77 365.15 253.24 364.2 248.74 364.79 246.26 363.12 243.77 362.52 242.59 360.96 243.3 359.17 240.93 357.61 241.76 354.98 241.05 353.54 238.44 352.38 241.05 353.52 243.24 350.44 242.38 349.12 240.69 349.12 238.09 347.32 236.55 345.41 237.73 342.42 235.96 340.62 236.19 338.11 238.91 334.04 239.51 333.36 241.12 330.9 241.47 329.16 239.93 327.24 240.46 323.39 245.15 320.99 245.15 321.35 242.48 320.87 236.96 319.49 232.93 320.15 230.08 319.13 227.89 319.43 229.67 317.93 232.81 315.83 234.18 313.79 232.75 310.96 234.77 306.76 235.13 304.24 234.23 300.76 234 299.74 231.86 297.15 234.06 295.29 234.06 293.37 229.49 293.31 225.57 292.41 218.22 289.53 216.38 288.75 214.36 290.55 212.16 292.83 208.9 292.41 206 290.79 203.09 286.06 198.42 281.99 196.05 278.06 195.14 277.94 193.84 280.94 193.48 283.52 191.23 289.35 189.86 293.25 186.84 296.43 187.07 293.43 186.18 288.99 188.91 283.82 189.68 281.66 190.16 278.3 189.15 276.2 185.35 277.22 184.34 279.14 185.29 277.64 182.8 272.72 176.69 272.24 170.46 274.52 169.1 274.88 167.14 274.04 164.94 274.21 162.66"/>
      <polygon class="cls-3" points="704.4 198.06 706.44 200.2 704.29 200.67 702.37 198.66 704.4 198.06"/>
      <polygon class="cls-3" points="711.71 208.48 707.4 208.48 709.79 209.31 711.71 208.48"/>
      <path class="cls-3" d="M714.22,209.55l6.1,2.13,3.35-1.66,5,1.42,2.75-.71,5.62,1.18L735.16,213,728.22,214,720.56,213l-5.27-2.13A12.58,12.58,0,0,0,714.22,209.55Z"/>
      <polygon class="cls-3" points="714.22 193.8 716.97 196.52 716.85 194.63 718.53 194.75 721.4 198.54 720.92 200.67 723.43 201.14 724.39 201.14 725.83 201.85 729.66 201.14 728.22 199.72 725.83 198.54 723.67 195.1 720.92 193.33 718.29 193.33 713.62 192.5 714.22 193.8"/>
      <polygon class="cls-3" points="666.01 276.06 668.36 279.26 668.24 283.06 667.03 281.81 666.91 279.2 666.01 276.06"/>
      <polygon class="cls-3" points="674.96 272.79 671.66 274.51 670.22 281.4 669.02 283.35 671.24 282.52 673.46 275.76 674.96 272.79"/>
      <polygon class="cls-3" points="701 294.86 699.74 296.28 700.58 296.99 701.36 296.16 701 294.86"/>
      <polygon class="cls-3" points="691.3 289.01 694.3 291.53 695.35 293.76 696.85 294.71 696.26 296.19 693.19 298.92 691.54 299.16 689.98 297.64 690.25 294.62 691.36 294.71 692.53 295.83 691.75 294 690.46 292.78 690.37 289.4 690.01 288 691.3 289.01"/>
      <path class="cls-3" d="M697.28,290.17l1.65,1.33.57,1.63-1.68.33-1.35-1-.15-1.57S697.28,290.08,697.28,290.17Z"/>
      <polygon class="cls-3" points="692.71 285.19 693.22 286.97 695.98 289.58 695.02 290.2 693.01 289.16 690.52 286.37 690.79 284.74 692.71 285.19"/>
      <polygon class="cls-3" points="698.9 282.78 696.07 283.82 693.73 285.87 694.3 286.76 697.79 288.63 699.14 289.61 700.85 287.56 701.18 285.75 700.49 285.33 700.79 284.44 699.77 282.96 698.9 282.78"/>
      <polygon class="cls-3" points="692.44 279.13 691.54 279.17 691.12 280.29 692.44 280.26 692.44 279.13"/>
      <polygon class="cls-3" points="697.66 274.45 699.1 274.34 700.48 276.29 699.22 276.23 697.66 274.45"/>
      <polygon class="cls-3" points="697.06 275.52 699.04 277.01 700.36 277.18 700.48 280.03 699.7 281.57 697.78 281.51 695.5 283.11 694.3 283.23 693.82 281.28 696.1 279.68 694.53 279.97 694.3 278.67 692.55 278.19 694.06 277.77 695.5 275.29 697.06 275.52"/>
      <polygon class="cls-3" points="653.47 301.38 656.17 300.02 655.26 299.49 653.47 301.38"/>
      <polygon class="cls-3" points="650.64 302.75 653.64 303.23 654.78 304.89 650.64 302.75"/>
      <path class="cls-3" d="M636.41,309.69l-1.92.71,1.38.3S636.41,309.51,636.41,309.69Z"/>
      <polygon class="cls-3" points="640.55 307.85 636.23 308.15 638.33 309.04 640.07 308.62 640.55 307.85"/>
      <polygon class="cls-3" points="640.85 319.78 638.99 319.6 635.99 321.62 635.51 322.92 637.91 322.44 640.07 320.79 640.85 319.78"/>
      <polygon class="cls-3" points="646.14 306.25 641.64 310.23 641.46 311.77 642.06 312.89 640.25 314.38 640.19 316.81 642.6 318.83 644.7 318.23 648.48 313.55 649.74 309.51 649.08 307.2 649.98 305.48 649.68 304.29 647.76 303.82 646.2 305 646.14 306.25"/>
      <polygon class="cls-3" points="621.04 290.17 623.32 288.81 621.64 287.98 621.04 290.17"/>
      <polygon class="cls-3" points="613.41 295.16 611.73 296.4 614.01 296.52 613.41 295.16"/>
      <polygon class="cls-3" points="619.48 319.89 616.06 321.68 618.04 321.68 619.48 319.89"/>
      <polygon class="cls-3" points="613.96 315.09 615.88 314.14 618.04 315.38 618.7 318 616.18 318.53 614.08 316.81 613.96 315.09"/>
      <polygon class="cls-3" points="596 303.88 597.5 302.69 599.18 303.88 598.34 305.18 596.54 305.12 596 303.88"/>
      <polygon class="cls-3" points="599.78 323.1 602.85 322.86 604.23 323.69 601.46 323.93 599.78 323.1"/>
      <polygon class="cls-3" points="574.26 311.77 577.39 309.57 575.4 308.62 574.09 309.81 574.26 311.77"/>
      <polygon class="cls-3" points="583.03 321.08 587.95 321.44 590.66 320.9 590.66 322.62 586.75 323.99 583.51 322.44 583.03 321.08"/>
      <polygon class="cls-3" points="578.41 322.44 580.69 321.79 580.57 323.57 578.41 322.44"/>
      <polygon class="cls-3" points="570.84 321.38 572.95 320.31 574.63 321.68 572.58 322.74 570.84 321.38"/>
      <polygon class="cls-3" points="508.81 356.02 507.79 359.4 509.47 360.71 514.88 360.41 519.62 357.33 522.57 356.44 525.27 356.67 528.39 354.42 530.43 351.34 536.67 346.71 538.18 344.75 539.88 344.02 535.86 340.34 532.45 336.5 531.01 337.2 528.2 338.01 527.97 342.24 524.97 342.71 521.5 344.49 519.03 341.62 518.09 342.53 514.86 344.42 513.66 347.85 510.55 352.94 510.05 354.33 511.4 355.57 511.94 356.94 510.17 356.94 508.81 356.02"/>
      <polygon class="cls-3" points="505.51 359.64 506.77 356.32 505.51 356.26 503.77 358.99 505.51 359.64"/>
      <polygon class="cls-3" points="505.88 361.95 502.77 363.37 503.37 363.96 498.22 366.44 495.71 368.69 498.1 369.52 505.64 366.44 506.72 363.84 505.88 361.95"/>
      <polygon class="cls-3" points="481.19 361.24 483 362.43 483.42 364.03 481.25 365.1 478.25 364.92 479.87 362.25 481.19 361.24"/>
      <polygon class="cls-3" points="433.12 343.71 440.3 340.04 444.73 343.47 447.72 343.47 450.71 341.81 454.66 343.71 455.74 346.67 458.97 346.67 461.72 350.81 464.48 353.42 464.6 355.55 460.41 357.68 455.74 358.15 451.91 356.5 449.16 352.59 446.41 352 443.77 348.8 440.06 349.39 435.52 348.44 432.89 346.08 433.12 343.71"/>
      <polygon class="cls-3" points="381.73 306.01 384.16 306.1 384.94 305.92 384.7 306.87 382.33 306.81 381.73 306.01"/>
      <polygon class="cls-3" points="372.13 301.06 374.38 303.19 376.51 300.85 378.1 301.11 379.18 301.11 378.58 300.19 376.48 299.31 373.38 298.92 372.06 300.11 372.13 301.06"/>
      <polygon class="cls-3" points="550.73 317.64 554.33 315.56 559.55 316.69 561.35 318.12 562.14 316.63 564.54 314.79 567.06 313.49 566.4 311.71 563.7 310.58 561.11 312.48 555.53 312.95 553.79 311.53 551.21 312.78 550.01 316.22 550.73 317.64"/>
      <polygon class="cls-3" points="545.2 322.15 544.24 323.51 544.84 324.23 546.1 323.28 545.2 322.15"/>
      <polygon class="cls-3" points="530.19 321.79 526.89 323.22 528.21 324.17 527.13 325.35 527.43 326.6 530.37 327.31 536.01 325.35 537.88 323.22 536.2 322.09 531.63 322.56 530.19 321.79"/>
      <polygon class="cls-3" points="518.12 328.2 520.4 328.14 522.03 329.68 524.61 326.24 524.31 324.82 522.69 326.3 519.62 326.66 518.12 328.2"/>
      <polygon class="cls-3" points="507.85 328.73 511.16 326.42 510.44 324.94 511.88 324.4 514.22 324.76 516.5 323.45 517.76 324.28 514.34 327.43 512.78 329.27 509.36 329.98 507.85 328.73"/>
      <polygon class="cls-3" points="505.09 327.84 501.67 328.5 500.53 331.11 502.39 329.15 505.09 327.84"/>
      <polygon class="cls-3" points="506.83 322.98 504.67 324.82 506.35 325.77 507.38 324.35 506.83 322.98"/>
      <path class="cls-3" d="M447.87,329.86l1,2.79,2.76.65,2.22-.24,2.52.65,2.34-.42,2.58.35,1.92,1.6,3-1.25,1.86,1,2.4.06.72-.89,3.66-1.54,5.32,1,4.67-2.13,5,.12,2.39.83,1.44-1.54,3.59-.47,2.39-3.2,2.16-.95,1.55-2.72-.36-3-3.47-1.42-2.87,1.9,1.31.71-1.91,2.84-3,.95-1.92,2.25-3.71.36-2.15-1.66-4.79-.24L477,327.72l-4.55-2.84-4.31-1.07-2.27.59-4.07-2-8.14,1.78-5,2.72A15.36,15.36,0,0,0,447.87,329.86Z"/>
      <polygon class="cls-3" points="445.65 329.62 444.5 332.88 446.73 332.47 447.09 330.51 445.65 329.62"/>
      <polygon class="cls-3" points="444.09 327.84 441.26 326.95 440.06 330.69 441.81 333.06 442.82 329.15 444.09 327.84"/>
      <path class="cls-3" d="M396.63,330.09l-.48,2,1.2,1.18-1,1.42,1.44,1.78,3,1.3,4.31-.95,2.39.95,3.59-1.18,1.44-1.89,3,1.07,3.59-1.54,3.35.59,3.59-3.08,1.08,2.25,3.11-.47,4.67.59-2.15-1.78h4.31l.36-3.55-1.2,1.42-1-3,.36-2.48-3.47-.95.48,2.61-1.67.71-.36-2.84-3.35-2-3.35,1.18-3.11-1.9L418,320.38,414,322.87l.12,1.78,6.7,2.48,2.63,2.61-4.43.59-2.63,1.18L412.42,329l-.84-2.84-2.27-.47-2.75.71-3-.71-4.79,1.78A20.58,20.58,0,0,0,396.63,330.09Z"/>
      <polygon class="cls-3" points="386.92 326.06 390.4 323.57 395.63 325.23 394.91 329.09 393.41 331.23 393.71 333.95 391.43 333.12 388.24 334.37 382.9 332.77 381.82 331.28 383.26 330.33 386.14 330.45 386.92 326.06"/>
      <polygon class="cls-3" points="376.17 331.23 377.8 329.62 378.88 331.4 377.13 332.29 376.17 331.23"/>
      <polygon class="cls-3" points="360.37 321.09 364.08 320.03 367.79 320.97 372.33 319.44 376.76 320.38 380.35 324.65 379.51 326.54 376.52 327.13 375.44 328.31 372.81 329.62 371.38 331.63 370.54 329.74 366.47 326.66 361.92 325.71 360.37 323.58 360.37 321.09"/>
      <polygon class="cls-3" points="763.8 323.46 765.18 320.91 766.92 319.84 768.05 320.13 769.25 323.88 768.29 324.83 765.18 323.76 763.8 323.46"/>
      <path class="cls-3" d="M747.37,324.05l6.77-6.65,1.74-3.33,1.74-4.69,3.66-1.72,5.94.24,1.08,1,2.46,1.9-.6,1.19-.66,2.73-.78.83v1.72l-1.26,1.66-2.58.65-2.58,3-2.7,1.31-4.26-.66-2.28.48S747.25,324.17,747.37,324.05Z"/>
      <polygon class="cls-3" points="335.03 299.14 332.63 302.53 335.99 305.92 338.45 306.27 340.55 305.03 346.24 305.32 349.24 304.02 352.9 303.54 354.34 301.58 352.66 300.81 348.22 301.46 345.7 300.63 336.77 300.33 335.03 299.14"/>
      <polygon class="cls-3" points="271 211.33 271.24 213.01 273.73 214.12 274.83 212.72 273.46 211.27 271 211.33"/>
      <polygon class="cls-2" points="319.88 135.99 317.67 136.53 317.46 136.58 316.49 136.82 316.49 138.45 318.89 140.79 320.96 139.78 319.88 135.99"/>
      <polygon class="cls-2" points="318.05 141.12 316.19 139.67 315.56 140.47 316.22 141.89 318.05 141.12"/>
      <polygon class="cls-2" points="315.59 142.01 314.78 140.41 312.89 143.14 315.59 142.01"/>
      <line class="cls-4" x1="117.01" y1="246.04" x2="117.6" y2="245.85"/>
    </g>
    <text class="cls-5" transform="translate(54.49 86.12)"><tspan class="cls-6">A</tspan><tspan x="6.21" y="0">ceh</tspan></text>
    <text class="cls-5"><tspan x="213.33" y="160.99">Riau Islands</tspan></text>
    <text class="cls-5" transform="translate(281.35 179.69)"><tspan class="cls-7">West</tspan><tspan class="cls-8" x="0" y="10">Kalimantan</tspan></text>
    <text class="cls-5" transform="translate(307.58 230.71)">Central<tspan class="cls-8" x="0" y="10">Kalimantan</tspan></text>
    <text class="cls-5" transform="translate(387.56 172.23)">East <tspan class="cls-8" x="0" y="10">Kalimantan</tspan></text>
    <text class="cls-5" transform="translate(370.16 240.63)">South<tspan class="cls-8" x="0" y="10">Kalimantan</tspan></text>
    <text class="cls-5" transform="translate(96.82 126.05)">North <tspan x="0" y="10">Sumatera</tspan></text>
    <text class="cls-5" transform="translate(128.8 259.5)">Bengkulu</text>
    <text class="cls-5" transform="translate(138.5 171.65)">Riau</text>
    <text class="cls-5" transform="translate(86.2 211.36)"><tspan class="cls-7">West</tspan><tspan x="0" y="10">Sumatera</tspan></text>
    <text class="cls-5" transform="translate(176.63 232.98)">South <tspan x="0" y="10">Sumatera</tspan></text>
    <text class="cls-5"><tspan x="235.21" y="211.92">Bangka </tspan><tspan x="235.21" y="221.92">Belitung</tspan><tspan x="235.21" y="231.92">Islands</tspan></text>
    <text class="cls-5" transform="translate(154.35 210.36)">Jambi</text>
    <text class="cls-5" transform="translate(202.84 267.37)">Lampung</text>
    <text class="cls-5" transform="translate(194.03 305.89)">Banten</text>
    <text class="cls-5" transform="translate(233.95 280.14)">Jakarta</text>
    <text class="cls-5" transform="translate(365.38 319.85)">Bali</text>
    <text class="cls-5" transform="translate(235.92 304.13)">West<tspan x="0" y="10">Jawa</tspan></text>
    <text class="cls-5" transform="translate(274.03 286.05)">Central<tspan x="0" y="10">Java</tspan></text>
    <text class="cls-5" transform="translate(328.64 285.27)">East <tspan x="0" y="10">Java</tspan></text>
    <text class="cls-5" transform="translate(248.29 328.66)">Yogyakarta</text>
    <text class="cls-5" transform="translate(385.87 335.94)">West<tspan x="0" y="10">Nusa</tspan><tspan class="cls-11" x="0" y="20">Tenggara</tspan></text>
    <text class="cls-5" transform="translate(468.04 325.33)">East <tspan x="0" y="10">Nusa</tspan><tspan class="cls-11" x="0" y="20">Tenggara</tspan></text>
    <text class="cls-5" transform="translate(407.16 216.65)">West<tspan x="0" y="10">Sulawesi</tspan></text>
    <text class="cls-5" transform="translate(471.25 198.17)">Central<tspan x="0" y="10">Sulawesi</tspan></text>
    <text class="cls-5" transform="translate(463.78 160.03)">Gorontalo</text>
    <text class="cls-5" transform="translate(530.22 141.17)">North<tspan x="0" y="10">Sulawesi</tspan></text>
    <text class="cls-5" transform="translate(553.42 178.12)">North <tspan x="0" y="10">Maluku</tspan></text>
    <text class="cls-5" transform="translate(593.91 264.22)">Maluku</text>
    <text class="cls-5" transform="translate(494.84 245.74)">Southeast<tspan x="0" y="10">Sulawesi</tspan></text>
    <text class="cls-5" transform="translate(416.86 264.22)">South<tspan x="0" y="10">Sulawesi</tspan></text>
    <text class="cls-5" transform="translate(660.36 203.29)">West<tspan class="cls-7" x="0" y="10">Papua</tspan></text>
    <text class="cls-5" transform="translate(740.55 240.63)">Papua</text>
    <g>
      <g>
        <path class="cls-13" d="M230.6,283.31c.28,1.22,0,3,.78,3.83.51.51,1.12,1.86,2.16,1.86s2.25.69,3.14.69c1,0,1.27.26,1.37-.78s.07-2,.2-3"/>
        <path class="cls-13" d="M234.33,289.32c-1.57.44-3.28-.13-4.9-.13-2.58,0-1.14,4.51-.88,6.85s1.32,1.5.29,3.88a13.18,13.18,0,0,1-1.28,2.2"/>
        <path class="cls-13" d="M268.17,298c.06,1,.41,4.44-.29,4.88a10,10,0,0,1-3,1.11c-1.11.26-1.66,3.27-1.08,4.43.8,1.61,3.33,2.06,3.33,4.88"/>
        <path class="cls-13" d="M286.11,315.67c.69-.64,5-4.07,5-5.1,0-3.74,6.28-2.6,7.06.39.11.44,3,2.54,3.43,2.94,1.1,1.1,3.67,7.62,5.3,7.94"/>
        <path class="cls-13" d="M317,296.45c-.82,2.06-1.33,5.52-2.84,6.38s-5,.43-5.88,1.67c-1.1,1.61.8,5.72,1,8,.12,1.62.22,2.14-.78,3.14-1.34,1.34-.78,6.77-.78,6.57"/>
      </g>
      <path class="cls-13" d="M359.17,341.57c2.9-5,2.94-6,2.94-12.75,0-4.64-4.49-14.67.1-18.34,6-4.78,18.93-1.32,18.93-12"/>
    </g>
    <g>
      <path class="cls-13" d="M388.41,308.32c-1.24,5.36-2.12,11.57-3.83,16.48a64.35,64.35,0,0,1-4.41,9.81l-3.92,7.06"/>
      <path class="cls-13" d="M446.64,311.07c-3,3.92-1.12,9-3.34,12.57-3.59,5.74-8,10.6-12.18,17.09-1.6,2.5-2.75,4-2.75,7.86s1.77,6.31,1.77,9.82"/>
    </g>
    <g>
      <path class="cls-13" d="M183.06,171.74c4.25-18.44,14.76-5.81,19.27-20.84,1.48-4.93,12.65-18.6,16.51-22,1.31-1.16,3.78-10.23,6.29-13.37,7.31-9.14,31.12-30.64,42.85-13.76,7.49,10.77,9,16.32,9,33,0,3.33-8.37,6-11,8.65-7.47,7.47-7.25,15.18-19.27,22-8.81,5-10.88,13.63-17.69,20.44-1.69,1.69-29.57,5.5-34.21,5.5C187.35,191.4,184.52,176.81,183.06,171.74Z"/>
      <path class="cls-13" d="M213.33,220.49c-4.12-2.22-15.84-13.86-4.32-16.51,6.07-1.4,10.14-4.89,18.87-5.9,14.24-1.64,26.17-9.55,41.68-.79,9.51,5.37,8.87,20,2.75,27.52-4,4.87.81,13.47-7.47,14.55C250.44,241.24,243,241.3,233,235c-4.09-2.56-8.12-3.79-11.79-7.47C219.89,226.27,214.2,219.71,213.33,220.49Z"/>
      <path class="cls-13" d="M92.42,109.06c-2.87.66-4.13,3-4.13,6.29,0,2-3.14,1.35-3.14,5.7,0,5.55,2.55,8.31,2.55,13.75,0,7,.44,5.61-5.11,7.27-1.49.45,1.9,3.81-3.54,4.52-2.57.33.94,2.85-3.14,3.93-5.75,1.53-10.75,7.66-16.5,7.66"/>
      <path class="cls-13" d="M126.64,139.38c0,3.81-2.22,7.87-.39,11.2.9,1.63,3.13,3.93.39,3.93-8.2,0-2.94,7.06-3.73,13.16-.17,1.32-3-1.57-4.91-1.57-3.36,0-.09,4.43,1,5.5,2.55,2.55-5.05.42-8.25.79-1.22.14-6.88,8.41-6.88,11.39,0,5.58-8.42,10.8-13.75,10.8"/>
      <path class="cls-13" d="M122.51,167.66c2.16,9.35,11.2,4.12,11.2,11.79,0,8.11,1.6,6.91,6.09,11.39a27.84,27.84,0,0,0,4.71,3.73c5.58,3.45,5.12,4,9.23,2.36,4.77-1.88,10.41,3.7,10.41-.39,0-4.39,13.51-.25,14.34-2.75"/>
      <path class="cls-13" d="M122.51,245.45A24.36,24.36,0,0,0,132.92,236c.9-1.6,1.18-4.52,1.18-6.48,0-4.83,2.81-5.56,5.11-7.86,3.29-3.29,7-1.33,4.13-4.91-3.53-4.34,8.05-14.71,8.05-19.25"/>
      <path class="cls-13" d="M144.71,218.94c4.33,7.36,9.4,8.92,15.52,5.7,1.4-.74,5.25-1.13,5.89-2.16.76-1.21.2-3.34,1.38-3.34,2.44,0,2.45-.44,4.32-1.18.11,0,5.11,4,5.11.59,0-5.46,4.92-5.13,8.64-7.46.66-.41,6,0,6.88,0,3.72,0,1-2.16,4.91-2.16"/>
      <path class="cls-13" d="M155.71,226.79c.77,4.12,2.42,5.22,5.5,6.29,2.71.94-.34,3.81,4.91,4.91,2,.42,5.89-1.23,5.89,1.57,0,.75-4.11.6-4.71,1.57-4.38,7-1.52,7,4.91,11,8,5,11.2,2.92,11.2,14.34,2.45-2.45,4.48-2.14,7.66-2.55,2.45-.32-.54-8.22,3.34-9.23a37.85,37.85,0,0,0,6.88-3.14,20.52,20.52,0,0,0,4.52-3.14c7.88-7.88,5.71,2.16,13.16,2.16"/>
      <path class="cls-13" d="M183.43,266c-1.07,2.43-3.12,3.2-5.49,4-1.1.38-3,3-4.61,3.82-1.42.73-10,3.63-10,4.61,0,.53-4.16,4.22-5,4.22"/>
      <path class="cls-13" d="M225.8,268.2c-2.6,3.2-3.84,4-5.1,8-.5,1.61-.06,5.62-1.77,6.38-4.71,2.08-8.48,2.32-12.46,5.88-1.41,1.26-9.95,4.34-9.61,3.33"/>
    </g>
    <g>
      <path class="cls-13" d="M303,229.94c6.35-3.71-1.34-19.31.59-22.39s4.77,1.08,7.27-3.93c8-16,36.54-5.33,36.54-24.36,0-11.15,22.88-12.16,24.75-8.84,1.36,2.41-.9,11.48.39,12.77,2.16,2.16,4.91-4.23,4.91,5.3,0,8.6,7.44,8.08,6.68,14.73-.11,1-3.33,2-4.32,3.54-.83,1.33-2.78,10.21-3.14,10.21-11.93,0-4.08,6-9.82,8.05-6.46,2.33-6.09,6.55-6.09,14.14"/>
      <path class="cls-13" d="M399.1,219.33c-4.95,0-8.33.43-10.21-3.34-1.32-2.64.39-6.21.39-9,0-1.42-.67-2.86-1.77-3.14-.94-.24-1.28-1.23-2.16-1.57-.45-.17-1.31.39-1.77.39"/>
      <path class="cls-13" d="M355.85,170.61a12.41,12.41,0,0,1-2.45-4.12c-.91-2,2.14-4.53,3.24-5.3s1.57-.61,1.57-2c0-.93.1-1.8.1-2.75"/>
    </g>
    <g>
      <path class="cls-13" d="M709.5,171.74c0,12.91-.15,31.85-4.32,42.46-2.46,6.24-3.93,10.35-3.93,18.48v16.51"/>
      <path class="cls-13" d="M598.64,212.73c9.36,2.16,21.42,10.91,29.88,10.91,8.16,0,14,11.36,17.69,17.3,11.74,19.07,64.09,11.5,64.09,40.5"/>
    </g>
    <g>
      <path class="cls-14" d="M483.65,165.71c0,2.45-.48,3.21-3,3.53a52.83,52.83,0,0,1-6.47.1c-3.26,0-1.47,2.24.39,3.33,1.22.72,3.53,1.85,3.53,3.24"/>
      <g>
        <path class="cls-14" d="M572.68,134.78c14.54,1.12,20.45-2.75,33-2.75,7.5,0,15.15,49.89,13.76,60.55-.86,6.58-31.09,27.91-35,27.91-18.25,0-33.74,1.18-52.29,1.18-12.14,0-5.1-17-7.47-25.56-.95-3.41,7.64-6.26,10.22-7.86,2.36-1.46,2.52-14.36,2.75-17.69.39-5.61,17.76-17.6,22.41-20.84C564.4,146.73,568.41,135.42,572.68,134.78Z"/>
        <path class="cls-14" d="M573.08,132.82c7.29-4.86,4.72-14.28,4.72-23.59,0-14.33-23.81-15.06-27.91-5.9-1.1,2.44-2.27,5-4.32,6.68-2.71,2.17-.91,9.21-5.11,11.79-3.75,2.3-12.24,12.65-15.33,16.51C521.06,143.39,509,162.6,509,168.6c0,13.34,17.82,9.48,28.31,13"/>
        <path class="cls-14" d="M429.35,298.89c5.69,4.47,26.46,12.08,34,12.38,14,.56,19.45-18.6,36.54-20.43,17.3-1.85,34.29-1,52.84-1"/>
        <path class="cls-14" d="M537.2,330.71c-4.37-4.37.4-7.07,4.32-7.86,2.44-.49,4.36-14.78,4.71-17.48.72-5.53,6-16.84,8.45-23.18,3.14-8.16,4.69-19.75,2.75-27.5-.7-1.8-2.52-6.78-3.73-7.86-2.89-2.56-3.68-8.79-4.91-12-1.14-3-.2-10.19-.2-13.75"/>
        <path class="cls-14" d="M447.23,195.56c1.31,5.81,0,11.23,2.95,16.2.72,1.21.39,3.84.39,5.33,0,5.22,7.22,12.31-3.34,12.31-.65,0-.3,2.78-.79,3.28a51.2,51.2,0,0,0-1,5.54c0,1.14-2.51,5.18-2.16,4.1"/>
        <path class="cls-14" d="M450.69,213.38c3.08.15,4.27.86,7.16-.1,1.56-.52,2.21-1.4,4.22-.2,4,2.38,4.51,4.27,7.55,6.28,4.23,2.79,14.71,3.21,14.71,8.63,0,4.1-1.65,2.35-5,2.35-1.52,0-7.24-.05-7.06-.1"/>
        <path class="cls-14" d="M483.06,230.83c1.21.34,2.4.82,3.63,1.18.81.23,1.89-.27,2.35.29a8.61,8.61,0,0,0,2.55,1.57,12.06,12.06,0,0,0,1.18.59c.62.17,1-.26,1.27.49"/>
      </g>
    </g>
    <text text-anchor="middle" class="cls-5" transform="translate(417.73 23.36)">INDONESIA</text>
  </g>
  <polyline class="cls-16" points="443.27 162.49 443.27 227.85 346.74 227.85 346.74 131.87 443.27 131.87 443.27 162.49"/>
  <polygon class="cls-17" points="396.9 158.67 391.78 158.67 391.78 153.55 394.34 150.88 396.9 153.55 396.9 158.67"/>
  <polygon class="cls-17" points="375.01 208.75 369.89 208.75 369.89 203.62 372.45 200.95 375.01 203.62 375.01 208.75"/>
<g transform="translate(20 0)">
  <text class="cls-18" transform="translate(45.42 427.2)">BOS Entwicklungszusammenarbeit</text>
  <polygon class="cls-17" points="39.16 427.2 25.05 427.2 25.05 413.09 32.11 405.73 39.16 413.09 39.16 427.2"/>
</g>
</svg>
