<svg id="Layer_1" data-name="Layer 1" xmlns="http://www.w3.org/2000/svg" viewBox="0 0 1202 1024">
  <defs>
    <style>
      .cls-1 {
        fill: #e6d690;
      }

      .cls-2 {
        fill: #c8db89;
      }

      .cls-3 {
        fill: #a5e281;
      }

      .cls-4, .cls-5 {
        font-size: 24px;
      }

      .cls-4, .cls-5, .cls-6 {
        fill: #76686d;
      }

      .cls-4 {
        font-family: SFUIDisplay-Light, SF UI Display;
      }

      .cls-5 {
        font-family: SFUIDisplay-Bold, SF UI Display;
        font-weight: 700;
      }

      .cls-7 {
        letter-spacing: -0.01em;
      }

      .cls-8 {
        letter-spacing: -0.02em;
      }
    </style>
  </defs>
  <title>process_1</title>
  <g>
    <path class="cls-1" d="M739.63,143.05a394.12,394.12,0,0,0-504.44,222.2L386,321l53.66,117a177.48,177.48,0,0,1,295.91-41.66L865.2,408.49l36.26-151.56A395.82,395.82,0,0,0,739.63,143.05Z"/>
    <path class="cls-2" d="M851.19,816.55a394.12,394.12,0,0,0,59.79-548L873.89,421.34l-128.14-12a177.48,177.48,0,0,1-111.87,277.1L558.52,792.57,671.65,899.75A395.82,395.82,0,0,0,851.19,816.55Z"/>
    <path class="cls-3" d="M229.86,379.32A394.13,394.13,0,0,0,656.8,902.16L543.05,793.67l74.48-105a177.48,177.48,0,0,1-184-235.43L379.24,334.94Z"/>
  </g>
  <g>
    <text class="cls-4" transform="translate(818.63 628.65)">Phase 2</text>
    <text class="cls-5" transform="translate(795.28 658.72)">Umsetzung</text>
    <g id="_Group_" data-name="&lt;Group&gt;">
      <g id="_Group_2" data-name="&lt;Group&gt;">
        <g id="_Group_3" data-name="&lt;Group&gt;">
          <g id="_Group_4" data-name="&lt;Group&gt;">
            <path id="_Compound_Path_" data-name="&lt;Compound Path&gt;" class="cls-6" d="M875.66,553.08a12.49,12.49,0,0,1-9.33-4.07,13,13,0,0,1-3.83-9.33,14.55,14.55,0,0,1,4.54-10.29c4.78-4.78,14.83-10,27.75-10a1.32,1.32,0,0,1,1.2.72c-.24.72-.24,1.2-.48,1.44-3.11,3.11-4.31,9.09-5.26,14.59-1,5-1.91,9.81-4.31,12.2h0a14.82,14.82,0,0,1-10.29,4.78ZM891.93,522c-11,.72-19.37,5-23.44,9.09a12.41,12.41,0,0,0-3.83,8.61,11.52,11.52,0,0,0,3.11,7.65,11.26,11.26,0,0,0,7.89,3.35,11,11,0,0,0,8.13-3.83h0c1.91-1.91,2.63-6.46,3.59-11C888.58,531.07,889.54,525.81,891.93,522Z"/>
          </g>
        </g>
        <g id="_Group_5" data-name="&lt;Group&gt;">
          <g id="_Group_6" data-name="&lt;Group&gt;">
            <g id="_Group_7" data-name="&lt;Group&gt;">
              <path id="_Compound_Path_2" data-name="&lt;Compound Path&gt;" class="cls-6" d="M848.88,534.42a7.42,7.42,0,0,1-5.26-2.15c-1.44-1.44-1.91-3.83-2.39-6.22-.48-2.63-1-5.5-2.63-6.94a1.79,1.79,0,0,1-.24-1.2,1.32,1.32,0,0,1,1.2-.72c6,0,11.72,1.91,14.59,4.78a7.22,7.22,0,0,1,0,10.29A7.42,7.42,0,0,1,848.88,534.42Zm-6.94-14.83c1,1.67,1.2,3.83,1.67,6,.48,1.91,1,4.07,1.91,5a4.9,4.9,0,1,0,6.94-6.94C850.55,521.74,846.72,520.07,841.94,519.59Z"/>
            </g>
          </g>
          <g id="_Group_8" data-name="&lt;Group&gt;">
            <path id="_Path_" data-name="&lt;Path&gt;" class="cls-6" d="M863.47,562.65h0a1.59,1.59,0,0,1-1.2-1c-1.44-6.94-6.22-25.83-9.81-29.42a1.18,1.18,0,0,1,1.67-1.67c3.59,3.59,7.65,18.9,9.57,26.31,2.15-5.74,6.94-16.5,15.79-25.11a1.18,1.18,0,0,1,1.67,1.67c-12,11.72-16.5,28-16.5,28.22A1.59,1.59,0,0,1,863.47,562.65Z"/>
          </g>
        </g>
      </g>
      <g id="_Group_9" data-name="&lt;Group&gt;">
        <g id="_Group_10" data-name="&lt;Group&gt;">
          <path id="_Compound_Path_3" data-name="&lt;Compound Path&gt;" class="cls-6" d="M834.76,581.78H825.2a1.13,1.13,0,0,1-1.2-1.2V554.27c0-.24.24-.72.24-1,.24-.24.48-.24,1-.24,2.15,0,12.68.24,15.07,2.63a1,1,0,0,1,.48,1c-.72,7.65-4.54,23.44-4.78,24.16A1.59,1.59,0,0,1,834.76,581.78Zm-8.37-2.39h7.41c.72-3.35,3.83-15.55,4.54-22.24-1.91-1-7.65-1.67-12-1.67v23.92Z"/>
        </g>
        <g id="_Group_11" data-name="&lt;Group&gt;">
          <path id="_Path_2" data-name="&lt;Path&gt;" class="cls-6" d="M864.9,588a17.56,17.56,0,0,1-6.22-1.44l-.48-.24-22.72-7.18a1.13,1.13,0,1,1,.72-2.15l23.2,7.41c5.26,1.91,6,2.15,17.7-2.63l15.55-6.7A7.45,7.45,0,0,0,885,572l-12,2.39c-.72.24-1.2-.24-1.44-1s.24-1.2,1-1.44l12-2.39a9.65,9.65,0,0,1,10.76,5.5.73.73,0,0,1,0,1q0,.36-.72.72l-16.74,7.18C871.12,586.8,867.77,588,864.9,588Z"/>
        </g>
        <g id="_Group_12" data-name="&lt;Group&gt;">
          <path id="_Path_3" data-name="&lt;Path&gt;" class="cls-6" d="M867.77,576a6.62,6.62,0,0,1-2.15-.24l-14.35-3.59a1.22,1.22,0,0,1,.48-2.39l14.35,3.59a6.8,6.8,0,0,0,3.11,0l2.63-1c0-3.35-1-4.54-3.83-5.26L839.31,560a1.22,1.22,0,1,1,.48-2.39l28.7,7.18c4.78,1.2,5.74,3.83,5.74,8.37a1.32,1.32,0,0,1-.72,1.2l-3.59,1.2A12.13,12.13,0,0,1,867.77,576Z"/>
        </g>
      </g>
    </g>
  </g>
  <g>
    <text class="cls-4" transform="translate(309.94 627.65)">Phase 3</text>
    <text class="cls-5" transform="translate(281.54 657.72)">Abschluss &amp; <tspan x="11.4" y="28.8">E</tspan><tspan class="cls-7" x="25.15" y="28.8">v</tspan><tspan x="37.82" y="28.8">aluation</tspan></text>
    <g>
      <g>
        <path class="cls-6" d="M351.19,566.59a8.4,8.4,0,1,1,8.4-8.4A8.5,8.5,0,0,1,351.19,566.59Zm0-14.4a6,6,0,1,0,6,6A5.94,5.94,0,0,0,351.19,552.19Z"/>
        <path class="cls-6" d="M351.19,590.58A32.45,32.45,0,0,1,325,539a1.2,1.2,0,1,1,1.92,1.44,29.63,29.63,0,0,0-5.76,17.75,30,30,0,1,0,30-30A29.63,29.63,0,0,0,333.43,534a1.19,1.19,0,0,1-1.68-.24A1.48,1.48,0,0,1,332,532a32.21,32.21,0,0,1,19.19-6.24,32.39,32.39,0,1,1,0,64.78Z"/>
        <path class="cls-6" d="M351.19,578.58a20.38,20.38,0,0,1-20.39-20.39,19.71,19.71,0,0,1,2.88-10.32,1.24,1.24,0,1,1,2.16,1.2,17.89,17.89,0,0,0-2.4,9.12,18,18,0,1,0,36,0,18.33,18.33,0,0,0-18.23-18,20.66,20.66,0,0,0-9.12,2.4,1.24,1.24,0,1,1-1.2-2.16,22,22,0,0,1,10.32-2.64,20.39,20.39,0,0,1,0,40.79Z"/>
        <path class="cls-6" d="M351.19,559.39a1.44,1.44,0,0,1-1-.24L326.72,535.4H322.4c-.24,0-.72-.24-1-.24l-7.2-7.2a3,3,0,0,1-.24-1.44,1.32,1.32,0,0,1,1.2-.72h3.6v-3.6a1.32,1.32,0,0,1,.72-1.2,3,3,0,0,1,1.44.24l7.2,7.2c0,.24.24.72.24,1v4.32l23.75,23.75a1.16,1.16,0,0,1,0,1.68A1.44,1.44,0,0,1,351.19,559.39ZM322.88,533H326v-3.12l-4.8-4.8V527a1.13,1.13,0,0,1-1.2,1.2h-1.92Z"/>
      </g>
      <path class="cls-6" d="M384.78,593a1.25,1.25,0,0,1-1-.48l-9.6-13.2a1.2,1.2,0,0,1,1.92-1.44l9.6,13.2a1.19,1.19,0,0,1-.24,1.68A.88.88,0,0,1,384.78,593Z"/>
      <path class="cls-6" d="M317.6,593a.88.88,0,0,1-.72-.24,1.19,1.19,0,0,1-.24-1.68l9.6-13.2a1.2,1.2,0,1,1,1.92,1.44l-9.6,13.2A1.25,1.25,0,0,1,317.6,593Z"/>
    </g>
  </g>
  <g>
    <text class="cls-4" transform="translate(561.82 249.65)">Phase 1</text>
    <text class="cls-5" transform="translate(505.06 278.72)">P<tspan class="cls-8" x="15" y="0">r</tspan><tspan x="23.48" y="0">ojektplanung &amp; </tspan><tspan x="27.35" y="28.8">Entwicklung</tspan></text>
    <path class="cls-6" d="M637.62,153a7.31,7.31,0,0,0-5.2,2.15l-1.81,1.76V144.6A3.6,3.6,0,0,0,627,141H576.6a3.6,3.6,0,0,0-3.6,3.6v64.8a3.6,3.6,0,0,0,3.6,3.6H627a3.61,3.61,0,0,0,3.6-3.6V178.23l12.24-12.63a7.38,7.38,0,0,0-5.22-12.6Zm-17.82-2.4a1.2,1.2,0,1,1-1.2,1.2A1.2,1.2,0,0,1,619.8,150.6Zm-12,0a1.2,1.2,0,1,1-1.2,1.2A1.2,1.2,0,0,1,607.8,150.6Zm-12,0a1.2,1.2,0,1,1-1.2,1.2A1.2,1.2,0,0,1,595.8,150.6Zm-12,0a1.2,1.2,0,1,1-1.2,1.2A1.2,1.2,0,0,1,583.8,150.6Zm44.4,58.8a1.2,1.2,0,0,1-1.2,1.2H576.6a1.2,1.2,0,0,1-1.2-1.2V144.6a1.2,1.2,0,0,1,1.2-1.2h6v5a3.6,3.6,0,1,0,2.4,0v-5h9.6v5a3.6,3.6,0,1,0,2.4,0v-5h9.6v5a3.6,3.6,0,1,0,2.4,0v-5h9.6v5a3.6,3.6,0,1,0,2.4,0v-5h6a1.2,1.2,0,0,1,1.2,1.2v14.63L617.29,169.8H581.4a1.2,1.2,0,1,0,0,2.4h33.42l-9.9,9.6H581.4a1.2,1.2,0,1,0,0,2.4h22.53L602,193.8H581.4a1.2,1.2,0,1,0,0,2.4H603l.24,0,12-2.4s0,0,.07,0a1.2,1.2,0,0,0,.52-.28l0,0,12.34-12.73Zm-21.85-25a10.44,10.44,0,0,1,7.28,7.28l-9.1,1.82Zm9.34,5.79a13,13,0,0,0-7.85-7.85l21.31-20.66,7.2,7.2Zm25.44-26.24L638,167.12,630.87,160l3.22-3.12a5,5,0,1,1,7,7.06Z"/>
  </g>
</svg>
