<svg id="Layer_1" data-name="Layer 1" xmlns="http://www.w3.org/2000/svg" viewBox="0 0 100 75">
  <defs>
    <style>
      .cls-1 {
        fill: blue;
      }
    </style>
  </defs>
  <title>waves-path</title>
  <path class="cls-1" d="M96.1,1.5A4.68,4.68,0,0,1,93.7.89a3,3,0,0,0-3,0,4.68,4.68,0,0,1-2.4.61,4.68,4.68,0,0,1-2.4-.61,3,3,0,0,0-3,0,4.67,4.67,0,0,1-2.4.61,4.67,4.67,0,0,1-2.4-.61,3,3,0,0,0-3,0,4.67,4.67,0,0,1-2.4.61,4.67,4.67,0,0,1-2.4-.61,3,3,0,0,0-3,0,4.67,4.67,0,0,1-2.4.61,4.67,4.67,0,0,1-2.4-.61,3,3,0,0,0-3,0,4.67,4.67,0,0,1-2.4.61,4.67,4.67,0,0,1-2.4-.61,3,3,0,0,0-3,0,4.67,4.67,0,0,1-2.4.61A4.67,4.67,0,0,1,47,.89a3,3,0,0,0-3,0,4.67,4.67,0,0,1-2.4.61,4.67,4.67,0,0,1-2.4-.61,3,3,0,0,0-3,0,4.67,4.67,0,0,1-2.4.61,4.67,4.67,0,0,1-2.4-.61,3,3,0,0,0-3,0A4.67,4.67,0,0,1,26,1.5,4.67,4.67,0,0,1,23.6.89a3,3,0,0,0-3,0,4.67,4.67,0,0,1-2.4.61,4.67,4.67,0,0,1-2.4-.61A2.73,2.73,0,0,0,14.32.5a2.73,2.73,0,0,0-1.49.39,4.67,4.67,0,0,1-2.4.61A4.67,4.67,0,0,1,8,.89,2.73,2.73,0,0,0,6.54.5,2.73,2.73,0,0,0,5,.89a4.67,4.67,0,0,1-2.4.61A4.67,4.67,0,0,1,.24.89L0,.77V73.65a5.22,5.22,0,0,1,1.15.46,2.73,2.73,0,0,0,1.49.39,2.73,2.73,0,0,0,1.49-.39,4.67,4.67,0,0,1,2.4-.61,4.67,4.67,0,0,1,2.4.61,2.73,2.73,0,0,0,1.49.39,2.73,2.73,0,0,0,1.49-.39,4.67,4.67,0,0,1,2.4-.61,4.67,4.67,0,0,1,2.4.61,3,3,0,0,0,3,0,5,5,0,0,1,4.81,0,3,3,0,0,0,3,0,5,5,0,0,1,4.81,0,3,3,0,0,0,3,0,5,5,0,0,1,4.81,0,3,3,0,0,0,3,0,5,5,0,0,1,4.81,0,3,3,0,0,0,3,0,5,5,0,0,1,4.81,0,3,3,0,0,0,3,0,5,5,0,0,1,4.81,0,3,3,0,0,0,3,0,5,5,0,0,1,4.81,0,3,3,0,0,0,3,0,5,5,0,0,1,4.81,0,3,3,0,0,0,3,0,5,5,0,0,1,4.81,0,3,3,0,0,0,3,0,5,5,0,0,1,4.81,0,3,3,0,0,0,3,0,4.68,4.68,0,0,1,2.4-.61V.5a2.73,2.73,0,0,0-1.49.39A4.68,4.68,0,0,1,96.1,1.5Z"/>
</svg>
