<svg id="Layer_1" data-name="Layer 1" xmlns="http://www.w3.org/2000/svg" viewBox="0 0 30 30">
  <title>hands</title>
  <g>
    <path d="M12.28,12.85a.47.47,0,0,0,.61-.06l0,0-.46-.45a.24.24,0,0,0-.35,0,.24.24,0,0,0-.05.13.48.48,0,0,0,.09.26Z"/>
    <path d="M28.19,12.29a3,3,0,0,0-1.7-.8l.4-.4a2.72,2.72,0,0,0,0-3.9,3,3,0,0,0-1.7-.8l.1-.1a2.72,2.72,0,1,0-3.8-3.9l-.1.1a3.15,3.15,0,0,0-.9-1.7,2.73,2.73,0,0,0-1.9-.8,2.34,2.34,0,0,0-1.8.8L11.86,5.72c0,.5.21.61.61.5H18a.73.73,0,0,1-.61.6l-3.23.45a.69.69,0,0,0-.65.43.72.72,0,0,0,.14.83l5.25,5.25A.33.33,0,0,1,19,14a.51.51,0,0,1-.1.3.44.44,0,0,1-.25.1.46.46,0,0,1-.3-.11l-4-3.84a.75.75,0,1,0-1,1.07l4.84,4.64a.33.33,0,0,1,.1.25.33.33,0,0,1-.1.25.38.38,0,0,1-.55,0L12.8,12A.75.75,0,1,0,11.74,13l4,3.95a.33.33,0,0,1,.1.25c0,.16,0,.18-.1.25a.38.38,0,0,1-.27.12h0a.38.38,0,0,1-.26-.11L11.3,13.42a.76.76,0,0,0-1.06,0,.74.74,0,0,0,0,1l3,3.11a.38.38,0,0,1,.1.3.44.44,0,0,1-.1.25.38.38,0,0,1-.55,0L6.9,12.61c-.23-.23-.25-.38-.07-.84A3.78,3.78,0,0,0,7,10.59L6.19,5a3.45,3.45,0,0,0-3.4-3A1.79,1.79,0,0,0,1,3.79v16.7a6.57,6.57,0,0,0,2,4.8l2.2,2.3a9.8,9.8,0,0,0,6.3,2.4,8,8,0,0,0,5.8-2.4l10.9-11.4A2.72,2.72,0,0,0,28.19,12.29ZM13.66,5.22l3.73-3.73a1.66,1.66,0,0,1,1.2-.5,2.11,2.11,0,0,1,1.3.5,1.85,1.85,0,0,1,.5,1.2,1.9,1.9,0,0,1-.5,1.3L18.6,5.34a.93.93,0,0,0-.46-.13Zm3.92,2.59A1.73,1.73,0,0,0,19,6.39l3.17-3.3a1.69,1.69,0,0,1,2.4,0,1.75,1.75,0,0,1,0,2.5l-6.14,6.27L14.78,8.19Zm9.91,7.68L16.49,27a7.11,7.11,0,0,1-5.1,2.1A8.16,8.16,0,0,1,5.89,27l-2.2-2.3A6.07,6.07,0,0,1,2,20.49V3.79a.74.74,0,0,1,.8-.8,2.46,2.46,0,0,1,2.4,2.1L6,10.94a3.5,3.5,0,0,1-.12.56,1.61,1.61,0,0,0,.33,1.83l5.74,5.49a1.37,1.37,0,0,0,2,0,1.43,1.43,0,0,0,.39-.86l.2.21a1.38,1.38,0,0,0,1,.41h0a1.31,1.31,0,0,0,.92-.36,1.12,1.12,0,0,0,.45-.89l0,0a1.37,1.37,0,0,0,2,0,1.34,1.34,0,0,0,0-1.91l0,0a1.47,1.47,0,0,0,.9-.45A1.56,1.56,0,0,0,20,14a1.32,1.32,0,0,0-.4-1l-.49-.49,4.63-4.69a1.66,1.66,0,0,1,1.2-.5,1.35,1.35,0,0,1,1.2.5,1.75,1.75,0,0,1,0,2.5l-8.1,7.8a.49.49,0,0,0,.7.7L25,13a1.79,1.79,0,0,1,1.3-.5,1.85,1.85,0,0,1,1.2.5A1.75,1.75,0,0,1,27.49,15.49Z"/>
    <path d="M15.19,15.19a.48.48,0,0,0-.14.4l.45.45a.48.48,0,0,0,.39-.14l.1-.1-.71-.69Z"/>
    <polygon points="16.47 13.88 17.19 14.57 17.55 14.2 16.83 13.51 16.47 13.88"/>
    <path d="M13.64,10.82a.24.24,0,0,0,0,.35l.42.4.34-.36L14,10.82A.24.24,0,0,0,13.64,10.82Z"/>
  </g>
</svg>
