<svg id="Layer_1" data-name="Layer 1" xmlns="http://www.w3.org/2000/svg" viewBox="0 0 24 24">
  <title>hands-monkey</title>
  <path d="M23.28,9.76A2.49,2.49,0,0,0,22,9.13L22.21,9a2.19,2.19,0,0,0,0-3.24,2.48,2.48,0,0,0-1.27-.63,2.19,2.19,0,0,0-.08-3.16,2.57,2.57,0,0,0-3.37-.08A2.24,2.24,0,0,0,16.82.67a2.56,2.56,0,0,0-3.46,0L11.9,2a.5.5,0,0,0-.15-.33,5.81,5.81,0,0,0-4-1.55,5.81,5.81,0,0,0-4,1.55l-.54.51a3.13,3.13,0,0,0-1.6-.44A1.57,1.57,0,0,0,0,3.3V16.36a5.35,5.35,0,0,0,1.74,3.93l1.91,1.79a7.24,7.24,0,0,0,5,1.93,7.24,7.24,0,0,0,5-1.93L23.28,13A2.19,2.19,0,0,0,23.28,9.76ZM21.44,6.44a1.25,1.25,0,0,1,0,1.81l-3.23,3a1.5,1.5,0,0,0-.46-1L16.56,9.2l2.95-2.76A1.43,1.43,0,0,1,21.44,6.44ZM18.16,2.65a1.43,1.43,0,0,1,1.93,0,1.23,1.23,0,0,1,0,1.81l-4.29,4L13.87,6.67Zm-4-1.26a1.43,1.43,0,0,1,1.93,0,1.22,1.22,0,0,1,0,1.81L13.11,6,11.18,4.15ZM3.85,3.11l.7-.65a4.75,4.75,0,0,1,6.41,0,.57.57,0,0,0,.35.14l-.89.83-.25-.23a.58.58,0,0,0-.79,0,.5.5,0,0,0,0,.74L17,11a.5.5,0,0,1,0,.74.57.57,0,0,1-.39.15h0a.58.58,0,0,1-.39-.15L8.58,4.68a.58.58,0,0,0-.79,0,.5.5,0,0,0,0,.74l7.59,7.11h0l1,.94a.5.5,0,0,1,0,.74.57.57,0,0,1-.39.15h0a.57.57,0,0,1-.39-.15L7,6.16a.58.58,0,0,0-.79,0,.5.5,0,0,0,0,.74L13.81,14a.5.5,0,0,1,0,.74.57.57,0,0,1-.39.15h0a.57.57,0,0,1-.39-.15L5.43,7.64a.58.58,0,0,0-.79,0,.5.5,0,0,0,0,.74l7.18,6.73a.5.5,0,0,1,0,.74.58.58,0,0,1-.79,0L3.85,9.11h0A4.06,4.06,0,0,1,3.85,3.11Zm18.67,9.18-9.68,9.07A6.14,6.14,0,0,1,8.62,23,6.14,6.14,0,0,1,4.4,21.35L2.5,19.57a4.37,4.37,0,0,1-1.42-3.21V3.3a.52.52,0,0,1,.54-.5A2,2,0,0,1,2.5,3a5,5,0,0,0,.56,6.84h0l7.17,6.72a1.76,1.76,0,0,0,2.37,0A1.54,1.54,0,0,0,13,15.9a1.78,1.78,0,0,0,.39,0h0a1.72,1.72,0,0,0,1.18-.46,1.54,1.54,0,0,0,.32-.46,1.72,1.72,0,0,0,1.08.38h0a1.72,1.72,0,0,0,1.18-.46,1.51,1.51,0,0,0,.49-1.11,1.43,1.43,0,0,0-.1-.53l3-2.83a1.43,1.43,0,0,1,1.93,0A1.23,1.23,0,0,1,22.52,12.29Z"/>
</svg>
