<svg id="Layer_1" data-name="Layer 1" xmlns="http://www.w3.org/2000/svg" viewBox="0 0 30 30">
  <title>ou-hand</title>
  <path d="M27.9,26.05h0l.13-.26.6.12a.52.52,0,0,0,.58-.29A.5.5,0,0,0,29,25l-.55-.38c0-.06,0-.13,0-.19h.69a.52.52,0,0,0,.51-.39.49.49,0,0,0-.28-.57l-.66-.31s0-.09,0-.14h0l.73-.11a.51.51,0,0,0,.44-.46s0,0,0,0a.51.51,0,0,0-.37-.48l-.77-.23h0c0-.11,0-.21,0-.31l.67-.29a.5.5,0,0,0,.29-.59.52.52,0,0,0-.55-.38l-.73.06.59-.41a.5.5,0,0,0,.19-.59.52.52,0,0,0-.55-.32l-.68.07.55-.39a.5.5,0,0,0,.18-.6.52.52,0,0,0-.55-.32l-.67.08.54-.39a.5.5,0,0,0,.17-.6.52.52,0,0,0-.55-.31l-.65.08.52-.38a.5.5,0,0,0,.17-.6.52.52,0,0,0-.55-.31l-.65.09.52-.38a.5.5,0,0,0,.1-.71.53.53,0,0,0-.73-.1l-.52.38-1.3-3a1.3,1.3,0,0,0-1.39-.76,1.27,1.27,0,0,0-1.11,1.11L22,13.33,8.83.57A1.89,1.89,0,0,0,7,.06,2.1,2.1,0,0,0,5.57,1.37L5,.81a1.87,1.87,0,0,0-2.67,0,1.71,1.71,0,0,0-.49,1.8,2.16,2.16,0,0,0-1.29.6A1.85,1.85,0,0,0,.72,6l.78.76a2.07,2.07,0,0,0-.78.46,1.59,1.59,0,0,0,0,2.28l7.23,7.3a48.15,48.15,0,0,1,3.41,3.81L11,21s-.41.38-.21.79a.54.54,0,0,0,.68.28l.85-.34-.52.74a.5.5,0,0,0,0,.6.53.53,0,0,0,.6.16l.89-.35-.54.77a.49.49,0,0,0,0,.6.53.53,0,0,0,.6.15l.91-.36-.54.8a.49.49,0,0,0,0,.61.53.53,0,0,0,.61.13l.91-.39h0l-.51.83a.49.49,0,0,0,.07.61.53.53,0,0,0,.62.1l.89-.45,0,0-.44.89a.5.5,0,0,0,.14.61.53.53,0,0,0,.64,0l.81-.58,0,0-.3.91a.5.5,0,0,0,.23.59.53.53,0,0,0,.64-.08l.59-.59-.17.81a.51.51,0,0,0,.31.57.53.53,0,0,0,.63-.18L20,28.6l.08,0,0,.88a.51.51,0,0,0,.45.48.52.52,0,0,0,.57-.34L21.4,29l.18,0,.22.66a.52.52,0,0,0,.55.35.51.51,0,0,0,.46-.46l.05-.51.19,0,.23.44a.52.52,0,0,0,.59.26.5.5,0,0,0,.39-.5v-.38l.18,0,.2.31a.53.53,0,0,0,.62.21.49.49,0,0,0,.34-.54l-.05-.37h0a4.89,4.89,0,0,0,.46-.26l.3.27a.53.53,0,0,0,.67,0,.5.5,0,0,0,.16-.63l-.22-.43.29-.31.47.22a.53.53,0,0,0,.64-.16.5.5,0,0,0,0-.64l-.4-.43h0M8.1,1.29,22,14.78a.53.53,0,0,0,.54.12.51.51,0,0,0,.35-.42L23.18,12a.25.25,0,0,1,.23-.22.25.25,0,0,1,.28.15l4,9a6.26,6.26,0,0,1-.44,4.24,4.52,4.52,0,0,1-2.66,2.57c-3.26,1-5.94-.67-7.61-2.3-.91-.89-2.27-2.51-3.7-4.22-1.64-2-3.33-4-4.55-5.14L1.45,8.78a.6.6,0,0,1-.18-.42.61.61,0,0,1,.19-.44c.29-.28.87-.37,1.08-.17l7.52,7.31a.53.53,0,0,0,.74,0,.5.5,0,0,0,0-.72L1.46,5.27c-.18-.18-.73-.8-.18-1.34a1.12,1.12,0,0,1,1.55,0l9.38,9a.53.53,0,0,0,.74,0,.5.5,0,0,0,0-.72L3,2.62a.71.71,0,0,1,0-1.08.83.83,0,0,1,1.2,0l9.87,9.59a.53.53,0,0,0,.74,0,.5.5,0,0,0,0-.72L6.79,2.56a.77.77,0,0,1-.25-.8A1.08,1.08,0,0,1,7.28,1,.83.83,0,0,1,8.1,1.29Z"/>
</svg>
