<svg id="Layer_1" data-name="Layer 1" xmlns="http://www.w3.org/2000/svg" viewBox="0 0 835.66 444.31">
  <defs>
    <style>
      .cls-1 {
        fill: #939598;
      }

      .cls-1, .cls-13, .cls-14, .cls-2, .cls-3 {
        fill-rule: evenodd;
      }

      .cls-2 {
        fill: #bcbec0;
      }

      .cls-3 {
        fill: #e7d78f;
      }

      .cls-13, .cls-14, .cls-16, .cls-17, .cls-4 {
        fill: none;
      }

      .cls-4 {
        stroke: #fff;
      }

      .cls-13, .cls-14, .cls-4 {
        stroke-miterlimit: 2.61;
        stroke-width: 1px;
      }

      .cls-5 {
        font-size: 10px;
        fill: #77696e;
        font-family: -apple-system, BlinkMacSystemFont, "Segoe UI", "Roboto", "Oxygen", "Ubuntu", "Cantarell", "Fira Sans", "Droid Sans", "Helvetica Neue", sans-serif;
      }

      .cls-6 {
        letter-spacing: -0.01em;
      }

      .cls-7 {
        letter-spacing: -0.04em;
      }

      .cls-8 {
        letter-spacing: -0.01em;
      }

      .cls-9 {
        letter-spacing: 0em;
      }

      .cls-10 {
        letter-spacing: -0.09em;
      }

      .cls-11 {
        letter-spacing: -0.1em;
      }

      .cls-12 {
        letter-spacing: -0.02em;
      }

      .cls-13 {
        stroke: #231f20;
      }

      .cls-13, .cls-14 {
        stroke-dasharray: 1 3;
      }

      .cls-14 {
        stroke: #6d6e71;
      }

      .cls-15 {
        letter-spacing: 1.65em;
      }

      .cls-16 {
        stroke: #000;
      }

      .cls-16, .cls-17 {
        stroke-miterlimit: 10;
        stroke-width: 2px;
      }

      .cls-17 {
        stroke: #f04e27;
      }
    </style>
  </defs>
  <title>indonesia</title>
  <g>
    <g>
      <path class="cls-1" d="M519,321.62l2.47,2.86,3.47-1.78,3-.47.24-4.23-2.1.61-4.43.48L519,321.62Zm13.41-5.12,3.42,3.84,4,3.68.52-.22,3.06-3,2.7-.83,3.06.24,6.85-1.25,4.68-2.85,4.8-1.36,1.26-2,1.86-.3,3.3-2.14L572,309l-1.56-1.54L564.16,309l-3.95-.24-3.71.83h-3.35l-4.55.71-6.94-.36-5.27,4.62Z"/>
      <polygon class="cls-2" points="285.05 129.66 288.42 135.67 293.76 139.41 294.3 140.78 298.08 144.28 299.45 147.01 301.91 147.31 306.71 146 307.25 144.1 311.39 144.4 313.72 143.21 322.84 143.69 332.07 140 334.53 137.86 342.59 137.62 346.78 139.63 348.1 141.65 352.05 141.53 358.87 137.86 366.76 136.67 366.29 134.19 372.87 124.36 375.5 117.37 380.53 109.91 384.12 97.24 384.12 94.75 385.79 91.91 385.55 89.78 389.02 85.63 391.78 86.82 397.04 86.34 404.34 86.46 406.14 87.77 410.8 87.65 414.4 88.71 414.69 87.24 418.64 89.85 421.4 90.56 424.87 88.78 429.18 87.95 429.18 86.06 424.75 82.39 424.75 78.12 426.78 76.7 433.48 77.3 438.99 75.99 442.46 73.39 441.74 70.78 439.11 70.78 435.28 70.07 432.4 67.47 429.53 67.71 425.46 63.8 423.19 63.8 420.56 66.28 419 64.86 422.59 61.78 420.8 59.65 419.36 60.13 417.09 63.2 415.65 61.43 414.33 60.84 414.45 55.98 417.33 54.92 417.21 52.79 413.26 50.18 411.82 51.13 408.71 48.28 408.59 43.78 405.24 41.65 403.69 42.6 404.64 45.56 401.05 48.99 399.62 48.76 400.69 45.8 400.1 43.07 397.94 42.96 395.67 50.3 393.27 50.89 389.81 58.82 389.21 63.09 383.22 69.36 380.35 69.36 375.56 71.14 373.89 73.27 375.68 73.15 374.49 74.93 376.04 75.52 379.87 74.45 378.32 76.82 375.68 78.12 375.22 78.75 375.54 80.05 377.57 85.75 376.14 88.55 373.92 87.3 373.62 83.2 372.92 80.24 372.33 80.38 372.38 79.69 370.92 79.87 369.12 82.55 370.26 89.85 368.52 90.69 365.29 88.19 362.41 83.38 360.67 83.2 358.16 82.1 355.94 84.91 355.82 88.78 351.51 92.45 349.95 95.77 345.29 100.15 344.21 103.11 340.14 108.08 335.71 111.87 322.19 115.07 320.7 115.78 321.62 120.04 323.21 121.8 321.14 121.03 318.81 122.24 314.89 122.72 313.05 124.92 311.96 128.33 311.9 133.07 309.03 136.97 309.15 138.28 302.57 137.45 295.75 134.96 290.96 135.08 289.16 132.48 286.29 129.28 285.05 129.66"/>
    </g>
    <g>
      <polygon class="cls-3" points="43.04 66.22 45.43 65.04 52.25 65.98 59.91 71.19 62.3 72.74 67.21 71.43 71.4 71.55 73.19 72.74 75.47 71.91 78.94 71.91 82.77 73.33 85.16 77.59 86.6 78.06 88.51 82.09 91.86 83.86 92.7 89.08 93.78 91.56 97.73 92.16 101.67 96.53 104.91 96.89 114.48 103.17 115.8 105.42 119.39 106.13 122.38 109.92 122.62 114.77 124.29 117.14 126.56 114.89 127.52 119.27 129.44 120.57 130.28 119.03 134.22 119.27 140.45 122.71 145.23 127.44 146.01 133.52 148.71 135.6 150.86 134.94 153.14 135.42 160.09 142.19 160.63 146.47 160.63 148.67 164.77 152.06 170.59 151.88 174.36 153.66 175.14 155.74 173.53 158 171.97 158.41 170.41 159.84 168.01 160.31 172.21 160.08 175.62 158 179.46 155.44 182.4 155.8 187.49 161.38 188.45 164.77 183.53 165.54 179.58 168.45 177 170.77 180.6 169.46 182.58 170.23 186.17 169.7 188.69 171.01 184.84 173.15 181.49 174.69 181.37 177.41 187 181.2 193.46 181.32 195.13 182.86 199.08 181.32 199.56 189.37 200.88 192.92 199.32 196.12 201.48 194.82 203.87 198.01 204.35 202.87 207.58 203.34 212.6 202.75 215.72 204.05 216.67 206.66 218.71 207.73 220.02 211.51 223.02 213.88 225.53 215.07 226.01 218.14 224.69 220.51 221.7 221.81 221.46 227.03 222.9 229.51 220.14 236.02 221.94 242.06 220.26 251.06 220.62 258.4 218.35 260.65 216.44 259.83 213.44 255.21 210.69 254.62 209.38 256.87 209.25 261.13 207.94 262.19 201.48 256.27 198.48 255.68 198.48 257.46 199.44 259.12 199.44 262.31 198.25 263.73 195.97 259.94 193.82 259 192.98 255.56 183.17 247.04 178.38 245.73 176.71 242.18 169.29 237.56 164.98 232.83 161.39 230.58 160.79 225.84 156.72 223.24 155.04 221.34 150.38 220.39 148.7 216.37 142.6 208.91 136.62 204.41 135.06 200.26 135.42 195.65 129.2 184.28 128.48 176.23 124.65 173.38 120.58 166.28 120.58 163.44 115.68 160.12 111.37 158.82 109.81 154.08 106.46 145.32 106.62 144.27 105 140.11 102.9 137.79 104.22 135.48 103.62 133.75 101.64 134.05 99.36 132.74 94.93 127.22 91.45 127.28 89.35 125.38 88.75 121.17 87.19 119.86 87.19 115.6 85.52 115.6 79.66 110.04 73.79 100.8 68.41 96.3 66.25 97.13 63.74 96.18 59.31 90.73 57.16 90.73 49.98 82.92 47.35 81.73 43.19 72.79 42.35 67.98 43.04 66.22"/>
      <polygon class="cls-3" points="52.54 112.42 51.22 113.79 50.27 115.81 53.44 117.77 57.34 117.24 55.06 114.21 52.54 112.42"/>
      <polygon class="cls-3" points="75.14 126.86 79.04 128.11 77.6 126.03 75.14 126.86"/>
      <polygon class="cls-3" points="75.32 139.34 78.56 139.22 80.18 137.5 82.34 138.27 84.8 142.9 88.64 145.87 87.61 148.19 86.92 152.48 85.46 153.16 82.31 147.4 79.97 146.81 79.13 143.15 75.32 139.34"/>
      <polygon class="cls-3" points="99.06 161.5 102.96 161.56 104.4 162.57 104.76 160.43 100.86 159.07 99.06 161.5"/>
      <polygon class="cls-3" points="96.85 170.41 95.17 173.98 97.15 176.24 99.48 173.92 99.43 171.54 96.85 170.41"/>
      <polygon class="cls-3" points="99.04 182.62 99.04 185.23 102.63 186.53 106.94 192.92 111.13 194.22 111.13 188.07 106.22 181.08 102.51 179.9 99.04 182.62"/>
      <polygon class="cls-3" points="117.11 197.54 115.44 199.44 117.35 201.92 121.06 203.11 117.11 197.54"/>
      <polygon class="cls-3" points="123.22 207.96 123.69 211.51 126.21 209.26 123.22 207.96"/>
      <polygon class="cls-3" points="128.12 211.16 125.97 214.12 132.07 219.68 131.35 216.49 131.59 213.76 128.12 211.16"/>
      <polygon class="cls-3" points="158.84 252.53 163.03 255.56 162.97 253.24 160.87 251.69 158.84 252.53"/>
      <polygon class="cls-3" points="147.32 129.42 149.13 134.35 152.12 133.87 155.12 130.49 152.18 127.16 150.14 128.88 147.32 129.42"/>
      <polygon class="cls-3" points="158.78 137.44 162.91 143.5 164.53 144.93 166.63 141.36 164.83 138.86 160.51 137.32 158.78 137.44"/>
      <polygon class="cls-3" points="168.19 142.49 165.73 146.59 166.33 149.68 172.03 150.33 175.92 152.23 177.18 151.16 176.1 146.41 172.45 143.32 168.19 142.49"/>
      <polygon class="cls-3" points="209.91 273.74 210.28 275.4 211.47 275.28 211.59 273.74 209.91 273.74"/>
      <polygon class="cls-3" points="212.37 276.06 213.69 277.42 216.21 276.53 216.51 273.2 219.99 272.73 221.54 269.34 221.3 265.89 224.66 262.03 226.16 263.52 230.06 263.46 235.39 264.29 237.91 266.31 239.29 265.12 240.79 263.46 245.88 263.76 249.12 266.31 255.06 267.74 262.31 268.51 264.23 271.95 263.63 275.16 264.95 276.53 270.65 279.08 280.66 278.91 289.53 280.33 297.08 279.08 299.12 276.41 300.08 269.94 303.2 269.76 307.27 274.04 309.91 273.98 312.91 273.44 315.19 274.81 318.67 277.84 321.54 277.66 323.88 280.21 326.04 279.14 330.48 279.2 330.66 283.6 333.83 287.76 334.07 290.2 336.35 292.75 340.07 294.48 343.66 293.17 346.24 294.71 348.94 294.59 351.1 293.23 353.8 293.17 354.57 294.24 357.45 294.71 359.31 296.73 358.29 303.92 356.62 306 358.47 307.25 359.43 312.18 357.45 312.77 355 310.28 351.28 310.69 347.02 307.19 343.61 306.3 340.43 302.97 337.91 302.91 333.18 305.35 328.2 305.53 324.01 303.16 319.35 302.22 315.52 305.41 311.33 302.45 305.59 302.1 302.12 303.99 293.38 300.68 285.36 295.7 280.1 295.82 276.15 293.1 273.76 293.22 271.72 295.58 268.61 295 266.1 292.39 263.81 292.57 260.81 296.02 253.44 293.94 248.28 290.08 243.25 289.72 240.97 288.53 237.91 290.32 234.01 288.95 229.64 288.24 228.14 286.81 230.42 282.71 231.86 281.34 229.52 281.23 227.54 282.29 225.32 280.93 223.82 278.07 220.22 279.5 213.51 279.38 211.35 278.14 211.23 276.23 212.37 276.06"/>
      <polygon class="cls-3" points="255.48 91.27 258.77 94.42 260.63 94.42 259.91 96.97 262.37 96.97 263.75 92.34 259.97 87.29 257.15 88.95 255.48 91.27"/>
      <polygon class="cls-3" points="227.84 111.35 227.78 114.03 229.58 113.08 227.84 111.35"/>
      <polygon class="cls-3" points="227.78 104.46 229.58 102.56 227.54 101.61 227.78 104.46"/>
      <polygon class="cls-3" points="228.2 105.95 227.18 107.91 229.4 108.21 228.2 105.95"/>
      <polygon class="cls-3" points="217.8 109.05 217.44 111.9 219.24 113 222.47 109.58 219.78 108.54 217.8 109.05"/>
      <polygon class="cls-3" points="197.44 142.13 195.94 145.46 199.48 146.41 200.5 150.51 202.66 149.74 203.68 144.75 202.06 143.02 203.38 140.47 201.58 140.88 200.02 142.31 197.44 142.13"/>
      <polygon class="cls-3" points="249.3 206.64 250.5 209.49 250.32 211.1 246.94 211.9 245.82 213.56 248.46 213.68 248.37 212.61 250.56 211.51 250.47 216.18 252.99 218.7 255.81 214.39 257.54 216.98 260.09 217.48 261.08 215.17 263.63 213.98 262.1 210.71 256.56 207.18 250.98 206.13 249.3 206.64"/>
      <polygon class="cls-3" points="238.57 212.84 238.09 215.63 240.07 213.91 238.57 212.84"/>
      <polygon class="cls-3" points="214.71 191.8 214.65 194.48 211.53 196.85 213.57 199.53 219.63 199.94 221.25 201.55 221.37 204.81 223.22 206 224.24 210.4 227.96 212.78 231.26 212.36 232.34 215.63 233.9 216.94 235.57 214.5 234.44 211.17 236.17 207.13 230.72 205.89 227.18 202.02 225.86 194.6 224.54 193.41 224.12 190.61 221.72 189.49 219.63 189.49 219.93 192.4 221.13 194.54 217.95 193.47 215.79 191.21 214.71 191.8"/>
      <polygon class="cls-3" points="198.71 171.6 197.03 173.8 199.72 176.35 202.6 174.69 201.52 171.6 198.71 171.6"/>
      <polygon class="cls-3" points="201.34 164.47 199.54 167.68 201.22 169.7 203.92 168.81 207.76 170.83 209.08 169.76 204.04 165.13 201.34 164.47"/>
      <polygon class="cls-3" points="189.29 145.22 192.83 146.35 194.45 143.14 193.79 140.82 189.29 145.22"/>
      <polygon class="cls-3" points="123.23 65.79 123.83 69.18 125.63 71.61 126.95 70.72 126.35 68.47 124.61 66.15 123.23 65.79"/>
      <polygon class="cls-1" points="372.92 80.24 373.62 83.2 373.92 87.3 376.14 88.55 377.57 85.75 375.54 80.05 375.22 78.75 374.37 79.9 372.92 80.24"/>
      <polygon class="cls-1" points="358.16 82.1 360.67 83.2 362.41 83.38 365.29 88.19 368.52 90.69 370.26 89.85 369.12 82.55 370.92 79.87 372.38 79.69 372.45 78.48 372.21 75.17 368.98 76.35 365.03 79.31 358.94 81.12 358.16 82.1"/>
      <polygon class="cls-3" points="807.62 207.03 805.53 268.72 804.57 273.38 804.51 276.03 805.24 277.39 803.89 317.34 802.9 317.33 798.83 315.9 794.19 310.95 793.12 308.57 793.24 307.5 789.88 304.53 788.32 303.58 787.72 301.02 789.22 298.65 789.1 294.96 788.32 298.59 786.16 299.95 781.18 299.6 778.37 301.08 776.03 301.02 774.59 299.6 770.69 301.68 768.65 299.36 770.15 298.41 771.17 295.85 771.17 293.95 771.95 292.88 772.55 288.67 770.45 287.83 768.59 285.46 770.39 285.04 771.89 285.51 775.19 284.21 777.29 283.97 774.89 283.32 771.23 283.85 768.29 282.49 765.54 280.41 766.38 278.27 767.93 278.09 770.51 278.39 769.13 276.72 764.82 273.63 761.94 271.67 761.01 269.6 761.85 266.16 758.14 262.37 758.14 260.95 761.49 258.23 758.38 258.46 756.46 257.16 757.18 255.98 755.86 254.44 758.26 252.54 754.43 253.25 753.35 251.95 751.55 252.66 750.24 251.72 752.99 248.52 750.6 249.94 747.61 250.06 743.18 248.28 741.98 245.2 737.43 243.66 734.56 244.14 724.75 241.06 714.58 237.98 709.61 237.67 705.64 235.83 704.86 234.4 704.44 233.1 700.9 232.33 701.08 229.95 703.48 229.6 704.8 229.95 704.62 229.18 702.16 228.77 699.34 229.89 697.12 229.06 696.04 227.7 695.08 227.4 693.63 229.06 693.03 225.8 691.71 224.91 690.45 225.5 689.61 226.87 687.75 224.85 686.73 220.82 685.26 217.38 687.29 214.77 687.29 210.86 685.62 214.06 684.3 217.61 683.82 220.1 682.39 220.81 679.88 225.31 680.23 228.03 676.88 232.18 673.53 232.89 670.54 231.94 668.03 226.38 668.15 224.36 669.58 223.77 669.94 221.52 669.47 219.27 667.43 219.98 666.23 218.8 664.56 214.77 661.57 213.23 657.74 212.64 656.54 210.98 658.57 208.49 662.52 208.14 663.84 209.44 667.31 209.8 669.82 211.1 673.05 209.21 674.13 205.3 676.64 204.47 681.79 206.84 683.82 209.8 685.26 206.6 687.05 204.23 688.73 204.82 689.21 201.27 688.25 199.14 679.88 198.19 681.07 199.85 679.04 200.33 677.36 199.85 672.22 200.92 670.18 200.21 668.27 201.15 666.23 199.97 663.24 200.68 660.13 200.21 656.66 197.37 655.7 193.57 656.42 192.63 654.62 189.55 649.96 186.94 648.16 185.05 647.21 186.35 644.57 187.77 640.74 187.18 641.34 185.17 645.29 182.68 645.65 180.31 644.45 178.18 646.97 176.05 651.51 175.93 653.79 173.8 656.42 173.09 660.73 169.78 662.04 168.59 667.31 167.53 675.81 170.72 681.07 174.28 686.46 174.04 691.96 174.51 693.28 175.93 692.2 177.71 692.2 181.74 695.07 184.1 696.15 187.06 694.11 190.02 692.32 193.1 693.52 197.48 693.76 205.06 695.91 208.73 697.83 211.1 699.14 211.22 698.78 207.07 700.34 205.42 702.25 206.6 702.13 209.92 703.21 213.11 704.29 212.4 705.36 215.36 709.07 218.32 710.99 220.34 713.74 220.34 716.97 218.91 717.81 215.96 719.6 214.53 721.47 213.86 721.47 209.76 723.57 206.37 726.81 206.08 729.99 204.24 730.35 201.2 731.54 199.48 733.04 200.19 735.08 200.02 738.14 198.89 742.94 198.29 743.6 195.92 742.04 193.01 742.64 191.4 750.91 186.59 754.81 186.94 757.5 189.44 762.54 191.64 768.47 192.95 771.59 195.56 774.95 195.86 779.14 197.05 788.74 201.38 791.2 200.91 793.47 201.27 797.61 202.28 800.61 202.16 803.07 203.88 802.59 205.31 802.71 207.09 804.8 207.8 807.56 207.03 807.62 207.03"/>
      <polygon class="cls-3" points="609.87 161.38 616.18 164.52 616.65 166.18 612.15 163.75 609.87 161.38"/>
      <polygon class="cls-3" points="643.02 168.02 638.21 165.35 637.07 166 637.49 166.72 640.19 167.79 640.25 169.15 637.49 169.56 634.43 168.2 629.63 167.49 631.91 166.84 630.83 165.71 631.85 165.12 635.15 165.06 637.67 163.16 643.26 163.16 647.28 165.59 647.88 167.84 645.12 168.79 643.02 168.02"/>
      <polygon class="cls-3" points="637.61 177.81 634.19 176.57 631.07 177.22 633.65 178.58 637.61 177.81"/>
      <polygon class="cls-3" points="640.01 175.44 637.31 175.85 638.75 177.4 640.01 175.44"/>
      <polygon class="cls-3" points="639.47 177.87 636.05 180.3 636.11 184.75 639.65 185.52 641.21 184.39 642.06 178.82 639.47 177.87"/>
      <polygon class="cls-3" points="546.81 97.66 550.16 101.45 551.23 104.89 549.8 106.54 546.81 103.94 546.21 99.8 546.81 97.66"/>
      <polygon class="cls-3" points="567.06 85.8 568.26 89.78 568.62 92.86 570.3 92.15 571.62 89.24 570.84 86.16 568.62 84.73 567.06 85.8"/>
      <path class="cls-3" d="M567.06,93.81l1.8.48,1,3.08h-1.26S567.06,93.87,567.06,93.81Z"/>
      <polygon class="cls-3" points="593.72 124.24 594.74 129.46 596.6 127.86 599.06 128.04 601.46 125.72 600.5 123.17 598.34 121.81 596.24 123.35 593.72 124.24"/>
      <polygon class="cls-3" points="590.61 168.23 587.85 162.91 587.85 156.75 590.24 155.92 594.08 157.1 598.38 157.22 600.65 159 603.89 158.76 602.33 157.46 601.73 155.09 597.55 152.13 595.39 151.9 594.08 149.65 596.23 147.16 602.21 145.15 604.72 139.34 604.49 136.97 602.57 134.96 597.3 136.86 592.28 139.34 591.92 141.59 593.6 141.71 592.16 143.37 589.29 144.67 588.21 147.28 586.3 147.63 584.86 144.91 587.25 142.54 589.89 142.42 591.2 138.28 591.2 133.3 588.33 132.12 587.73 130.34 590.24 127.5 590.61 124.9 588.93 125.37 583.9 130.23 582.83 134.96 583.18 139.11 581.15 140.65 580.07 144.79 581.75 146.92 583.66 150.36 582.35 152.49 581.75 155.8 584.98 158.41 584.5 160.42 585.1 162.32 583.78 165.75 585.94 169.42 589.41 171.55 592.04 176.88 594.91 178.06 595.63 180.67 595.87 178.66 597.18 178.18 596.23 176.64 591.92 172.85 590.61 168.23"/>
      <polygon class="cls-3" points="577.27 175.61 578.47 178.05 575.04 177.04 576.25 174.84 577.27 175.61"/>
      <polygon class="cls-3" points="577.15 169.03 575.28 168.97 574.26 172.18 576.31 172.94 577.21 170.75 577.15 169.03"/>
      <polygon class="cls-3" points="579.91 170.87 582.19 170.46 584.05 171.76 583.87 174.19 586.21 175.2 587.05 176.57 585.55 178.11 583.75 176.45 580.93 176.5 579.13 173.78 578.89 171.82 579.91 170.87"/>
      <polygon class="cls-3" points="579.37 189.97 583.99 186.53 588.01 186.71 592.1 190.8 591.14 192.7 589.1 192.7 586.33 192.7 584.11 193.12 581.23 191.93 579.37 189.97"/>
      <polygon class="cls-3" points="627.28 191.45 621.16 192.94 619 194.36 620.44 195.72 625.72 197.44 630.29 196.08 628.97 195.37 628.73 192.88 627.28 191.45"/>
      <polygon class="cls-3" points="598.7 223.55 600.56 223.25 600.68 224.5 599.42 224.85 598.7 223.55"/>
      <polygon class="cls-3" points="595.58 223.79 597.26 223.79 597.56 225.27 595.94 225.27 595.58 223.79"/>
      <polygon class="cls-3" points="587.05 225.45 590.96 224.26 592.58 223.07 594.32 223.9 592.34 227.4 591.74 225.86 589.28 227.34 587.05 225.45"/>
      <polygon class="cls-3" points="585.85 215.42 583.93 217.14 585.79 217.44 585.85 215.42"/>
      <polygon class="cls-3" points="589.4 212.04 586.51 212.22 587.17 213.64 588.86 213.52 589.4 212.04"/>
      <polygon class="cls-3" points="590.24 221.28 593.24 216.55 595.75 219.27 597.18 221.4 600.18 221.16 603.29 218.09 605.32 218.09 607.12 221.16 614.3 221.99 615.85 219.86 619.2 219.86 625.79 223.77 628.78 224.36 632.37 228.15 635.84 228.15 637.15 225.19 635.6 219.03 627.34 214.42 620.52 213.11 617.17 210.39 613.58 210.04 610.59 212.64 607.12 212.28 604.72 211.34 599.82 211.69 593 211.57 591.56 213.47 591.32 215.36 588.57 216.31 587.49 219.15 588.33 221.28 590.24 221.28"/>
      <polygon class="cls-3" points="557.46 216.07 560.57 217.38 563.2 215.13 569.54 215.48 574.21 217.38 574.45 219.27 577.32 222.59 577.08 225.07 574.33 224.96 570.98 227.91 567.15 227.56 563.2 227.91 561.76 226.61 556.86 225.66 554.23 222.11 554.7 217.97 557.46 216.07"/>
      <polygon class="cls-3" points="465.68 283.78 463.39 282.6 462.11 283.78 463.93 285.3 465.68 283.78"/>
      <polygon class="cls-3" points="462.22 260.98 464.86 266.2 463.54 268.63 462.28 272.07 461.56 269.64 460.12 267.33 461.26 265.25 461.5 262.64 462.22 260.98"/>
      <polygon class="cls-3" points="554.39 197.56 554.39 200.17 556.67 203.85 556.55 205.4 555.23 204.8 553.79 200.94 553.19 198.22 554.39 197.56"/>
      <polygon class="cls-3" points="545.2 193.59 547 192.76 549.53 193.71 551.87 192.64 558.05 193.47 561.41 194.06 557.51 195.01 550.25 196.67 546.64 195.67 546.52 194.42 545.2 193.59"/>
      <polygon class="cls-3" points="528.75 193.88 530.91 191.75 532.53 192.16 534.58 191.34 537.88 192.16 539.98 193.29 542.08 191.75 544.24 192.52 544.3 195.31 541.72 195.01 538.78 196.38 536.44 195.79 532.83 197.92 529.71 197.27 528.51 195.49 528.75 193.88"/>
      <polygon class="cls-3" points="499.51 254.57 502.33 249.77 503.83 244.66 504.13 239.5 505.51 238.26 507.85 238.62 507.91 240.75 508.93 242.94 508.81 244.49 507.97 243.18 507.43 244.62 505.45 246.15 504.49 247.4 505.21 249.89 507.85 250.48 508.39 251.96 507.25 253.33 505.27 253.98 503.41 257.13 501.31 258.19 499.09 257.01 499.51 254.57"/>
      <path class="cls-3" d="M491.88,251.25l2.94-3.32-1-2,2.22-2.25,2.82-1.42,1.5,2.79-.06,1.72-2.1,2.14-.36,2.73-1.26.35-.42,1.31-2.88.36L492,252.62S492,251.19,491.88,251.25Z"/>
      <path class="cls-3" d="M484.62,248.88l-.18,2.08-1,1,1.2,3.56,1.44.59,2.46-1.66-.78-3.32-2-2.85S484.68,248.88,484.62,248.88Z"/>
      <path class="cls-3" d="M508.87,195l-2.51,1.07,1.8.83S508.87,195.12,508.87,195Z"/>
      <polygon class="cls-3" points="512.34 192.98 510.91 194.29 513.3 194.64 512.34 192.98"/>
      <polygon class="cls-3" points="516.65 189.67 514.74 191.09 517.25 191.92 516.65 189.67"/>
      <polygon class="cls-3" points="502.75 185.82 506.47 183.62 511.03 183.98 511.38 185.41 510.31 187.3 512.82 186.71 514.02 184.7 516.41 186.47 515.81 188.96 512.82 189.67 511.86 188.48 510.31 190.73 507.56 188.72 505.4 190.61 502.89 188.84 502.75 185.82"/>
      <path class="cls-3" d="M485.28,169.62l2.64,1.07.12-1.78S485.34,169.56,485.28,169.62Z"/>
      <polygon class="cls-3" points="482.94 170.46 484.44 170.4 486.72 171.76 484.38 172.29 482.94 170.46"/>
      <polygon class="cls-3" points="462.08 156.04 465.91 154.74 470.46 156.87 475.84 156.99 481.83 154.03 485.78 154.5 487.21 156.39 490.68 156.39 492.72 155.45 499.78 156.16 503.49 155.92 504.21 154.97 508.15 155.09 510.79 156.51 511.63 158.17 514.98 159.24 527.54 156.39 532.8 152.84 534.24 150.12 536.39 149.88 538.19 147.75 540.46 146.21 541.54 143.37 542.98 141 544.53 139.82 542.98 138.16 542.62 136.26 537.95 135.2 534.72 136.26 534.12 139.46 531.61 141.36 531.37 143.01 527.9 145.5 525.27 145.85 523.59 148.34 519.64 149.29 511.75 147.75 505.04 147.16 503.85 148.93 502.29 149.17 499.06 146.33 496.55 146.09 493.68 146.21 490.56 145.5 486.25 144.79 483.98 146.21 481.47 144.79 478.24 141.71 473.33 140.76 470.34 140.88 470.34 144.44 467.82 146.09 466.39 149.17 464.24 151.06 459.93 149.65 455.98 150.59 454.42 152.37 454.78 153.55 450.6 157.46 450.6 162.2 451.43 164.92 451.19 170.37 450.36 172.26 452.03 176.17 452.51 179.25 451.19 177.59 450.24 175.1 448.08 175.69 445.93 178.3 443.3 179.72 442.7 182.92 443.18 186.71 441.98 189.19 442.81 196.06 441.98 197.6 441.5 200.33 439.35 201.27 439.46 205.42 435.64 208.38 434.44 212.64 435.04 213.94 433.6 215.84 435.52 221.52 437.31 224.13 438.51 223.41 441.02 223.41 442.81 222.11 444.49 222.94 445.57 227.09 448.44 234.66 447.24 236.56 446.29 240.82 443.89 244.26 443.53 251.36 444.01 256.93 445.81 256.93 448.08 258.35 451.55 258.23 453.11 256.45 456.22 257.16 458.97 256.69 461 258.23 461.6 255.62 461.25 252.31 458.97 250.77 458.49 246.5 460.29 243.54 461 238.1 460.41 233.01 459.09 231.59 462.32 226.85 463.4 222.59 462.44 217.5 460.29 215.6 460.29 214.06 463.88 211.81 465.31 209.56 468.67 208.85 472.01 210.04 471.66 211.69 473.21 214.42 473.21 217.73 470.58 220.69 469.86 223.65 471.66 226.97 473.93 227.32 475.96 229.81 479.79 232.06 480.39 235.14 479.07 234.9 478.24 240.94 479.43 244.26 481.83 245.09 483.62 244.49 487.33 246.03 490.08 245.56 489.85 244.38 488.89 242.01 491.76 239.4 494.63 238.69 498.58 236.44 503.49 236.8 505.28 234.9 506.6 235.61 508.99 235.61 510.43 233.24 509.95 231.82 505.64 231.47 504.32 232.06 502.89 231.59 499.78 231.94 499.54 229.57 497.98 229.34 498.1 227.8 496.67 227.44 495.23 228.27 495.11 226.49 492.24 225.66 491.28 223.65 493.2 221.76 493.91 220.22 495.11 220.69 494.15 218.68 495.59 218.44 496.31 216.78 494.75 215.25 492.48 214.53 493.44 212.99 493.08 211.22 490.2 209.32 488.29 209.21 487.45 206.13 482.9 201.03 480.15 199.14 478.48 196.18 478.83 194.88 480.15 195 480.87 196.65 483.86 196.77 486.49 194.76 487.21 192.75 493.91 190.38 498.7 186.71 500.97 182.92 503.97 181.38 504.09 179.13 507.68 178.3 510.91 179.96 512.94 180.2 515.81 176.17 515.81 173.56 512.34 172.26 504.92 172.97 501.69 175.22 496.78 175.22 494.39 175.93 491.52 178.89 488.41 178.66 486.02 179.25 482.9 177.35 479.91 176.52 476.68 180.67 474.41 186.12 471.18 187.77 467.71 187.3 466.87 185.76 462.56 181.02 458.25 177.35 455.98 171.55 456.46 165.16 459.09 159 462.08 156.04"/>
      <polygon class="cls-3" points="415.9 92.14 416.86 93.8 415.21 93.06 415.9 92.14"/>
      <polygon class="cls-3" points="416.02 90.3 419.53 91.61 419.59 92.7 416.86 92.58 415.9 90.98 416.02 90.3"/>
      <polygon class="cls-3" points="417.88 99.47 414.49 100.3 416.98 100.98 417.88 99.47"/>
      <polygon class="cls-3" points="414.34 102.82 415.93 103.74 415.9 106.64 414.82 106.32 414.34 102.82"/>
      <polygon class="cls-3" points="393.53 221.41 394.4 222.21 394.01 226.57 393.11 226.83 392.93 222.71 393.53 221.41"/>
      <polygon class="cls-3" points="392.12 221.58 392.3 227.31 391.43 230.6 388.88 232.35 387.56 230.75 388.07 226 389.78 221.26 391.31 220.31 392.12 221.58"/>
      <polygon class="cls-3" points="277.13 169.62 281.18 170.8 281.79 171.69 280.07 172.64 277.1 171.6 276.5 170.06 277.13 169.62"/>
      <polygon class="cls-3" points="278.72 176.76 282.99 177.51 284.82 179.26 286.14 179.64 286.23 180.83 282.32 180.65 280.7 180.74 278.36 178.04 278.72 176.76"/>
      <path class="cls-3" d="M282.14,182l4.12.18,2.4,1.69-3.21,3.32-2.07.59L282,186l.48-2.11S282.18,182,282.14,182Z"/>
      <polygon class="cls-3" points="274.21 142.66 276.84 138.16 280.79 132.95 282.46 130.46 285.05 129.66 288.42 135.67 293.76 139.41 294.3 140.78 298.08 144.28 299.45 147.01 301.91 147.31 306.71 146 307.25 144.1 311.39 144.4 313.72 143.21 322.84 143.69 332.07 140 334.53 137.86 342.59 137.62 346.78 139.63 348.1 141.65 352.05 141.53 358.87 137.86 366.76 136.67 366.29 134.19 372.87 124.36 375.5 117.37 380.53 109.91 384.12 97.24 384.12 94.75 385.79 91.91 385.55 89.78 389.02 85.63 391.78 86.82 397.04 86.34 404.34 86.46 406.14 87.77 410.8 87.65 414.4 88.71 414.22 89.61 412.54 89.97 412.78 91.5 411.7 93.16 415.17 94.47 418.4 98.25 414.69 99.2 410.99 98.61 409.43 99.56 412.06 102.64 413.46 103.41 413.85 105.21 412.42 105.6 411.23 108.08 413.98 110.45 415.05 113.89 420.56 119.57 423.07 121.82 421.4 124.9 417.09 125.84 416.49 127.86 417.93 129.04 418.64 131.88 421.16 133.3 428.22 139.82 430.61 139.82 433.36 142.9 434.32 144.91 436.95 145.5 436.12 148.46 434.08 149.29 431.93 148.46 429.41 150.24 425.58 149.76 420.2 144.55 421.28 148.93 420.32 150.59 418.76 148.58 415.29 152.01 415.29 154.38 413.74 156.16 413.14 162.43 411.7 164.68 410.51 170.37 406.08 173.8 407.75 178.06 405.72 181.02 402.85 183.98 401.45 180.9 399.77 180.06 400.68 182.26 400.43 185.76 397.61 188.96 397.07 191.87 394.31 193 391.85 192.64 392.45 194.12 391.13 196.02 395.15 195.79 395.81 196.44 395.33 199.34 393.41 200.71 394.49 201.42 396.41 201.24 396.83 203.5 395.81 206.05 393.17 205.28 392.69 204.62 392.51 205.93 394.01 207.35 395.03 208.3 392.51 213.58 390.76 213.59 390.04 212.28 389.09 216.43 389.09 218.68 385.62 224.96 379.99 228.74 375.2 229.57 368.38 232.77 365.15 233.24 364.2 228.74 364.79 226.26 363.12 223.77 362.52 222.59 360.96 223.3 359.17 220.93 357.61 221.76 354.98 221.05 353.54 218.44 352.38 221.05 353.52 223.24 350.44 222.38 349.12 220.69 349.12 218.09 347.32 216.55 345.41 217.73 342.42 215.96 340.62 216.19 338.11 218.91 334.04 219.51 333.36 221.12 330.9 221.47 329.16 219.93 327.24 220.46 323.39 225.15 320.99 225.15 321.35 222.48 320.87 216.96 319.49 212.93 320.15 210.08 319.13 207.89 319.43 209.67 317.93 212.81 315.83 214.18 313.79 212.75 310.96 214.77 306.76 215.13 304.24 214.23 300.76 214 299.74 211.86 297.15 214.06 295.29 214.06 293.37 209.49 293.31 205.57 292.41 198.22 289.53 196.38 288.75 194.36 290.55 192.16 292.83 188.9 292.41 186 290.79 183.09 286.06 178.42 281.99 176.05 278.06 175.14 277.94 173.84 280.94 173.48 283.52 171.23 289.35 169.86 293.25 166.84 296.43 167.07 293.43 166.18 288.99 168.91 283.82 169.68 281.66 170.16 278.3 169.15 276.2 165.35 277.22 164.34 279.14 165.29 277.64 162.8 272.72 156.69 272.24 150.46 274.52 149.1 274.88 147.14 274.04 144.94 274.21 142.66"/>
      <polygon class="cls-3" points="704.4 178.06 706.44 180.2 704.29 180.67 702.37 178.66 704.4 178.06"/>
      <polygon class="cls-3" points="711.71 188.48 707.4 188.48 709.79 189.31 711.71 188.48"/>
      <path class="cls-3" d="M714.22,189.55l6.1,2.13,3.35-1.66,5,1.42,2.75-.71,5.62,1.18L735.16,193,728.22,194,720.56,193l-5.27-2.13A12.58,12.58,0,0,0,714.22,189.55Z"/>
      <polygon class="cls-3" points="714.22 173.8 716.97 176.52 716.85 174.63 718.53 174.75 721.4 178.54 720.92 180.67 723.43 181.14 724.39 181.14 725.83 181.85 729.66 181.14 728.22 179.72 725.83 178.54 723.67 175.1 720.92 173.33 718.29 173.33 713.62 172.5 714.22 173.8"/>
      <polygon class="cls-3" points="666.01 256.06 668.36 259.26 668.24 263.06 667.03 261.81 666.91 259.2 666.01 256.06"/>
      <polygon class="cls-3" points="674.96 252.79 671.66 254.51 670.22 261.4 669.02 263.35 671.24 262.52 673.46 255.76 674.96 252.79"/>
      <polygon class="cls-3" points="701 274.86 699.74 276.28 700.58 276.99 701.36 276.16 701 274.86"/>
      <polygon class="cls-3" points="691.3 269.01 694.3 271.53 695.35 273.76 696.85 274.71 696.26 276.19 693.19 278.92 691.54 279.16 689.98 277.64 690.25 274.62 691.36 274.71 692.53 275.83 691.75 274 690.46 272.78 690.37 269.4 690.01 268 691.3 269.01"/>
      <path class="cls-3" d="M697.28,270.17l1.65,1.33.57,1.63-1.68.33-1.35-1-.15-1.57S697.28,270.08,697.28,270.17Z"/>
      <polygon class="cls-3" points="692.71 265.19 693.22 266.97 695.98 269.58 695.02 270.2 693.01 269.16 690.52 266.37 690.79 264.74 692.71 265.19"/>
      <polygon class="cls-3" points="698.9 262.78 696.07 263.82 693.73 265.87 694.3 266.76 697.79 268.63 699.14 269.61 700.85 267.56 701.18 265.75 700.49 265.33 700.79 264.44 699.77 262.96 698.9 262.78"/>
      <polygon class="cls-3" points="692.44 259.13 691.54 259.17 691.12 260.29 692.44 260.26 692.44 259.13"/>
      <polygon class="cls-3" points="697.66 254.46 699.1 254.34 700.48 256.29 699.22 256.23 697.66 254.46"/>
      <polygon class="cls-3" points="697.06 255.52 699.04 257.01 700.36 257.18 700.48 260.03 699.7 261.57 697.78 261.51 695.5 263.11 694.3 263.23 693.82 261.28 696.1 259.68 694.53 259.97 694.3 258.67 692.55 258.19 694.06 257.77 695.5 255.28 697.06 255.52"/>
      <polygon class="cls-3" points="653.47 281.38 656.17 280.02 655.26 279.49 653.47 281.38"/>
      <polygon class="cls-3" points="650.64 282.75 653.64 283.23 654.78 284.89 650.64 282.75"/>
      <path class="cls-3" d="M636.41,289.69l-1.92.71,1.38.3S636.41,289.51,636.41,289.69Z"/>
      <polygon class="cls-3" points="640.55 287.85 636.23 288.15 638.33 289.04 640.07 288.62 640.55 287.85"/>
      <polygon class="cls-3" points="640.85 299.78 638.99 299.6 635.99 301.62 635.51 302.92 637.91 302.44 640.07 300.79 640.85 299.78"/>
      <polygon class="cls-3" points="646.14 286.25 641.64 290.23 641.46 291.77 642.06 292.89 640.25 294.38 640.19 296.81 642.6 298.83 644.7 298.23 648.48 293.55 649.74 289.51 649.08 287.2 649.98 285.48 649.68 284.29 647.76 283.82 646.2 285 646.14 286.25"/>
      <polygon class="cls-3" points="621.04 270.17 623.32 268.81 621.64 267.98 621.04 270.17"/>
      <polygon class="cls-3" points="613.41 275.16 611.73 276.4 614.01 276.52 613.41 275.16"/>
      <polygon class="cls-3" points="619.48 299.89 616.06 301.68 618.04 301.68 619.48 299.89"/>
      <polygon class="cls-3" points="613.96 295.09 615.88 294.14 618.04 295.38 618.7 298 616.18 298.53 614.08 296.81 613.96 295.09"/>
      <polygon class="cls-3" points="596 283.88 597.5 282.69 599.18 283.88 598.34 285.18 596.54 285.12 596 283.88"/>
      <polygon class="cls-3" points="599.78 303.1 602.85 302.86 604.23 303.69 601.46 303.93 599.78 303.1"/>
      <polygon class="cls-3" points="574.26 291.77 577.39 289.57 575.4 288.62 574.09 289.81 574.26 291.77"/>
      <polygon class="cls-3" points="583.03 301.08 587.95 301.44 590.66 300.9 590.66 302.62 586.75 303.99 583.51 302.44 583.03 301.08"/>
      <polygon class="cls-3" points="578.41 302.44 580.69 301.79 580.57 303.57 578.41 302.44"/>
      <polygon class="cls-3" points="570.84 301.38 572.95 300.31 574.63 301.68 572.58 302.74 570.84 301.38"/>
      <polygon class="cls-3" points="508.81 336.02 507.79 339.4 509.47 340.71 514.88 340.41 519.62 337.33 522.57 336.44 525.27 336.67 528.39 334.42 530.43 331.34 536.67 326.71 538.18 324.75 539.88 324.02 535.86 320.34 532.45 316.5 531.01 317.2 528.2 318.01 527.97 322.24 524.97 322.71 521.5 324.49 519.03 321.62 518.09 322.53 514.86 324.42 513.66 327.85 510.55 332.94 510.05 334.33 511.4 335.57 511.94 336.94 510.17 336.94 508.81 336.02"/>
      <polygon class="cls-3" points="505.51 339.64 506.77 336.32 505.51 336.26 503.77 338.99 505.51 339.64"/>
      <polygon class="cls-3" points="505.88 341.95 502.77 343.37 503.37 343.96 498.22 346.44 495.71 348.69 498.1 349.52 505.64 346.44 506.72 343.84 505.88 341.95"/>
      <polygon class="cls-3" points="481.19 341.24 483 342.43 483.42 344.03 481.25 345.1 478.25 344.92 479.87 342.25 481.19 341.24"/>
      <polygon class="cls-3" points="433.12 323.71 440.3 320.04 444.73 323.47 447.72 323.47 450.71 321.81 454.66 323.71 455.74 326.67 458.97 326.67 461.72 330.81 464.48 333.42 464.6 335.55 460.41 337.68 455.74 338.15 451.91 336.5 449.16 332.59 446.41 332 443.77 328.8 440.06 329.39 435.52 328.44 432.89 326.08 433.12 323.71"/>
      <polygon class="cls-3" points="381.73 286.01 384.16 286.1 384.94 285.92 384.7 286.87 382.33 286.81 381.73 286.01"/>
      <polygon class="cls-3" points="372.13 281.06 374.38 283.19 376.51 280.85 378.1 281.11 379.18 281.11 378.58 280.19 376.48 279.31 373.38 278.92 372.06 280.11 372.13 281.06"/>
      <polygon class="cls-3" points="550.73 297.64 554.33 295.56 559.55 296.69 561.35 298.12 562.14 296.63 564.54 294.79 567.06 293.49 566.4 291.71 563.7 290.58 561.11 292.48 555.53 292.95 553.79 291.53 551.21 292.78 550.01 296.22 550.73 297.64"/>
      <polygon class="cls-3" points="545.2 302.15 544.24 303.51 544.84 304.23 546.1 303.28 545.2 302.15"/>
      <polygon class="cls-3" points="530.19 301.79 526.89 303.22 528.21 304.17 527.13 305.35 527.43 306.6 530.37 307.31 536.01 305.35 537.88 303.22 536.2 302.09 531.63 302.56 530.19 301.79"/>
      <polygon class="cls-3" points="518.12 308.2 520.4 308.14 522.03 309.68 524.61 306.24 524.31 304.82 522.69 306.3 519.62 306.66 518.12 308.2"/>
      <polygon class="cls-3" points="507.85 308.73 511.16 306.42 510.44 304.94 511.88 304.4 514.22 304.76 516.5 303.45 517.76 304.28 514.34 307.43 512.78 309.27 509.36 309.98 507.85 308.73"/>
      <polygon class="cls-3" points="505.09 307.84 501.67 308.5 500.53 311.11 502.39 309.15 505.09 307.84"/>
      <polygon class="cls-3" points="506.83 302.98 504.67 304.82 506.35 305.77 507.38 304.35 506.83 302.98"/>
      <path class="cls-3" d="M447.87,309.86l1,2.79,2.76.65,2.22-.24,2.52.65,2.34-.42,2.58.35,1.92,1.6,3-1.25,1.86,1,2.4.06.72-.89,3.66-1.54,5.32,1,4.67-2.13,5,.12,2.39.83,1.44-1.54,3.59-.47,2.39-3.2,2.16-.95,1.55-2.72-.36-3-3.47-1.42-2.87,1.9,1.31.71-1.91,2.84-3,.95-1.92,2.25-3.71.36-2.15-1.66-4.79-.24L477,307.72l-4.55-2.84-4.31-1.07-2.27.59-4.07-2-8.14,1.78-5,2.72A15.36,15.36,0,0,0,447.87,309.86Z"/>
      <polygon class="cls-3" points="445.65 309.62 444.5 312.88 446.73 312.47 447.09 310.51 445.65 309.62"/>
      <polygon class="cls-3" points="444.09 307.84 441.26 306.95 440.06 310.69 441.81 313.06 442.82 309.15 444.09 307.84"/>
      <path class="cls-3" d="M396.63,310.09l-.48,2,1.2,1.18-1,1.42,1.44,1.78,3,1.3,4.31-.95,2.39.95,3.59-1.18,1.44-1.89,3,1.07,3.59-1.54,3.35.59,3.59-3.08,1.08,2.25,3.11-.47,4.67.59-2.15-1.78h4.31l.36-3.55-1.2,1.42-1-3,.36-2.48-3.47-.95.48,2.61-1.67.71-.36-2.84-3.35-2-3.35,1.18-3.11-1.9L418,300.38,414,302.87l.12,1.78,6.7,2.48,2.63,2.61-4.43.59-2.63,1.18L412.42,309l-.84-2.84-2.27-.47-2.75.71-3-.71-4.79,1.78A20.58,20.58,0,0,0,396.63,310.09Z"/>
      <polygon class="cls-3" points="386.92 306.06 390.4 303.57 395.63 305.23 394.91 309.09 393.41 311.23 393.71 313.95 391.43 313.12 388.24 314.37 382.9 312.77 381.82 311.28 383.26 310.33 386.14 310.45 386.92 306.06"/>
      <polygon class="cls-3" points="376.17 311.23 377.8 309.62 378.88 311.4 377.13 312.29 376.17 311.23"/>
      <polygon class="cls-3" points="360.37 301.09 364.08 300.03 367.79 300.97 372.33 299.44 376.76 300.38 380.35 304.65 379.51 306.54 376.52 307.13 375.44 308.31 372.81 309.62 371.38 311.63 370.54 309.74 366.47 306.66 361.92 305.71 360.37 303.58 360.37 301.09"/>
      <polygon class="cls-3" points="763.8 303.46 765.18 300.91 766.92 299.84 768.05 300.13 769.25 303.88 768.29 304.83 765.18 303.76 763.8 303.46"/>
      <path class="cls-3" d="M747.37,304.05l6.77-6.65,1.74-3.33,1.74-4.69,3.66-1.72,5.94.24,1.08,1,2.46,1.9-.6,1.19-.66,2.73-.78.83v1.72l-1.26,1.66-2.58.65-2.58,3-2.7,1.31-4.26-.66-2.28.48S747.25,304.17,747.37,304.05Z"/>
      <polygon class="cls-3" points="335.03 279.14 332.63 282.53 335.99 285.92 338.45 286.27 340.55 285.03 346.24 285.32 349.24 284.02 352.9 283.54 354.34 281.58 352.66 280.81 348.22 281.46 345.7 280.63 336.77 280.33 335.03 279.14"/>
      <polygon class="cls-3" points="271 191.33 271.24 193.01 273.73 194.12 274.83 192.72 273.46 191.27 271 191.33"/>
      <polygon class="cls-2" points="319.88 115.99 317.67 116.53 317.46 116.58 316.49 116.82 316.49 118.45 318.89 120.79 320.96 119.78 319.88 115.99"/>
      <polygon class="cls-2" points="318.05 121.12 316.19 119.67 315.56 120.47 316.22 121.89 318.05 121.12"/>
      <polygon class="cls-2" points="315.59 122.01 314.78 120.41 312.89 123.14 315.59 122.01"/>
      <line class="cls-4" x1="117.01" y1="226.04" x2="117.6" y2="225.85"/>
    </g>
    <text class="cls-5" transform="translate(54.49 66.12)"><tspan class="cls-6">A</tspan><tspan x="6.21" y="0">ceh</tspan></text>
    <text class="cls-5"><tspan x="213.33" y="140.99">Riau Islands</tspan></text>
    <text class="cls-5" transform="translate(281.35 159.69)"><tspan class="cls-7">W</tspan><tspan x="8.8" y="0">est</tspan><tspan class="cls-8" x="0" y="10">K</tspan><tspan x="6.01" y="10">aliman</tspan><tspan class="cls-9" x="34.33" y="10">t</tspan><tspan x="37.37" y="10">an </tspan></text>
    <text class="cls-5" transform="translate(319.48 192.32)">Cent<tspan class="cls-6" x="20.69" y="0">r</tspan><tspan x="23.76" y="0">al </tspan><tspan class="cls-8" x="0" y="10">K</tspan><tspan x="6.01" y="10">aliman</tspan><tspan class="cls-9" x="34.33" y="10">t</tspan><tspan x="37.37" y="10">an </tspan></text>
    <text class="cls-5" transform="translate(379.25 137.67)">East <tspan class="cls-8" x="0" y="10">K</tspan><tspan x="6.01" y="10">aliman</tspan><tspan class="cls-9" x="34.33" y="10">t</tspan><tspan x="37.37" y="10">an </tspan></text>
    <text class="cls-5" transform="translate(368.24 215.92)">South<tspan class="cls-8" x="0" y="10">K</tspan><tspan x="6.01" y="10">aliman</tspan><tspan class="cls-9" x="34.33" y="10">t</tspan><tspan x="37.37" y="10">an </tspan></text>
    <text class="cls-5" transform="translate(96.82 106.05)">North <tspan x="0" y="10">Suma</tspan><tspan class="cls-8" x="24.87" y="10">t</tspan><tspan x="27.82" y="10">e</tspan><tspan class="cls-6" x="33.12" y="10">r</tspan><tspan x="36.19" y="10">a </tspan></text>
    <text class="cls-5" transform="translate(128.8 239.5)">Bengkulu</text>
    <text class="cls-5" transform="translate(138.5 151.65)">Riau</text>
    <text class="cls-5" transform="translate(86.2 191.36)"><tspan class="cls-7">W</tspan><tspan x="8.8" y="0">est </tspan><tspan x="0" y="10">Suma</tspan><tspan class="cls-8" x="24.87" y="10">t</tspan><tspan x="27.82" y="10">e</tspan><tspan class="cls-6" x="33.12" y="10">r</tspan><tspan x="36.19" y="10">a</tspan></text>
    <text class="cls-5" transform="translate(176.63 212.98)">South <tspan x="0" y="10">Suma</tspan><tspan class="cls-8" x="24.87" y="10">t</tspan><tspan x="27.82" y="10">e</tspan><tspan class="cls-6" x="33.12" y="10">r</tspan><tspan x="36.19" y="10">a</tspan></text>
    <text class="cls-5"><tspan x="235.21" y="191.92">Bangka </tspan><tspan x="235.21" y="201.92">Belitung</tspan><tspan x="235.21" y="211.92">Islands</tspan></text>
    <text class="cls-5" transform="translate(154.35 190.36)">Jambi</text>
    <text class="cls-5" transform="translate(202.84 247.37)">Lampung</text>
    <text class="cls-5" transform="translate(194.03 285.89)">Ban<tspan class="cls-8" x="16.76" y="0">t</tspan><tspan x="19.71" y="0">en</tspan></text>
    <text class="cls-5" transform="translate(233.95 260.14)">Jakar<tspan class="cls-9" x="23.5" y="0">t</tspan><tspan x="26.55" y="0">a</tspan></text>
    <text class="cls-5" transform="translate(365.38 299.85)">Bali</text>
    <text class="cls-5" transform="translate(235.92 284.13)"><tspan class="cls-7">W</tspan><tspan x="8.8" y="0">est </tspan><tspan x="0" y="10">Ja</tspan><tspan class="cls-6" x="10.14" y="10">w</tspan><tspan x="17.42" y="10">a</tspan></text>
    <text class="cls-5" transform="translate(274.03 266.05)">Cent<tspan class="cls-6" x="20.69" y="0">r</tspan><tspan x="23.76" y="0">al </tspan><tspan x="0" y="10">Ja</tspan><tspan class="cls-6" x="10.14" y="10">v</tspan><tspan x="15.03" y="10">a</tspan></text>
    <text class="cls-5" transform="translate(328.64 265.27)">East <tspan x="0" y="10">Ja</tspan><tspan class="cls-6" x="10.14" y="10">v</tspan><tspan x="15.03" y="10">a</tspan></text>
    <text class="cls-5" transform="translate(248.29 308.66)"><tspan class="cls-10">Y</tspan><tspan x="5.2" y="0">og</tspan><tspan class="cls-6" x="16.36" y="0">y</tspan><tspan x="21.27" y="0">akar</tspan><tspan class="cls-9" x="39.82" y="0">t</tspan><tspan x="42.87" y="0">a</tspan></text>
    <text class="cls-5" transform="translate(385.87 315.94)"><tspan class="cls-7">W</tspan><tspan x="8.8" y="0">est </tspan><tspan x="0" y="10">Nusa </tspan><tspan class="cls-11" x="0" y="20">T</tspan><tspan x="4.88" y="20">engga</tspan><tspan class="cls-6" x="32.16" y="20">r</tspan><tspan x="35.23" y="20">a</tspan></text>
    <text class="cls-5" transform="translate(468.04 305.33)">East <tspan x="0" y="10">Nusa </tspan><tspan class="cls-11" x="0" y="20">T</tspan><tspan x="4.88" y="20">engga</tspan><tspan class="cls-6" x="32.16" y="20">r</tspan><tspan x="35.23" y="20">a</tspan></text>
    <text class="cls-5" transform="translate(407.16 196.65)"><tspan class="cls-7">W</tspan><tspan x="8.8" y="0">est </tspan><tspan x="0" y="10">Sulawesi </tspan></text>
    <text class="cls-5" transform="translate(471.25 178.17)">Cent<tspan class="cls-6" x="20.69" y="0">r</tspan><tspan x="23.76" y="0">al </tspan><tspan x="0" y="10">Sulawesi</tspan></text>
    <text class="cls-5" transform="translate(463.78 140.03)">Go<tspan class="cls-12" x="12.55" y="0">r</tspan><tspan x="15.48" y="0">on</tspan><tspan class="cls-9" x="26.41" y="0">t</tspan><tspan x="29.46" y="0">alo</tspan></text>
    <text class="cls-5" transform="translate(530.22 121.17)">North<tspan x="0" y="10">Sulawesi</tspan></text>
    <text class="cls-5" transform="translate(553.42 158.12)">North <tspan x="0" y="10">Maluku</tspan></text>
    <text class="cls-5" transform="translate(593.91 244.22)">Maluku</text>
    <text class="cls-5" transform="translate(494.84 225.74)">Southeast<tspan x="0" y="10">Sulawesi</tspan></text>
    <text class="cls-5" transform="translate(414.24 239.11)">South<tspan x="0" y="10">Sulawesi</tspan></text>
    <text class="cls-5" transform="translate(660.36 183.29)"><tspan class="cls-7">W</tspan><tspan x="8.8" y="0">est </tspan><tspan class="cls-7" x="0" y="10">P</tspan><tspan x="5.48" y="10">apua </tspan></text>
    <text class="cls-5" transform="translate(740.55 220.63)"><tspan class="cls-7">P</tspan><tspan x="5.48" y="0">apua </tspan></text>
    <g>
      <g>
        <path class="cls-13" d="M230.6,263.31c.28,1.22,0,3,.78,3.83.51.51,1.12,1.86,2.16,1.86s2.25.69,3.14.69c1,0,1.27.26,1.37-.78s.07-2,.2-3"/>
        <path class="cls-13" d="M234.33,269.32c-1.57.44-3.28-.13-4.9-.13-2.58,0-1.14,4.51-.88,6.85s1.32,1.5.29,3.88a13.18,13.18,0,0,1-1.28,2.2"/>
        <path class="cls-13" d="M268.17,278c.06,1,.41,4.44-.29,4.88a10,10,0,0,1-3,1.11c-1.11.26-1.66,3.27-1.08,4.43.8,1.61,3.33,2.06,3.33,4.88"/>
        <path class="cls-13" d="M286.11,295.67c.69-.64,5-4.07,5-5.1,0-3.74,6.28-2.6,7.06.39.11.44,3,2.54,3.43,2.94,1.1,1.1,3.67,7.62,5.3,7.94"/>
        <path class="cls-13" d="M317,276.45c-.82,2.06-1.33,5.52-2.84,6.38s-5,.43-5.88,1.67c-1.1,1.61.8,5.72,1,8,.12,1.62.22,2.14-.78,3.14-1.34,1.34-.78,6.77-.78,6.57"/>
      </g>
      <path class="cls-13" d="M359.17,321.57c2.9-5,2.94-6,2.94-12.75,0-4.64-4.49-14.67.1-18.34,6-4.78,18.93-1.32,18.93-12"/>
    </g>
    <g>
      <path class="cls-13" d="M388.41,288.32c-1.24,5.36-2.12,11.57-3.83,16.48a64.35,64.35,0,0,1-4.41,9.81l-3.92,7.06"/>
      <path class="cls-13" d="M446.64,291.07c-3,3.92-1.12,9-3.34,12.57-3.59,5.74-8,10.6-12.18,17.09-1.6,2.5-2.75,4-2.75,7.86s1.77,6.31,1.77,9.82"/>
    </g>
    <g>
      <path class="cls-13" d="M183.06,151.74c4.25-18.44,14.76-5.81,19.27-20.84,1.48-4.93,12.65-18.6,16.51-22,1.31-1.16,3.78-10.23,6.29-13.37,7.31-9.14,31.12-30.64,42.85-13.76,7.49,10.77,9,16.32,9,33,0,3.33-8.37,6-11,8.65-7.47,7.47-7.25,15.18-19.27,22-8.81,5-10.88,13.63-17.69,20.44-1.69,1.69-29.57,5.5-34.21,5.5C187.35,171.4,184.52,156.81,183.06,151.74Z"/>
      <path class="cls-13" d="M213.33,200.49c-4.12-2.22-15.84-13.86-4.32-16.51,6.07-1.4,10.14-4.89,18.87-5.9,14.24-1.64,26.17-9.55,41.68-.79,9.51,5.37,8.87,20,2.75,27.52-4,4.87.81,13.47-7.47,14.55C250.44,221.24,243,221.3,233,215c-4.09-2.56-8.12-3.79-11.79-7.47C219.89,206.27,214.2,199.71,213.33,200.49Z"/>
      <path class="cls-13" d="M92.42,89.06c-2.87.66-4.13,3-4.13,6.29,0,2-3.14,1.35-3.14,5.7,0,5.55,2.55,8.31,2.55,13.75,0,7,.44,5.61-5.11,7.27-1.49.45,1.9,3.81-3.54,4.52-2.57.33.94,2.85-3.14,3.93-5.75,1.53-10.75,7.66-16.5,7.66"/>
      <path class="cls-13" d="M126.64,119.38c0,3.81-2.22,7.87-.39,11.2.9,1.63,3.13,3.93.39,3.93-8.2,0-2.94,7.06-3.73,13.16-.17,1.32-3-1.57-4.91-1.57-3.36,0-.09,4.43,1,5.5,2.55,2.55-5.05.42-8.25.79-1.22.14-6.88,8.41-6.88,11.39,0,5.58-8.42,10.8-13.75,10.8"/>
      <path class="cls-13" d="M122.51,147.66c2.16,9.35,11.2,4.12,11.2,11.79,0,8.11,1.6,6.91,6.09,11.39a27.84,27.84,0,0,0,4.71,3.73c5.58,3.45,5.12,4,9.23,2.36,4.77-1.88,10.41,3.7,10.41-.39,0-4.39,13.51-.25,14.34-2.75"/>
      <path class="cls-13" d="M122.51,225.45A24.36,24.36,0,0,0,132.92,216c.9-1.6,1.18-4.52,1.18-6.48,0-4.83,2.81-5.56,5.11-7.86,3.29-3.29,7-1.33,4.13-4.91-3.53-4.34,8.05-14.71,8.05-19.25"/>
      <path class="cls-13" d="M144.71,198.94c4.33,7.36,9.4,8.92,15.52,5.7,1.4-.74,5.25-1.13,5.89-2.16.76-1.21.2-3.34,1.38-3.34,2.44,0,2.45-.44,4.32-1.18.11,0,5.11,4,5.11.59,0-5.46,4.92-5.13,8.64-7.46.66-.41,6,0,6.88,0,3.72,0,1-2.16,4.91-2.16"/>
      <path class="cls-13" d="M155.71,206.79c.77,4.12,2.42,5.22,5.5,6.29,2.71.94-.34,3.81,4.91,4.91,2,.42,5.89-1.23,5.89,1.57,0,.75-4.11.6-4.71,1.57-4.38,7-1.52,7,4.91,11,8,5,11.2,2.92,11.2,14.34,2.45-2.45,4.48-2.14,7.66-2.55,2.45-.32-.54-8.22,3.34-9.23a37.85,37.85,0,0,0,6.88-3.14,20.52,20.52,0,0,0,4.52-3.14c7.88-7.88,5.71,2.16,13.16,2.16"/>
      <path class="cls-13" d="M183.43,246c-1.07,2.43-3.12,3.2-5.49,4-1.1.38-3,3-4.61,3.82-1.42.73-10,3.63-10,4.61,0,.53-4.16,4.22-5,4.22"/>
      <path class="cls-13" d="M225.8,248.2c-2.6,3.2-3.84,4-5.1,8-.5,1.61-.06,5.62-1.77,6.38-4.71,2.08-8.48,2.32-12.46,5.88-1.41,1.26-9.95,4.34-9.61,3.33"/>
    </g>
    <g>
      <path class="cls-13" d="M303,209.94c6.35-3.71-1.34-19.31.59-22.39s4.77,1.08,7.27-3.93c8-16,36.54-5.33,36.54-24.36,0-11.15,22.88-12.16,24.75-8.84,1.36,2.41-.9,11.48.39,12.77,2.16,2.16,4.91-4.23,4.91,5.3,0,8.6,7.44,8.08,6.68,14.73-.11,1-3.33,2-4.32,3.54-.83,1.33-2.78,10.21-3.14,10.21-11.93,0-4.08,6-9.82,8.05-6.46,2.33-6.09,6.55-6.09,14.14"/>
      <path class="cls-13" d="M399.1,199.33c-4.95,0-8.33.43-10.21-3.34-1.32-2.64.39-6.21.39-9,0-1.42-.67-2.86-1.77-3.14-.94-.24-1.28-1.23-2.16-1.57-.45-.17-1.31.39-1.77.39"/>
      <path class="cls-13" d="M355.85,150.61a12.41,12.41,0,0,1-2.45-4.12c-.91-2,2.14-4.53,3.24-5.3s1.57-.61,1.57-2c0-.93.1-1.8.1-2.75"/>
    </g>
    <g>
      <path class="cls-13" d="M709.5,151.74c0,12.91-.15,31.85-4.32,42.46-2.46,6.24-3.93,10.35-3.93,18.48v16.51"/>
      <path class="cls-13" d="M598.64,192.73c9.36,2.16,21.42,10.91,29.88,10.91,8.16,0,14,11.36,17.69,17.3,11.74,19.07,64.09,11.5,64.09,40.5"/>
    </g>
    <g>
      <path class="cls-14" d="M483.65,145.71c0,2.45-.48,3.21-3,3.53a52.83,52.83,0,0,1-6.47.1c-3.26,0-1.47,2.24.39,3.33,1.22.72,3.53,1.85,3.53,3.24"/>
      <g>
        <path class="cls-14" d="M572.68,114.78c14.54,1.12,20.45-2.75,33-2.75,7.5,0,15.15,49.89,13.76,60.55-.86,6.58-31.09,27.91-35,27.91-18.25,0-33.74,1.18-52.29,1.18-12.14,0-5.1-17-7.47-25.56-.95-3.41,7.64-6.26,10.22-7.86,2.36-1.46,2.52-14.36,2.75-17.69.39-5.61,17.76-17.6,22.41-20.84C564.4,126.73,568.41,115.42,572.68,114.78Z"/>
        <path class="cls-14" d="M573.08,112.82c7.29-4.86,4.72-14.28,4.72-23.59,0-14.33-23.81-15.06-27.91-5.9-1.1,2.44-2.27,5-4.32,6.68-2.71,2.17-.91,9.21-5.11,11.79-3.75,2.3-12.24,12.65-15.33,16.51C521.06,123.39,509,142.6,509,148.6c0,13.34,17.82,9.48,28.31,13"/>
        <path class="cls-14" d="M429.35,278.89c5.69,4.47,26.46,12.08,34,12.38,14,.56,19.45-18.6,36.54-20.43,17.3-1.85,34.29-1,52.84-1"/>
        <path class="cls-14" d="M537.2,310.71c-4.37-4.37.4-7.07,4.32-7.86,2.44-.49,4.36-14.78,4.71-17.48.72-5.53,6-16.84,8.45-23.18,3.14-8.16,4.69-19.75,2.75-27.5-.7-1.8-2.52-6.78-3.73-7.86-2.89-2.56-3.68-8.79-4.91-12-1.14-3-.2-10.19-.2-13.75"/>
        <path class="cls-14" d="M447.23,175.56c1.31,5.81,0,11.23,2.95,16.2.72,1.21.39,3.84.39,5.33,0,5.22,7.22,12.31-3.34,12.31-.65,0-.3,2.78-.79,3.28a51.2,51.2,0,0,0-1,5.54c0,1.14-2.51,5.18-2.16,4.1"/>
        <path class="cls-14" d="M450.69,193.38c3.08.15,4.27.86,7.16-.1,1.56-.52,2.21-1.4,4.22-.2,4,2.38,4.51,4.27,7.55,6.28,4.23,2.79,14.71,3.21,14.71,8.63,0,4.1-1.65,2.35-5,2.35-1.52,0-7.24-.05-7.06-.1"/>
        <path class="cls-14" d="M483.06,210.83c1.21.34,2.4.82,3.63,1.18.81.23,1.89-.27,2.35.29a8.61,8.61,0,0,0,2.55,1.57,12.06,12.06,0,0,0,1.18.59c.62.17,1-.26,1.27.49"/>
      </g>
    </g>
    <text class="cls-5" transform="translate(326.73 401.32)"><tspan class="cls-15">INDONESI</tspan><tspan x="175.9" y="0">A</tspan></text>
  </g>
  <polyline class="cls-16" points="443.27 142.49 443.27 207.85 346.74 207.85 346.74 111.87 443.27 111.87 443.27 142.49"/>
  <rect class="cls-17" x="337.65" y="186.53" width="33.95" height="34.95"/>
</svg>
