<svg id="Layer_1" data-name="Layer 1" xmlns="http://www.w3.org/2000/svg" viewBox="0 0 100 75">
  <title>simplewaves</title>
  <path d="M-4,71.93c2.33,0,2.33,2.14,4.65,2.14S3,71.93,5.3,71.93,7.63,74.07,10,74.07s2.32-2.14,4.65-2.14,2.33,2.14,4.65,2.14,2.33-2.14,4.65-2.14,2.33,2.14,4.65,2.14,2.33-2.14,4.65-2.14,2.33,2.14,4.65,2.14,2.33-2.14,4.65-2.14,2.33,2.14,4.65,2.14,2.32-2.14,4.65-2.14,2.33,2.14,4.65,2.14,2.32-2.14,4.65-2.14,2.33,2.14,4.65,2.14,2.33-2.14,4.65-2.14,2.33,2.14,4.65,2.14,2.33-2.14,4.65-2.14,2.33,2.14,4.65,2.14S86.7,71.93,89,71.93s2.33,2.14,4.66,2.14,2.33-2.14,4.66-2.14,2.33,2.14,4.66,2.14v-71c-2.33,0-2.33-2.14-4.66-2.14S96,3.07,93.68,3.07,91.35.93,89,.93,86.7,3.07,84.37,3.07,82,.93,79.72.93s-2.33,2.14-4.65,2.14S72.74.93,70.41.93s-2.33,2.14-4.65,2.14S63.43.93,61.11.93s-2.32,2.14-4.65,2.14S54.13.93,51.81.93s-2.32,2.14-4.65,2.14S44.83.93,42.51.93s-2.33,2.14-4.65,2.14S35.53.93,33.2.93s-2.33,2.14-4.65,2.14S26.23.93,23.9.93s-2.33,2.14-4.65,2.14S16.93.93,14.6.93,12.28,3.07,10,3.07,7.63.93,5.3.93,3,3.07.65,3.07-1.67.93-4,.93Z"/>
</svg>
